<svg width="920" height="290" viewBox="0 0 920 290" fill="none" xmlns="http://www.w3.org/2000/svg">
<path d="M188.602 29.4353H183.382L176.513 16.5684L169.691 29.4353H164.471L173.674 12.3558H179.352L188.602 29.4353ZM279.734 29.4353H274.514L267.645 16.5684L260.823 29.4353H255.603L264.806 12.3558H270.484L279.734 29.4353Z" fill="#FF16B0"/>
<path d="M166.226 26.198L169.752 27.938L152.214 63.2416L148.688 61.5016L166.226 26.198ZM201.443 61.5016L197.918 63.2416L180.38 27.938L183.906 26.198L201.443 61.5016Z" fill="#FF16B0"/>
<path d="M258.829 26.198L262.355 27.938L244.818 63.2416L241.292 61.5016L258.829 26.198ZM294.047 61.5016L290.521 63.2416L272.984 27.938L276.51 26.198L294.047 61.5016Z" fill="#FF16B0"/>
<path d="M205.98 63.8965V59.6381H231.577V63.8965H205.98Z" fill="#FF16B0"/>
<path d="M147.751 86.6906C147.751 88.4306 147.942 90.1706 148.323 91.9106C148.72 93.6506 149.292 95.3219 150.04 96.9245C150.788 98.5119 151.712 100.015 152.811 101.435C153.909 102.854 155.161 104.113 156.565 105.212L153.658 108.12C152.024 106.838 150.574 105.38 149.308 103.747C148.041 102.129 146.98 100.397 146.125 98.55C145.271 96.7032 144.614 94.78 144.156 92.7806C143.698 90.7811 143.469 88.7511 143.469 86.6906C143.469 84.63 143.698 82.6 144.156 80.6006C144.614 78.5858 145.271 76.6627 146.125 74.8311C146.98 72.9843 148.041 71.2519 149.308 69.634C150.574 68.0008 152.024 66.5432 153.658 65.2611L156.565 68.1687C155.161 69.2524 153.909 70.5116 152.811 71.9464C151.712 73.3658 150.788 74.8769 150.04 76.4795C149.292 78.0669 148.72 79.7306 148.323 81.4706C147.942 83.1953 147.751 84.9353 147.751 86.6906ZM297.532 86.7364C297.532 84.9811 297.333 83.2411 296.936 81.5164C296.555 79.7764 295.99 78.1127 295.242 76.5253C294.494 74.9227 293.571 73.4116 292.472 71.9922C291.373 70.5574 290.121 69.2982 288.717 68.2145L291.625 65.3069C293.258 66.589 294.693 68.0466 295.929 69.6798C297.181 71.2977 298.241 73.0301 299.111 74.8769C299.997 76.7085 300.668 78.6316 301.126 80.6464C301.584 82.6458 301.813 84.6758 301.813 86.7364C301.813 88.7969 301.584 90.8269 301.126 92.8264C300.668 94.8258 299.997 96.749 299.111 98.5958C298.241 100.443 297.181 102.175 295.929 103.793C294.693 105.426 293.258 106.884 291.625 108.166L288.717 105.258C290.121 104.159 291.373 102.9 292.472 101.481C293.571 100.061 294.494 98.5577 295.242 96.9703C295.99 95.3677 296.555 93.6964 296.936 91.9564C297.333 90.2164 297.532 88.4764 297.532 86.7364Z" fill="#FF16B0"/>
<path d="M173.228 91.0884H166.205V84.0647H173.228V91.0884Z" fill="#FF16B0"/>
<path d="M909.089 115.654H905.895V86.8584H909.089V115.654Z" fill="#FF16B0"/>
<path d="M909.089 80.4878H905.895V51.6919H909.089V80.4878Z" fill="#FF16B0"/>
<path d="M253.142 91.0884H246.119V84.0647H253.142V91.0884Z" fill="#FF16B0"/>
<path d="M205.909 110.257C204.681 110.255 203.56 110.003 202.547 109.502C201.548 109 200.693 108.328 199.98 107.484C199.268 106.655 198.712 105.69 198.314 104.59C197.916 103.504 197.718 102.362 197.72 101.162C197.723 99.8058 197.91 98.5425 198.284 97.3722C198.657 96.2163 199.201 95.1891 199.916 94.2907C200.632 93.4066 201.532 92.687 202.619 92.132C203.705 91.5769 204.947 91.2434 206.347 91.1314L206.728 93.9807C204.571 94.1485 202.95 94.8954 201.862 96.2216C200.775 97.5477 200.23 99.196 200.226 101.166C200.225 102.009 200.359 102.802 200.629 103.544C200.914 104.287 201.312 104.938 201.826 105.496C202.339 106.053 202.938 106.49 203.622 106.805C204.307 107.135 205.071 107.3 205.913 107.301C207.056 107.303 207.984 107.119 208.699 106.749C209.427 106.393 209.992 105.873 210.393 105.188C210.808 104.504 211.088 103.655 211.233 102.641C211.377 101.642 211.45 100.478 211.453 99.1502L213.959 99.1543C213.957 100.125 214.034 101.061 214.19 101.96C214.359 102.875 214.629 103.689 214.999 104.403C215.384 105.118 215.89 105.697 216.517 106.141C217.145 106.584 217.944 106.807 218.915 106.809C220.486 106.811 221.743 106.292 222.687 105.251C223.646 104.211 224.126 102.862 224.129 101.206C224.132 99.1211 223.585 97.4496 222.488 96.1912C221.405 94.9329 219.692 94.3019 217.351 94.298L217.355 91.5351C218.812 91.5375 220.118 91.7752 221.274 92.2483C222.429 92.7214 223.399 93.3798 224.183 94.2236C224.981 95.0673 225.587 96.0821 225.999 97.2679C226.425 98.4538 226.637 99.7678 226.635 101.21C226.633 102.409 226.452 103.523 226.094 104.55C225.749 105.592 225.248 106.498 224.59 107.268C223.932 108.052 223.124 108.658 222.167 109.084C221.224 109.525 220.138 109.745 218.91 109.743C217.325 109.74 216.005 109.26 214.95 108.301C213.909 107.357 213.255 106.007 212.986 104.25C212.842 105.249 212.555 106.12 212.125 106.862C211.71 107.604 211.174 108.224 210.516 108.723C209.873 109.221 209.158 109.598 208.372 109.854C207.587 110.124 206.765 110.258 205.909 110.257Z" fill="#FF16B0"/>
<path d="M298.467 130.287C298.467 128.644 298.281 127.017 297.91 125.403C297.553 123.775 297.025 122.219 296.325 120.734C295.625 119.235 294.761 117.821 293.733 116.493C292.705 115.151 291.534 113.973 290.221 112.959L292.941 110.239C294.469 111.439 295.811 112.802 296.967 114.33C298.138 115.844 299.131 117.464 299.945 119.192C300.773 120.905 301.401 122.705 301.829 124.589C302.258 126.46 302.472 128.359 302.472 130.287C302.472 132.214 302.258 134.113 301.829 135.984C301.401 137.854 300.773 139.653 299.945 141.381C299.131 143.109 298.138 144.729 296.967 146.243C295.811 147.771 294.469 149.134 292.941 150.334L290.221 147.614C291.534 146.586 292.705 145.408 293.733 144.08C294.761 142.752 295.625 141.345 296.325 139.86C297.025 138.361 297.553 136.798 297.91 135.17C298.281 133.542 298.467 131.914 298.467 130.287Z" fill="#FF16B0"/>
<path d="M137.875 130.287C137.875 128.644 137.689 127.017 137.318 125.403C136.961 123.775 136.433 122.219 135.733 120.734C135.033 119.235 134.17 117.821 133.142 116.493C132.113 115.151 130.943 113.973 129.629 112.959L132.349 110.239C133.877 111.439 135.219 112.802 136.376 114.33C137.546 115.844 138.539 117.464 139.353 119.192C140.181 120.905 140.809 122.705 141.238 124.589C141.666 126.46 141.88 128.359 141.88 130.287C141.88 132.214 141.666 134.113 141.238 135.984C140.809 137.854 140.181 139.653 139.353 141.381C138.539 143.109 137.546 144.729 136.376 146.243C135.219 147.771 133.877 149.134 132.349 150.334L129.629 147.614C130.943 146.586 132.113 145.408 133.142 144.08C134.17 142.752 135.033 141.345 135.733 139.86C136.433 138.361 136.961 136.798 137.318 135.17C137.689 133.542 137.875 131.914 137.875 130.287Z" fill="#FF16B0"/>
<path d="M118.889 168.029C120.065 166.882 121.1 165.613 121.996 164.22C122.912 162.828 123.657 161.363 124.232 159.826C124.817 158.278 125.225 156.672 125.458 155.009C125.701 153.336 125.727 151.675 125.535 150.027L129.382 150.075C129.59 152.006 129.551 153.919 129.265 155.814C128.999 157.709 128.532 159.551 127.863 161.34C127.215 163.129 126.366 164.835 125.316 166.458C124.276 168.071 123.066 169.55 121.686 170.896C120.306 172.242 118.797 173.415 117.159 174.414C115.521 175.414 113.794 176.22 111.979 176.834C110.174 177.458 108.321 177.879 106.42 178.097C104.519 178.336 102.606 178.328 100.68 178.072L100.728 174.225C102.381 174.448 104.042 174.463 105.711 174.272C107.379 174.081 108.989 173.717 110.541 173.181C112.102 172.635 113.59 171.921 115.005 171.04C116.429 170.169 117.724 169.166 118.889 168.029Z" fill="#FF16B0"/>
<path d="M235.285 149.468V145.209H260.881V149.468H235.285Z" fill="#FF16B0"/>
<path d="M163.781 253.794V249.536H189.377V253.794H163.781Z" fill="#FF16B0"/>
<path d="M188.396 253.794V249.536H213.993V253.794H188.396Z" fill="#FF16B0"/>
<path d="M210.67 253.794V249.536H236.266V253.794H210.67Z" fill="#FF16B0"/>
<path d="M252.869 149.468V145.209H278.465V149.468H252.869Z" fill="#FF16B0"/>
<path d="M217.703 191.667V187.409H243.299V191.667H217.703Z" fill="#FF16B0"/>
<path d="M235.285 191.667V187.409H260.881V191.667H235.285Z" fill="#FF16B0"/>
<path d="M140.915 197.88L143.818 194.763L162.549 212.208L159.647 215.324L140.915 197.88Z" fill="#FF16B0"/>
<path d="M158.497 214.291L161.4 211.174L180.131 228.619L177.229 231.735L158.497 214.291Z" fill="#FF16B0"/>
<path d="M159.092 160.018V155.759H184.688V160.018H159.092Z" fill="#FF16B0"/>
<path d="M176.676 160.018V155.759H202.272V160.018H176.676Z" fill="#FF16B0"/>
<path d="M106.106 111.993H113.41V116.985C113.41 118.038 113.257 119.037 112.952 119.984C112.646 120.915 112.189 121.731 111.578 122.433C110.967 123.136 110.204 123.7 109.289 124.128C108.388 124.54 107.327 124.746 106.106 124.746V122.09C109.205 122.09 110.754 120.388 110.754 116.985V116.275H106.106V111.993ZM118.904 111.993H126.185V116.985C126.185 118.038 126.032 119.037 125.727 119.984C125.437 120.915 124.987 121.731 124.376 122.433C123.766 123.136 123.002 123.7 122.087 124.128C121.186 124.54 120.125 124.746 118.904 124.746V122.09C121.972 122.09 123.506 120.388 123.506 116.985V116.275H118.904V111.993Z" fill="#FF16B0"/>
<path d="M79.5616 132.782C79.5616 130.783 79.7753 128.852 80.2027 126.99C80.63 125.128 81.294 123.487 82.1945 122.067C83.095 120.648 84.2703 119.511 85.7203 118.656C87.1856 117.786 88.9485 117.351 91.009 117.351C93.0695 117.351 94.8248 117.786 96.2748 118.656C97.74 119.511 98.9306 120.648 99.8463 122.067C100.762 123.487 101.426 125.128 101.838 126.99C102.25 128.852 102.456 130.783 102.456 132.782C102.456 134.782 102.25 136.712 101.838 138.575C101.426 140.421 100.77 142.07 99.8692 143.52C98.9687 144.955 97.7858 146.107 96.3206 146.977C94.8706 147.832 93.1 148.259 91.009 148.259C88.9179 148.259 87.1398 147.832 85.6745 146.977C84.2245 146.107 83.0416 144.955 82.1258 143.52C81.2253 142.07 80.5766 140.421 80.1798 138.575C79.7677 136.712 79.5616 134.782 79.5616 132.782ZM84.3008 132.782C84.3008 134.125 84.4 135.468 84.5985 136.812C84.8121 138.155 85.1632 139.361 85.6516 140.429C86.1553 141.482 86.8345 142.337 87.6892 142.993C88.5592 143.65 89.6658 143.978 91.009 143.978C92.3521 143.978 93.4511 143.65 94.3058 142.993C95.1758 142.337 95.855 141.482 96.3435 140.429C96.8471 139.361 97.1982 138.155 97.3966 136.812C97.6103 135.468 97.7171 134.125 97.7171 132.782C97.7171 131.439 97.6103 130.103 97.3966 128.776C97.1982 127.448 96.8471 126.25 96.3435 125.181C95.855 124.113 95.1682 123.25 94.2829 122.594C93.4129 121.938 92.3216 121.61 91.009 121.61C88.8264 121.61 87.1627 122.594 86.0179 124.563C84.8732 126.532 84.3008 129.272 84.3008 132.782Z" fill="#FF16B0"/>
<path d="M72.891 132.869L76.4167 134.609L58.8794 169.913L55.3536 168.173L72.891 132.869Z" fill="#FF16B0"/>
<path d="M63.6585 151.177L67.1843 152.917L49.6469 188.221L46.1212 186.481L63.6585 151.177Z" fill="#FF16B0"/>
<path d="M132.868 175.96C132.868 177.588 133.047 179.216 133.404 180.843C133.775 182.471 134.31 184.035 135.01 185.534C135.71 187.019 136.573 188.425 137.601 189.753C138.63 191.081 139.8 192.259 141.114 193.287L138.394 196.007C136.866 194.808 135.51 193.444 134.325 191.916C133.139 190.403 132.147 188.782 131.347 187.055C130.548 185.327 129.934 183.528 129.505 181.657C129.077 179.787 128.863 177.888 128.863 175.96C128.863 174.032 129.077 172.133 129.505 170.263C129.934 168.378 130.548 166.579 131.347 164.865C132.147 163.138 133.139 161.517 134.325 160.004C135.51 158.476 136.866 157.112 138.394 155.913L141.114 158.633C139.8 159.647 138.63 160.825 137.601 162.167C136.573 163.495 135.71 164.908 135.01 166.408C134.31 167.893 133.775 169.449 133.404 171.077C133.047 172.69 132.868 174.318 132.868 175.96Z" fill="#FF16B0"/>
<path d="M148.106 175.96C148.106 177.588 148.285 179.216 148.642 180.843C149.013 182.471 149.549 184.035 150.248 185.534C150.948 187.019 151.812 188.425 152.84 189.753C153.868 191.081 155.039 192.259 156.352 193.287L153.632 196.007C152.104 194.808 150.748 193.444 149.563 191.916C148.378 190.403 147.385 188.782 146.586 187.055C145.786 185.327 145.172 183.528 144.744 181.657C144.315 179.787 144.101 177.888 144.101 175.96C144.101 174.032 144.315 172.133 144.744 170.263C145.172 168.378 145.786 166.579 146.586 164.865C147.385 163.138 148.378 161.517 149.563 160.004C150.748 158.476 152.104 157.112 153.632 155.913L156.352 158.633C155.039 159.647 153.868 160.825 152.84 162.167C151.812 163.495 150.948 164.908 150.248 166.408C149.549 167.893 149.013 169.449 148.642 171.077C148.285 172.69 148.106 174.318 148.106 175.96Z" fill="#FF16B0"/>
<path d="M191.049 149.335C188.587 149.335 186.357 149.058 184.361 148.503C182.364 147.971 180.656 147.128 179.237 145.974C177.839 144.843 176.752 143.401 175.976 141.649C175.199 139.896 174.811 137.822 174.811 135.426C174.811 133.008 175.199 130.923 175.976 129.17C176.752 127.44 177.839 126.009 179.237 124.878C180.656 123.769 182.376 122.937 184.394 122.382C186.413 121.85 188.653 121.583 191.116 121.583H219.001V126.142H191.049C189.74 126.142 188.354 126.253 186.89 126.475C185.426 126.719 184.095 127.174 182.897 127.839C181.699 128.527 180.701 129.47 179.902 130.668C179.103 131.888 178.704 133.474 178.704 135.426C178.704 137.378 179.103 138.964 179.902 140.184C180.701 141.427 181.699 142.381 182.897 143.046C184.095 143.734 185.426 144.189 186.89 144.41C188.354 144.632 189.74 144.743 191.049 144.743H219.001V149.335H191.049Z" fill="#FF16B0"/>
<path d="M168.132 126.307H143.519V123.164H168.132V126.307ZM168.132 137.927H143.519V134.837H168.132V137.927Z" fill="#FF16B0"/>
<path d="M44.6838 191.42L38.3475 200.832L35.1607 198.874L40.4967 188.846L44.6838 191.42Z" fill="#FF16B0"/>
<path d="M116.82 216.064L123.549 225.199L120.632 227.541L112.986 219.14L116.82 216.064Z" fill="#FF16B0"/>
<path d="M239.885 235.826L234.434 245.777L237.637 247.709L244.094 238.364L239.885 235.826Z" fill="#FF16B0"/>
<path d="M128.539 230.131L135.268 239.266L132.351 241.607L124.705 233.207L128.539 230.131Z" fill="#FF16B0"/>
<path d="M121.508 235.992L128.237 245.127L125.32 247.468L117.674 239.068L121.508 235.992Z" fill="#FF16B0"/>
<path d="M60.7347 208.486H39.3968V204.227H60.7347V208.486ZM60.7347 217.025H39.3968V212.767H60.7347V217.025ZM64.2898 212.767V208.509H85.6277V212.767H64.2898ZM110.521 208.486H89.1828V204.227H110.521V208.486ZM110.521 217.025H89.1828V212.767H110.521V217.025Z" fill="#FF16B0"/>
<path d="M87.9609 244.999C87.9609 246.285 87.8474 247.59 87.6205 248.914C87.4124 250.237 87.0342 251.438 86.4857 252.516C85.9561 253.576 85.2374 254.446 84.3296 255.126C83.4218 255.807 82.2681 256.148 80.8685 256.148C80.3579 256.148 79.8472 256.053 79.3366 255.864C78.8448 255.656 78.4004 255.372 78.0032 255.013C77.606 254.635 77.2845 254.19 77.0386 253.68C76.7928 253.169 76.6698 252.611 76.6698 252.006V251.722C76.4996 252.346 76.2538 252.933 75.9322 253.481C75.6296 254.011 75.2608 254.474 74.8258 254.871C74.3908 255.268 73.9085 255.58 73.379 255.807C72.8494 256.034 72.282 256.148 71.6768 256.148C70.5231 256.148 69.5491 255.874 68.7547 255.325C67.9793 254.777 67.3552 254.048 66.8824 253.141C66.4095 252.233 66.0691 251.202 65.861 250.048C65.653 248.895 65.549 247.713 65.549 246.502C65.549 245.103 65.7003 243.769 66.0029 242.502C66.3244 241.216 66.7878 240.091 67.393 239.126C68.0171 238.143 68.7737 237.367 69.6626 236.8C70.5515 236.213 71.5728 235.92 72.7265 235.92C73.0669 235.92 73.4168 235.977 73.7762 236.091C74.1355 236.204 74.4759 236.384 74.7975 236.63C75.119 236.856 75.4027 237.15 75.6485 237.509C75.9133 237.868 76.1119 238.284 76.2443 238.757V236.459H80.8118V250.502C80.8118 251.107 80.9064 251.542 81.0955 251.807C81.3035 252.072 81.5683 252.204 81.8898 252.204C82.3059 252.204 82.6558 252.015 82.9395 251.637C83.2421 251.259 83.488 250.748 83.6771 250.105C83.8663 249.443 83.9986 248.677 84.0743 247.807C84.1689 246.918 84.2161 245.982 84.2161 244.999C84.2161 243.013 84.027 241.121 83.6488 239.325C83.2705 237.528 82.6653 235.949 81.8331 234.587C81.0198 233.225 79.9418 232.147 78.599 231.353C77.2751 230.54 75.6675 230.133 73.7762 230.133C71.8659 230.133 70.2394 230.549 68.8966 231.381C67.5727 232.194 66.4946 233.31 65.6625 234.729C64.8492 236.147 64.2534 237.821 63.8752 239.75C63.5158 241.66 63.3362 243.722 63.3362 245.935C63.3362 248.11 63.5158 250.152 63.8752 252.063C64.2534 253.973 64.8492 255.637 65.6625 257.056C66.4946 258.474 67.5727 259.599 68.8966 260.432C70.2394 261.245 71.8659 261.651 73.7762 261.651C75.327 261.651 76.7077 261.377 77.9181 260.829C79.1475 260.28 80.2728 259.543 81.2941 258.616L82.9679 261.396C80.547 263.836 77.4831 265.056 73.7762 265.056C72.0362 265.056 70.4758 264.819 69.0952 264.347C67.7334 263.855 66.523 263.174 65.4639 262.304C64.4237 261.434 63.5253 260.403 62.7688 259.212C62.0312 258.02 61.4259 256.715 60.9531 255.297C60.4803 253.878 60.1399 252.375 59.9318 250.786C59.7049 249.197 59.5914 247.58 59.5914 245.935C59.5914 244.251 59.7049 242.616 59.9318 241.027C60.1588 239.419 60.5087 237.906 60.9815 236.488C61.4543 235.069 62.0595 233.764 62.7971 232.573C63.5537 231.381 64.4615 230.36 65.5206 229.509C66.5797 228.639 67.7902 227.967 69.1519 227.495C70.5137 227.003 72.0551 226.757 73.7762 226.757C75.4783 226.757 77.0103 227.003 78.372 227.495C79.7527 227.967 80.9631 228.629 82.0033 229.48C83.0624 230.332 83.9608 231.334 84.6984 232.488C85.4549 233.641 86.0696 234.899 86.5424 236.261C87.0342 237.604 87.3935 239.022 87.6205 240.516C87.8474 241.991 87.9609 243.486 87.9609 244.999ZM76.2443 241.821C75.9039 241.102 75.4878 240.592 74.996 240.289C74.5232 239.987 74.0504 239.835 73.5776 239.835C73.0102 239.835 72.5184 240.006 72.1023 240.346C71.6863 240.686 71.3364 241.159 71.0527 241.764C70.7879 242.351 70.5893 243.051 70.4569 243.864C70.3434 244.677 70.2867 245.547 70.2867 246.474C70.2867 247.495 70.3434 248.356 70.4569 249.055C70.5893 249.736 70.769 250.285 70.9959 250.701C71.2418 251.117 71.535 251.41 71.8754 251.58C72.2158 251.751 72.6035 251.836 73.0385 251.836C73.5114 251.836 73.9464 251.675 74.3435 251.353C74.7407 251.013 75.0811 250.578 75.3648 250.048C75.6485 249.519 75.866 248.932 76.0173 248.289C76.1686 247.627 76.2443 246.966 76.2443 246.304V241.821Z" fill="#FF16B0"/>
<path d="M311.648 244.999C311.648 246.285 311.535 247.59 311.308 248.914C311.1 250.237 310.722 251.438 310.173 252.516C309.644 253.576 308.925 254.446 308.017 255.126C307.109 255.807 305.956 256.148 304.556 256.148C304.045 256.148 303.535 256.053 303.024 255.864C302.532 255.656 302.088 255.372 301.691 255.013C301.294 254.635 300.972 254.19 300.726 253.68C300.48 253.169 300.357 252.611 300.357 252.006V251.722C300.187 252.346 299.941 252.933 299.62 253.481C299.317 254.011 298.948 254.474 298.513 254.871C298.078 255.268 297.596 255.58 297.066 255.807C296.537 256.034 295.969 256.148 295.364 256.148C294.211 256.148 293.237 255.874 292.442 255.325C291.667 254.777 291.043 254.048 290.57 253.141C290.097 252.233 289.757 251.202 289.549 250.048C289.34 248.895 289.236 247.713 289.236 246.502C289.236 245.103 289.388 243.769 289.69 242.502C290.012 241.216 290.475 240.091 291.08 239.126C291.705 238.143 292.461 237.367 293.35 236.8C294.239 236.213 295.26 235.92 296.414 235.92C296.754 235.92 297.104 235.977 297.464 236.091C297.823 236.204 298.163 236.384 298.485 236.63C298.806 236.856 299.09 237.15 299.336 237.509C299.601 237.868 299.799 238.284 299.932 238.757V236.459H304.499V250.502C304.499 251.107 304.594 251.542 304.783 251.807C304.991 252.072 305.256 252.204 305.577 252.204C305.993 252.204 306.343 252.015 306.627 251.637C306.93 251.259 307.175 250.748 307.365 250.105C307.554 249.443 307.686 248.677 307.762 247.807C307.856 246.918 307.904 245.982 307.904 244.999C307.904 243.013 307.714 241.121 307.336 239.325C306.958 237.528 306.353 235.949 305.521 234.587C304.707 233.225 303.629 232.147 302.286 231.353C300.963 230.54 299.355 230.133 297.464 230.133C295.553 230.133 293.927 230.549 292.584 231.381C291.26 232.194 290.182 233.31 289.35 234.729C288.537 236.147 287.941 237.821 287.563 239.75C287.203 241.66 287.024 243.722 287.024 245.935C287.024 248.11 287.203 250.152 287.563 252.063C287.941 253.973 288.537 255.637 289.35 257.056C290.182 258.474 291.26 259.599 292.584 260.432C293.927 261.245 295.553 261.651 297.464 261.651C299.014 261.651 300.395 261.377 301.606 260.829C302.835 260.28 303.96 259.543 304.982 258.616L306.655 261.396C304.234 263.836 301.171 265.056 297.464 265.056C295.724 265.056 294.163 264.819 292.783 264.347C291.421 263.855 290.21 263.174 289.151 262.304C288.111 261.434 287.213 260.403 286.456 259.212C285.719 258.02 285.113 256.715 284.641 255.297C284.168 253.878 283.827 252.375 283.619 250.786C283.392 249.197 283.279 247.58 283.279 245.935C283.279 244.251 283.392 242.616 283.619 241.027C283.846 239.419 284.196 237.906 284.669 236.488C285.142 235.069 285.747 233.764 286.485 232.573C287.241 231.381 288.149 230.36 289.208 229.509C290.267 228.639 291.478 227.967 292.839 227.495C294.201 227.003 295.743 226.757 297.464 226.757C299.166 226.757 300.698 227.003 302.059 227.495C303.44 227.967 304.651 228.629 305.691 229.48C306.75 230.332 307.648 231.334 308.386 232.488C309.142 233.641 309.757 234.899 310.23 236.261C310.722 237.604 311.081 239.022 311.308 240.516C311.535 241.991 311.648 243.486 311.648 244.999ZM299.932 241.821C299.591 241.102 299.175 240.592 298.684 240.289C298.211 239.987 297.738 239.835 297.265 239.835C296.698 239.835 296.206 240.006 295.79 240.346C295.374 240.686 295.024 241.159 294.74 241.764C294.475 242.351 294.277 243.051 294.144 243.864C294.031 244.677 293.974 245.547 293.974 246.474C293.974 247.495 294.031 248.356 294.144 249.055C294.277 249.736 294.456 250.285 294.683 250.701C294.929 251.117 295.222 251.41 295.563 251.58C295.903 251.751 296.291 251.836 296.726 251.836C297.199 251.836 297.634 251.675 298.031 251.353C298.428 251.013 298.769 250.578 299.052 250.048C299.336 249.519 299.554 248.932 299.705 248.289C299.856 247.627 299.932 246.966 299.932 246.304V241.821Z" fill="#FF16B0"/>
<path d="M48.3326 244.621C48.3326 245.983 48.4819 247.345 48.7805 248.707C49.0911 250.068 49.539 251.376 50.1244 252.631C50.7097 253.873 51.4323 255.05 52.2924 256.16C53.1524 257.271 54.1319 258.257 55.2309 259.117L52.9553 261.392C51.6772 260.389 50.5424 259.248 49.551 257.97C48.5596 256.704 47.7294 255.348 47.0604 253.903C46.3915 252.457 45.8779 250.952 45.5195 249.388C45.1612 247.823 44.982 246.234 44.982 244.621C44.982 243.009 45.1612 241.42 45.5195 239.855C45.8779 238.279 46.3915 236.774 47.0604 235.34C47.7294 233.895 48.5596 232.539 49.551 231.273C50.5424 229.995 51.6772 228.854 52.9553 227.851L55.2309 230.126C54.1319 230.974 53.1524 231.96 52.2924 233.083C51.4323 234.193 50.7097 235.376 50.1244 236.63C49.539 237.873 49.0911 239.175 48.7805 240.536C48.4819 241.886 48.3326 243.248 48.3326 244.621ZM101.27 244.657C101.27 243.284 101.115 241.922 100.804 240.572C100.505 239.21 100.063 237.908 99.478 236.666C98.8927 235.412 98.1701 234.229 97.31 233.118C96.45 231.996 95.4705 231.01 94.3715 230.162L96.6471 227.886C97.9252 228.89 99.048 230.031 100.016 231.309C100.995 232.575 101.825 233.931 102.506 235.376C103.199 236.809 103.725 238.314 104.083 239.891C104.441 241.456 104.62 243.045 104.62 244.657C104.62 246.27 104.441 247.859 104.083 249.423C103.725 250.988 103.199 252.493 102.506 253.939C101.825 255.384 100.995 256.74 100.016 258.006C99.048 259.284 97.9252 260.425 96.6471 261.428L94.3715 259.153C95.4705 258.293 96.45 257.307 97.31 256.196C98.1701 255.085 98.8927 253.909 99.478 252.666C100.063 251.412 100.505 250.104 100.804 248.743C101.115 247.381 101.27 246.019 101.27 244.657Z" fill="#FF16B0"/>
<path d="M269.879 244.621C269.879 245.983 270.029 247.345 270.327 248.707C270.638 250.068 271.086 251.376 271.671 252.631C272.257 253.873 272.979 255.05 273.839 256.16C274.699 257.271 275.679 258.257 276.778 259.117L274.502 261.392C273.224 260.389 272.089 259.248 271.098 257.97C270.106 256.704 269.276 255.348 268.607 253.903C267.938 252.457 267.425 250.952 267.066 249.388C266.708 247.823 266.529 246.234 266.529 244.621C266.529 243.009 266.708 241.42 267.066 239.855C267.425 238.279 267.938 236.774 268.607 235.34C269.276 233.895 270.106 232.539 271.098 231.273C272.089 229.995 273.224 228.854 274.502 227.851L276.778 230.126C275.679 230.974 274.699 231.96 273.839 233.083C272.979 234.193 272.257 235.376 271.671 236.63C271.086 237.873 270.638 239.175 270.327 240.536C270.029 241.886 269.879 243.248 269.879 244.621ZM322.817 244.657C322.817 243.284 322.661 241.922 322.351 240.572C322.052 239.21 321.61 237.908 321.025 236.666C320.44 235.412 319.717 234.229 318.857 233.118C317.997 231.996 317.017 231.01 315.918 230.162L318.194 227.886C319.472 228.89 320.595 230.031 321.562 231.309C322.542 232.575 323.372 233.931 324.053 235.376C324.746 236.809 325.271 238.314 325.63 239.891C325.988 241.456 326.167 243.045 326.167 244.657C326.167 246.27 325.988 247.859 325.63 249.423C325.271 250.988 324.746 252.493 324.053 253.939C323.372 255.384 322.542 256.74 321.562 258.006C320.595 259.284 319.472 260.425 318.194 261.428L315.918 259.153C317.017 258.293 317.997 257.307 318.857 256.196C319.717 255.085 320.44 253.909 321.025 252.666C321.61 251.412 322.052 250.104 322.351 248.743C322.661 247.381 322.817 246.019 322.817 244.657Z" fill="#FF16B0"/>
<path d="M133.065 253.794V249.536H154.403V253.794H133.065Z" fill="#FF16B0"/>
<path d="M297.175 212.767V208.509H318.512V212.767H297.175Z" fill="#FF16B0"/>
<path d="M183.927 228.291L180.549 225.697L193.542 208.772L196.92 211.365L183.927 228.291Z" fill="#FF16B0"/>
<path d="M196.303 212.075L193.476 215.26L177.517 201.096L180.344 197.911L196.303 212.075Z" fill="#FF16B0"/>
<path d="M284.708 179.338C285.895 178.045 286.926 176.629 287.8 175.09C288.695 173.55 289.404 171.942 289.926 170.267C290.459 168.581 290.8 166.843 290.951 165.054C291.111 163.254 291.04 161.48 290.739 159.732L294.847 159.556C295.183 161.605 295.255 163.649 295.061 165.688C294.889 167.727 294.499 169.72 293.891 171.669C293.305 173.617 292.5 175.488 291.475 177.282C290.46 179.065 289.256 180.715 287.863 182.233C286.469 183.751 284.928 185.092 283.239 186.255C281.549 187.419 279.754 188.382 277.853 189.144C275.963 189.916 274.011 190.475 271.994 190.821C269.979 191.188 267.937 191.292 265.867 191.132L265.69 187.024C267.468 187.164 269.242 187.082 271.011 186.779C272.78 186.477 274.477 185.994 276.102 185.33C277.736 184.655 279.283 183.805 280.74 182.781C282.209 181.768 283.532 180.62 284.708 179.338Z" fill="#FF16B0"/>
<path d="M236.743 212.362C237.424 210.744 237.916 209.063 238.22 207.32C238.543 205.568 238.668 203.815 238.595 202.062C238.527 200.295 238.262 198.544 237.8 196.809C237.344 195.061 236.679 193.414 235.806 191.871L239.614 190.319C240.621 192.135 241.378 194.035 241.884 196.02C242.41 197.996 242.715 200.005 242.8 202.044C242.906 204.076 242.778 206.109 242.419 208.143C242.065 210.164 241.488 212.124 240.689 214.023C239.889 215.922 238.89 217.704 237.693 219.369C236.495 221.034 235.13 222.546 233.597 223.905C232.079 225.269 230.429 226.455 228.648 227.46C226.874 228.486 224.986 229.272 222.984 229.82L221.432 226.012C223.153 225.544 224.795 224.869 226.359 223.987C227.922 223.106 229.357 222.078 230.662 220.905C231.973 219.719 233.142 218.397 234.169 216.942C235.21 215.492 236.068 213.965 236.743 212.362Z" fill="#FF16B0"/>
<path d="M209.293 230.678V227.762H223.905V230.678H209.293Z" fill="#FF16B0"/>
<path d="M259.691 194.255L262.962 195.87L246.691 228.623L243.42 227.009L259.691 194.255Z" fill="#FF16B0"/>
<path d="M291.107 211.121H271.31V207.17H291.107V211.121ZM291.107 219.044H271.31V215.093H291.107V219.044Z" fill="#FF16B0"/>
<path d="M342.995 214.955L340.285 217.397L315.73 190.293L318.44 187.851L342.995 214.955Z" fill="#FF16B0"/>
<path d="M354.583 227.296L351.873 229.738L327.318 202.634L330.028 200.192L354.583 227.296Z" fill="#FF16B0"/>
<path d="M361.568 244.398V240.447H381.364V244.398H361.568Z" fill="#FF16B0"/>
<path d="M361.568 250.259V246.308H381.364V250.259H361.568Z" fill="#FF16B0"/>
<path d="M361.568 256.12V252.169H381.364V256.12H361.568Z" fill="#FF16B0"/>
<path d="M401.403 252.988C401.403 253.916 401.214 254.763 400.836 255.529C400.459 256.284 399.952 256.931 399.315 257.471C398.689 258.01 397.961 258.431 397.13 258.733C396.31 259.035 395.447 259.186 394.541 259.186C393.516 259.186 392.561 259.046 391.677 258.765C390.803 258.485 390.026 258.075 389.346 257.535C388.677 256.996 388.132 256.316 387.712 255.496C387.291 254.676 387.037 253.738 386.951 252.68L389.103 252.389C389.233 254.018 389.799 255.243 390.803 256.063C391.806 256.883 393.052 257.293 394.541 257.293C395.178 257.293 395.776 257.19 396.337 256.985C396.898 256.769 397.389 256.467 397.81 256.079C398.231 255.691 398.56 255.237 398.797 254.72C399.045 254.202 399.17 253.624 399.17 252.988C399.17 252.125 399.029 251.423 398.749 250.884C398.479 250.334 398.085 249.908 397.567 249.605C397.049 249.293 396.408 249.082 395.641 248.974C394.886 248.866 394.007 248.812 393.004 248.812V246.919C393.737 246.919 394.444 246.86 395.124 246.741C395.814 246.611 396.429 246.407 396.969 246.126C397.508 245.835 397.945 245.452 398.279 244.977C398.614 244.502 398.781 243.898 398.781 243.164C398.781 241.978 398.387 241.028 397.6 240.316C396.812 239.593 395.793 239.232 394.541 239.232C392.966 239.232 391.703 239.647 390.754 240.478C389.805 241.298 389.33 242.593 389.33 244.362H387.242C387.242 243.261 387.42 242.274 387.776 241.4C388.132 240.526 388.629 239.793 389.265 239.199C389.902 238.595 390.668 238.137 391.563 237.824C392.459 237.5 393.451 237.338 394.541 237.338C395.447 237.338 396.289 237.473 397.066 237.743C397.853 238.002 398.538 238.379 399.121 238.876C399.714 239.372 400.173 239.982 400.497 240.704C400.831 241.417 400.998 242.237 400.998 243.164C400.998 244.362 400.637 245.36 399.914 246.158C399.202 246.946 398.182 247.442 396.855 247.647C397.611 247.755 398.269 247.971 398.83 248.295C399.391 248.607 399.86 249.012 400.238 249.508C400.615 249.994 400.901 250.533 401.095 251.127C401.3 251.72 401.403 252.341 401.403 252.988Z" fill="#FF16B0"/>
<path d="M434.245 244.398V240.447H454.042V244.398H434.245Z" fill="#FF16B0"/>
<path d="M434.245 250.259V246.308H454.042V250.259H434.245Z" fill="#FF16B0"/>
<path d="M434.245 256.12V252.169H454.042V256.12H434.245Z" fill="#FF16B0"/>
<path d="M474.077 252.988C474.077 253.916 473.888 254.763 473.51 255.529C473.133 256.284 472.626 256.931 471.989 257.471C471.363 258.01 470.635 258.431 469.804 258.733C468.984 259.035 468.121 259.186 467.215 259.186C466.19 259.186 465.235 259.046 464.35 258.765C463.476 258.485 462.7 258.075 462.02 257.535C461.351 256.996 460.806 256.316 460.385 255.496C459.965 254.676 459.711 253.738 459.625 252.68L461.777 252.389C461.907 254.018 462.473 255.243 463.476 256.063C464.48 256.883 465.726 257.293 467.215 257.293C467.851 257.293 468.45 257.19 469.011 256.985C469.572 256.769 470.063 256.467 470.484 256.079C470.905 255.691 471.234 255.237 471.471 254.72C471.719 254.202 471.843 253.624 471.843 252.988C471.843 252.125 471.703 251.423 471.423 250.884C471.153 250.334 470.759 249.908 470.241 249.605C469.723 249.293 469.081 249.082 468.315 248.974C467.56 248.866 466.681 248.812 465.677 248.812V246.919C466.411 246.919 467.118 246.86 467.797 246.741C468.488 246.611 469.103 246.407 469.642 246.126C470.182 245.835 470.619 245.452 470.953 244.977C471.288 244.502 471.455 243.898 471.455 243.164C471.455 241.978 471.061 241.028 470.274 240.316C469.486 239.593 468.466 239.232 467.215 239.232C465.64 239.232 464.377 239.647 463.428 240.478C462.478 241.298 462.004 242.593 462.004 244.362H459.916C459.916 243.261 460.094 242.274 460.45 241.4C460.806 240.526 461.302 239.793 461.939 239.199C462.576 238.595 463.342 238.137 464.237 237.824C465.133 237.5 466.125 237.338 467.215 237.338C468.121 237.338 468.963 237.473 469.739 237.743C470.527 238.002 471.212 238.379 471.795 238.876C472.388 239.372 472.847 239.982 473.17 240.704C473.505 241.417 473.672 242.237 473.672 243.164C473.672 244.362 473.311 245.36 472.588 246.158C471.876 246.946 470.856 247.442 469.529 247.647C470.284 247.755 470.942 247.971 471.504 248.295C472.065 248.607 472.534 249.012 472.911 249.508C473.289 249.994 473.575 250.533 473.769 251.127C473.974 251.72 474.077 252.341 474.077 252.988Z" fill="#FF16B0"/>
<path d="M510.439 244.398V240.447H530.235V244.398H510.439Z" fill="#FF16B0"/>
<path d="M510.439 250.259V246.308H530.235V250.259H510.439Z" fill="#FF16B0"/>
<path d="M510.439 256.12V252.169H530.235V256.12H510.439Z" fill="#FF16B0"/>
<path d="M550.27 252.988C550.27 253.916 550.081 254.763 549.704 255.529C549.326 256.284 548.819 256.931 548.183 257.471C547.557 258.01 546.829 258.431 545.998 258.733C545.178 259.035 544.315 259.186 543.408 259.186C542.383 259.186 541.429 259.046 540.544 258.765C539.67 258.485 538.893 258.075 538.213 257.535C537.545 256.996 537 256.316 536.579 255.496C536.158 254.676 535.905 253.738 535.818 252.68L537.971 252.389C538.1 254.018 538.667 255.243 539.67 256.063C540.673 256.883 541.919 257.293 543.408 257.293C544.045 257.293 544.644 257.19 545.205 256.985C545.766 256.769 546.257 256.467 546.677 256.079C547.098 255.691 547.427 255.237 547.665 254.72C547.913 254.202 548.037 253.624 548.037 252.988C548.037 252.125 547.897 251.423 547.616 250.884C547.346 250.334 546.953 249.908 546.435 249.605C545.917 249.293 545.275 249.082 544.509 248.974C543.754 248.866 542.874 248.812 541.871 248.812V246.919C542.605 246.919 543.311 246.86 543.991 246.741C544.682 246.611 545.296 246.407 545.836 246.126C546.375 245.835 546.812 245.452 547.147 244.977C547.481 244.502 547.649 243.898 547.649 243.164C547.649 241.978 547.255 241.028 546.467 240.316C545.679 239.593 544.66 239.232 543.408 239.232C541.833 239.232 540.571 239.647 539.621 240.478C538.672 241.298 538.197 242.593 538.197 244.362H536.11C536.11 243.261 536.288 242.274 536.644 241.4C537 240.526 537.496 239.793 538.133 239.199C538.769 238.595 539.535 238.137 540.431 237.824C541.326 237.5 542.319 237.338 543.408 237.338C544.315 237.338 545.156 237.473 545.933 237.743C546.721 238.002 547.406 238.379 547.988 238.876C548.582 239.372 549.04 239.982 549.364 240.704C549.698 241.417 549.866 242.237 549.866 243.164C549.866 244.362 549.504 245.36 548.781 246.158C548.069 246.946 547.05 247.442 545.723 247.647C546.478 247.755 547.136 247.971 547.697 248.295C548.258 248.607 548.727 249.012 549.105 249.508C549.483 249.994 549.769 250.533 549.963 251.127C550.168 251.72 550.27 252.341 550.27 252.988Z" fill="#FF16B0"/>
<path d="M361.568 244.398V240.447H381.364V244.398H361.568Z" fill="#FF16B0"/>
<path d="M361.568 250.259V246.308H381.364V250.259H361.568Z" fill="#FF16B0"/>
<path d="M361.568 256.12V252.169H381.364V256.12H361.568Z" fill="#FF16B0"/>
<path d="M327.574 127.177V123.226H347.37V127.177H327.574Z" fill="#FF16B0"/>
<path d="M327.574 133.038V129.087H347.37V133.038H327.574Z" fill="#FF16B0"/>
<path d="M327.574 138.899V134.948H347.37V138.899H327.574Z" fill="#FF16B0"/>
<path d="M401.403 252.988C401.403 253.916 401.214 254.763 400.836 255.529C400.459 256.284 399.952 256.931 399.315 257.471C398.689 258.01 397.961 258.431 397.13 258.733C396.31 259.035 395.447 259.186 394.541 259.186C393.516 259.186 392.561 259.046 391.677 258.765C390.803 258.485 390.026 258.075 389.346 257.535C388.677 256.996 388.132 256.316 387.712 255.496C387.291 254.676 387.037 253.738 386.951 252.68L389.103 252.389C389.233 254.018 389.799 255.243 390.803 256.063C391.806 256.883 393.052 257.293 394.541 257.293C395.178 257.293 395.776 257.19 396.337 256.985C396.898 256.769 397.389 256.467 397.81 256.079C398.231 255.691 398.56 255.237 398.797 254.72C399.045 254.202 399.17 253.624 399.17 252.988C399.17 252.125 399.029 251.423 398.749 250.884C398.479 250.334 398.085 249.908 397.567 249.605C397.049 249.293 396.408 249.082 395.641 248.974C394.886 248.866 394.007 248.812 393.004 248.812V246.919C393.737 246.919 394.444 246.86 395.124 246.741C395.814 246.611 396.429 246.407 396.969 246.126C397.508 245.835 397.945 245.452 398.279 244.977C398.614 244.502 398.781 243.898 398.781 243.164C398.781 241.978 398.387 241.028 397.6 240.316C396.812 239.593 395.793 239.232 394.541 239.232C392.966 239.232 391.703 239.647 390.754 240.478C389.805 241.298 389.33 242.593 389.33 244.362H387.242C387.242 243.261 387.42 242.274 387.776 241.4C388.132 240.526 388.629 239.793 389.265 239.199C389.902 238.595 390.668 238.137 391.563 237.824C392.459 237.5 393.451 237.338 394.541 237.338C395.447 237.338 396.289 237.473 397.066 237.743C397.853 238.002 398.538 238.379 399.121 238.876C399.714 239.372 400.173 239.982 400.497 240.704C400.831 241.417 400.998 242.237 400.998 243.164C400.998 244.362 400.637 245.36 399.914 246.158C399.202 246.946 398.182 247.442 396.855 247.647C397.611 247.755 398.269 247.971 398.83 248.295C399.391 248.607 399.86 249.012 400.238 249.508C400.615 249.994 400.901 250.533 401.095 251.127C401.3 251.72 401.403 252.341 401.403 252.988Z" fill="#FF16B0"/>
<path d="M304.429 162.343V158.392H324.226V162.343H304.429ZM330.134 162.343V158.392H349.931V162.343H330.134ZM355.839 162.343V158.392H375.636V162.343H355.839Z" fill="#FF16B0"/>
<path d="M303.11 184.615V180.664H322.906V184.615H303.11ZM328.815 184.615V180.664H348.611V184.615H328.815Z" fill="#FF16B0"/>
<path d="M369.809 179.202C370.65 177.902 371.337 176.518 371.87 175.05C372.421 173.579 372.8 172.076 373.007 170.542C373.221 168.996 373.261 167.435 373.127 165.857C373 164.267 372.677 162.735 372.156 161.26L375.703 160.499C376.298 162.231 376.662 163.999 376.795 165.801C376.947 167.599 376.903 169.39 376.662 171.175C376.44 172.956 376.016 174.702 375.39 176.413C374.771 178.114 373.968 179.727 372.98 181.253C371.993 182.779 370.851 184.173 369.554 185.435C368.256 186.696 366.837 187.799 365.297 188.742C363.767 189.693 362.152 190.468 360.449 191.067C358.751 191.684 356.99 192.076 355.166 192.243L354.406 188.696C355.972 188.555 357.503 188.222 358.997 187.698C360.491 187.173 361.895 186.502 363.21 185.684C364.532 184.856 365.751 183.889 366.867 182.783C367.995 181.684 368.976 180.49 369.809 179.202Z" fill="#FF16B0"/>
<path d="M353.391 93.6303L350.885 96.1792L340.01 85.3038L350.885 74.4284L353.391 76.9986L345.086 85.3038L353.391 93.6303Z" fill="#FF16B0"/>
<path d="M387.71 125.215L385.115 127.779L359.343 101.83L361.938 99.2664L387.71 125.215Z" fill="#FF16B0"/>
<path d="M386.536 42.7117L383.941 40.148L358.169 66.0966L360.764 68.6603L386.536 42.7117Z" fill="#FF16B0"/>
<path d="M387.361 38.0888V34.138H407.157V38.0888H387.361Z" fill="#FF16B0"/>
<path d="M406.117 38.0888V34.138H425.913V38.0888H406.117Z" fill="#FF16B0"/>
<path d="M424.87 38.0888V34.138H444.667V38.0888H424.87Z" fill="#FF16B0"/>
<path d="M443.628 38.0888V34.138H463.425V38.0888H443.628Z" fill="#FF16B0"/>
<path d="M462.38 38.0888V34.138H482.177V38.0888H462.38Z" fill="#FF16B0"/>
<path d="M481.138 38.0888V34.138H500.935V38.0888H481.138Z" fill="#FF16B0"/>
<path d="M499.892 38.0888V34.138H519.689V38.0888H499.892Z" fill="#FF16B0"/>
<path d="M518.648 38.0888V34.138H538.444V38.0888H518.648Z" fill="#FF16B0"/>
<path d="M537.402 38.0888V34.138H557.198V38.0888H537.402Z" fill="#FF16B0"/>
<path d="M556.158 38.0888V34.138H575.954V38.0888H556.158Z" fill="#FF16B0"/>
<path d="M574.915 38.0888V34.138H594.712V38.0888H574.915Z" fill="#FF16B0"/>
<path d="M593.669 38.0888V34.138H613.466V38.0888H593.669Z" fill="#FF16B0"/>
<path d="M612.425 38.0888V34.138H632.222V38.0888H612.425Z" fill="#FF16B0"/>
<path d="M631.179 38.0888V34.138H650.976V38.0888H631.179Z" fill="#FF16B0"/>
<path d="M649.935 38.0888V34.138H669.732V38.0888H649.935Z" fill="#FF16B0"/>
<path d="M668.693 38.0888V34.138H688.489V38.0888H668.693Z" fill="#FF16B0"/>
<path d="M686.273 38.0888V34.138H706.069V38.0888H686.273Z" fill="#FF16B0"/>
<path d="M705.029 38.0888V34.138H724.825V38.0888H705.029Z" fill="#FF16B0"/>
<path d="M723.786 38.0888V34.138H743.583V38.0888H723.786Z" fill="#FF16B0"/>
<path d="M742.54 38.0888V34.138H762.337V38.0888H742.54Z" fill="#FF16B0"/>
<path d="M761.296 38.0888V34.138H781.093V38.0888H761.296Z" fill="#FF16B0"/>
<path d="M780.05 38.0888V34.138H799.847V38.0888H780.05Z" fill="#FF16B0"/>
<path d="M792.945 38.0888V34.138H812.741V38.0888H792.945Z" fill="#FF16B0"/>
<path d="M811.701 38.0888V34.138H831.497V38.0888H811.701Z" fill="#FF16B0"/>
<path d="M830.456 38.0888V34.138H850.253V38.0888H830.456Z" fill="#FF16B0"/>
<path d="M849.21 38.0888V34.138H869.007V38.0888H849.21Z" fill="#FF16B0"/>
<path d="M814.044 38.0888V34.138H833.841V38.0888H814.044Z" fill="#FF16B0"/>
<path d="M832.8 38.0888V34.138H852.597V38.0888H832.8Z" fill="#FF16B0"/>
<path d="M851.556 38.0888V34.138H871.353V38.0888H851.556Z" fill="#FF16B0"/>
<path d="M870.312 38.0888V34.138H890.109V38.0888H870.312Z" fill="#FF16B0"/>
<path d="M685.103 134.21V130.259H704.9V134.21H685.103Z" fill="#FF16B0"/>
<path d="M703.857 134.21V130.259H723.653V134.21H703.857Z" fill="#FF16B0"/>
<path d="M722.613 134.21V130.259H742.409V134.21H722.613Z" fill="#FF16B0"/>
<path d="M741.367 134.21V130.259H761.163V134.21H741.367Z" fill="#FF16B0"/>
<path d="M760.124 134.21V130.259H779.921V134.21H760.124Z" fill="#FF16B0"/>
<path d="M778.878 134.21V130.259H798.675V134.21H778.878Z" fill="#FF16B0"/>
<path d="M387.361 134.21V130.259H407.157V134.21H387.361Z" fill="#FF16B0"/>
<path d="M406.117 134.21V130.259H425.913V134.21H406.117Z" fill="#FF16B0"/>
<path d="M424.87 134.21V130.259H444.667V134.21H424.87Z" fill="#FF16B0"/>
<path d="M443.628 134.21V130.259H463.425V134.21H443.628Z" fill="#FF16B0"/>
<path d="M462.38 134.21V130.259H482.177V134.21H462.38Z" fill="#FF16B0"/>
<path d="M481.138 134.21V130.259H500.935V134.21H481.138Z" fill="#FF16B0"/>
<path d="M499.892 134.21V130.259H519.689V134.21H499.892Z" fill="#FF16B0"/>
<path d="M518.648 134.21V130.259H538.444V134.21H518.648Z" fill="#FF16B0"/>
<path d="M537.402 134.21V130.259H557.198V134.21H537.402Z" fill="#FF16B0"/>
<path d="M556.158 134.21V130.259H575.954V134.21H556.158Z" fill="#FF16B0"/>
<path d="M574.915 134.21V130.259H594.712V134.21H574.915Z" fill="#FF16B0"/>
<path d="M593.669 134.21V130.259H613.466V134.21H593.669Z" fill="#FF16B0"/>
<path d="M612.425 134.21V130.259H632.222V134.21H612.425Z" fill="#FF16B0"/>
<path d="M631.179 134.21V130.259H650.976V134.21H631.179Z" fill="#FF16B0"/>
<path d="M649.935 134.21V130.259H669.732V134.21H649.935Z" fill="#FF16B0"/>
<path d="M668.693 134.21V130.259H688.489V134.21H668.693Z" fill="#FF16B0"/>
<path d="M794.119 134.21V130.259H813.915V134.21H794.119Z" fill="#FF16B0"/>
<path d="M812.872 134.21V130.259H832.669V134.21H812.872Z" fill="#FF16B0"/>
<path d="M831.628 134.21V130.259H851.425V134.21H831.628Z" fill="#FF16B0"/>
<path d="M850.382 134.21V130.259H870.179V134.21H850.382Z" fill="#FF16B0"/>
<path d="M869.138 134.21V130.259H888.935V134.21H869.138Z" fill="#FF16B0"/>
<path d="M758.951 134.21V130.259H778.747V134.21H758.951Z" fill="#FF16B0"/>
</svg>
