<svg width="250" height="84" viewBox="0 0 250 84" fill="none" xmlns="http://www.w3.org/2000/svg">
<rect x="19.084" y="0.569336" width="230" height="69" rx="24" fill="#FF16B0"/>
<path d="M0.0839844 83.5693L20.084 44.0693L28.4745 37.6865L37.9384 45.7396L43.4051 54.8508L51.811 57.1433L61.9802 64.785L59.7465 68.0768L53.584 68.5693L0.0839844 83.5693Z" fill="#FF16B0"/>
<path d="M21.7112 47.1042C21.7763 47.7553 21.7462 48.12 21.4677 48.7412C21.3695 48.9604 21.2567 49.1536 21.1319 49.3583C21.0098 49.5585 20.8948 49.7628 20.7793 49.9669C20.743 50.0311 20.6985 50.213 20.6576 50.1516C20.5284 49.9578 20.9048 49.3549 20.9976 49.1778C21.2526 48.691 22.1923 47.333 21.9043 47.801C21.7068 48.1219 21.504 48.4546 21.2914 48.7664C21.1788 48.9316 20.6534 49.6589 20.6534 49.6227C20.6534 48.7237 21.1218 47.9893 21.5517 47.2217C21.7294 46.9042 21.8078 46.5206 22.0722 46.2562C22.2971 46.0313 22.5756 45.8354 22.7312 45.5552C23.1824 44.743 24.0543 44.2072 24.809 43.7041" stroke="#FF16B0" stroke-width="3" stroke-linecap="round"/>
<path d="M20.8812 50.5801C20.639 50.7415 20.6545 51.3002 20.6545 51.5749C20.6545 52.0161 20.9093 52.5358 21.1162 52.9265C21.4658 53.5868 22.1188 54.0563 22.6609 54.5468C23.0342 54.8845 23.5659 55.0902 23.8699 55.4955C24.2836 56.0472 24.8611 56.4435 25.2802 57.0024C25.6431 57.4862 25.9643 58.2598 26.1533 58.8409C26.425 59.676 26.4562 60.6094 26.6571 61.4686C26.8492 62.2908 27.2685 63.1189 27.7568 63.8025" stroke="#FF16B0" stroke-width="3" stroke-linecap="round"/>
<path d="M21.1816 54.8867C21.2265 55.2906 21.4179 55.6874 21.635 56.0285C22.0152 56.6259 22.2779 57.3581 22.6172 57.9845C23.2753 59.1995 24.2699 60.1624 25.4128 60.9313C27.009 62.005 28.5633 63.0765 30.0721 64.2767C31.0998 65.0942 32.0932 66.1604 33.2707 66.7491" stroke="#FF16B0" stroke-width="3" stroke-linecap="round"/>
<path d="M33.8764 65.3887C33.7754 65.658 34.3901 66.2047 34.5732 66.3877C34.8624 66.6769 35.1726 66.8154 35.5386 66.9922C36.357 67.3872 37.2321 67.7063 38.1159 67.924C38.8516 68.1053 39.547 68.2957 40.2231 67.9576" stroke="#FF16B0" stroke-width="3" stroke-linecap="round"/>
<path d="M40.6758 67.8828C40.7103 68.159 41.874 68.1095 42.1281 68.1095C43.5078 68.1095 44.8874 68.1095 46.267 68.1095" stroke="#FF16B0" stroke-width="3" stroke-linecap="round"/>
<path d="M45.9648 67.0508C46.5315 67.0508 47.0982 67.0508 47.6649 67.0508C48.0334 67.0508 48.6036 67.146 48.9493 67.0131C49.4369 66.8255 50.0912 66.7895 50.6242 66.7318C51.5758 66.629 52.6921 66.5211 53.5961 66.2197" stroke="#FF16B0" stroke-width="3" stroke-linecap="round"/>
<path d="M47.1738 67.2021C47.2699 67.2142 47.2766 67.5588 47.3249 67.6555" stroke="#FF16B0" stroke-width="3" stroke-linecap="round"/>
<path d="M22.7687 44.5352C22.2068 44.6054 22.5159 45.618 22.3741 45.9372C22.2041 46.3197 22.1493 47.047 21.8788 47.3475C21.5514 47.7113 21.3795 48.262 21.1652 48.6908C20.9473 49.1265 20.7138 49.5515 20.502 49.9752" stroke="#FF16B0" stroke-width="3" stroke-linecap="round"/>
<path d="M20.3633 49.476C20.3827 49.4736 20.4724 49.3782 20.4838 49.3555" stroke="#FF16B0" stroke-width="3" stroke-linecap="round"/>
<path d="M20.5234 49.336C20.5305 49.2796 20.6177 49.2079 20.644 49.1553" stroke="#FF16B0" stroke-width="3" stroke-linecap="round"/>
<path d="M20.8047 49.0344C20.8047 48.9791 20.8797 48.8363 20.9252 48.8135" stroke="#FF16B0" stroke-width="3" stroke-linecap="round"/>
<path d="M21.0262 48.6523C20.9528 48.6869 20.8375 48.7174 20.7851 48.7829C20.7494 48.8276 20.6934 48.8809 20.6445 48.9135" stroke="#FF16B0" stroke-width="3" stroke-linecap="round"/>
<path d="M19.6191 48.4117C19.7907 48.2592 20.0312 48.2267 20.186 48.0546C20.2206 48.0163 20.4203 47.9211 20.4203 47.8806C20.4203 47.8692 20.3579 47.9207 20.3579 47.9207C20.318 47.9451 20.2516 47.9626 20.2217 48C20.1976 48.0302 20.135 48.0735 20.1012 48.0903" stroke="#FF16B0" stroke-linecap="round"/>
<path d="M115.776 46.5693H99.4871V21.0811H115.776V24.7334H103.53V31.7646H113.081V35.417H103.53V42.9365H115.776V46.5693ZM122.775 46.5693V21.0811H126.799V42.9365H130.236V21.0811H134.279V42.9365H137.717V21.0811H141.76V42.9365H145.002V52.7998H141.369V46.5693H122.775ZM165.048 46.5693H148.759V21.0811H165.048V24.7334H152.802V31.7646H162.353V35.417H152.802V42.9365H165.048V46.5693ZM162.997 18.7568H158.075V13.835H162.997V18.7568ZM155.732 18.7568H150.81V13.835H155.732V18.7568Z" fill="black"/>
</svg>
