<svg width="282" height="307" viewBox="0 0 282 307" fill="none" xmlns="http://www.w3.org/2000/svg">
<rect x="130.775" y="134.637" width="130.177" height="140" fill="black"/>
<path d="M128.625 238.213H126.714V214.986H128.625V238.213ZM144.11 238.213H142.199V214.986H144.11V238.213Z" fill="#FF16B0"/>
<path d="M128.625 210.213H126.714V186.986H128.625V210.213ZM144.11 210.213H142.199V186.986H144.11V210.213Z" fill="#FF16B0"/>
<path d="M128.625 182.213H126.714V158.986H128.625V182.213ZM144.11 182.213H142.199V158.986H144.11V182.213Z" fill="#FF16B0"/>
<path d="M128.625 154.213H126.714V130.986H128.625V154.213ZM144.11 154.213H142.199V130.986H144.11V154.213Z" fill="#FF16B0"/>
<path d="M128.625 266.213H126.714V242.986H128.625V266.213ZM144.11 266.213H142.199V242.986H144.11V266.213Z" fill="#FF16B0"/>
<path d="M20.8717 44.9875H18.5133V16.3279H20.8717V44.9875Z" fill="#FF16B0"/>
<path d="M30.8853 83.6497H28.5269V54.99H30.8853V83.6497Z" fill="#FF16B0"/>
<path d="M20.8717 125.233H18.5133V96.573H20.8717V125.233Z" fill="#FF16B0"/>
<path d="M53.9209 122.911V125.269H25.2612V122.911H53.9209Z" fill="#FF16B0"/>
<path d="M76.6452 122.911V125.269H47.9855V122.911H76.6452Z" fill="#FF16B0"/>
<path d="M101.793 122.911V125.269H73.133V122.911H101.793Z" fill="#FF16B0"/>
<path d="M124.517 122.911V125.269H95.8572V122.911H124.517Z" fill="#FF16B0"/>
<path d="M149.664 122.911V125.269H121.005V122.911H149.664Z" fill="#FF16B0"/>
<path d="M172.389 122.911V125.269H143.729V122.911H172.389Z" fill="#FF16B0"/>
<path d="M197.536 122.911V125.269H168.876V122.911H197.536Z" fill="#FF16B0"/>
<path d="M220.26 122.911V125.269H191.601V122.911H220.26Z" fill="#FF16B0"/>
<path d="M244.96 122.911V125.269H216.3V122.911H244.96Z" fill="#FF16B0"/>
<path d="M59.3444 11.6028V13.9612L30.6847 13.9612V11.6028L59.3444 11.6028Z" fill="#FF16B0"/>
<path d="M82.0686 11.6028V13.9612L53.4089 13.9612V11.6028L82.0686 11.6028Z" fill="#FF16B0"/>
<path d="M107.216 11.6028V13.9612L78.5564 13.9612V11.6028L107.216 11.6028Z" fill="#FF16B0"/>
<path d="M129.94 11.6028V13.9612L101.281 13.9612V11.6028L129.94 11.6028Z" fill="#FF16B0"/>
<path d="M155.088 11.6028V13.9612L126.428 13.9612V11.6028L155.088 11.6028Z" fill="#FF16B0"/>
<path d="M177.812 11.6028V13.9612L149.152 13.9612V11.6028L177.812 11.6028Z" fill="#FF16B0"/>
<path d="M202.96 11.6028V13.9612L174.3 13.9612V11.6028L202.96 11.6028Z" fill="#FF16B0"/>
<path d="M225.684 11.6028V13.9612L197.024 13.9612V11.6028L225.684 11.6028Z" fill="#FF16B0"/>
<path d="M250.383 11.6028V13.9612L221.724 13.9612V11.6028L250.383 11.6028Z" fill="#FF16B0"/>
<path d="M256.076 44.9875H253.718V16.3279H256.076V44.9875Z" fill="#FF16B0"/>
<path d="M256.972 86.3157H254.614V57.656H256.972V86.3157Z" fill="#FF16B0"/>
<path d="M256.972 125.233H254.614V96.573H256.972V125.233Z" fill="#FF16B0"/>
<path d="M234.861 298.115L233.504 298.836L222.894 277.464L224.252 276.758L234.861 298.115Z" fill="#FF16B0"/>
<path d="M158.927 270.977C157.708 270.02 156.626 268.932 155.68 267.713C154.735 266.505 153.943 265.212 153.305 263.834C152.667 262.455 152.177 261.014 151.835 259.51C151.493 258.006 151.322 256.485 151.322 254.947C151.322 253.409 151.493 251.894 151.835 250.401C152.177 248.897 152.667 247.462 153.305 246.094C153.943 244.716 154.735 243.423 155.68 242.215C156.626 240.996 157.708 239.908 158.927 238.951L160.158 240.489C159.075 241.355 158.107 242.335 157.252 243.428C156.409 244.522 155.692 245.696 155.099 246.949C154.518 248.191 154.074 249.49 153.766 250.845C153.47 252.201 153.322 253.568 153.322 254.947C153.322 256.348 153.47 257.727 153.766 259.083C154.074 260.427 154.518 261.72 155.099 262.962C155.692 264.193 156.404 265.36 157.235 266.466C158.078 267.582 159.053 268.573 160.158 269.439L158.927 270.977ZM237.318 254.981C237.318 256.519 237.147 258.035 236.806 259.527C236.464 261.02 235.963 262.455 235.302 263.834C234.652 265.212 233.855 266.505 232.909 267.713C231.975 268.932 230.898 270.02 229.679 270.977L228.449 269.439C229.531 268.573 230.494 267.588 231.337 266.483C232.191 265.389 232.915 264.221 233.507 262.979C234.111 261.726 234.561 260.427 234.857 259.083C235.165 257.727 235.319 256.36 235.319 254.981C235.319 253.603 235.165 252.23 234.857 250.863C234.561 249.495 234.111 248.191 233.507 246.949C232.915 245.696 232.191 244.522 231.337 243.428C230.494 242.335 229.531 241.355 228.449 240.489L229.679 238.951C230.898 239.908 231.975 240.996 232.909 242.215C233.855 243.423 234.652 244.716 235.302 246.094C235.963 247.462 236.464 248.903 236.806 250.418C237.147 251.922 237.318 253.443 237.318 254.981Z" fill="#FF16B0"/>
<rect x="0.643188" y="6.89429" width="280.679" height="129.485" fill="black"/>
<rect x="29.5165" y="22.436" width="228.326" height="104.511" fill="#FF16B0"/>
<path d="M192.29 254.508C191.84 255.093 191.331 255.618 190.764 256.085C190.197 256.552 189.586 256.95 188.931 257.281C188.28 257.614 187.598 257.872 186.885 258.054C186.173 258.244 185.445 258.342 184.701 258.349L184.684 257.405C185.349 257.393 186.003 257.3 186.648 257.127C187.293 256.962 187.91 256.73 188.499 256.431C189.095 256.132 189.647 255.77 190.153 255.346C190.667 254.922 191.126 254.447 191.53 253.924C191.934 253.4 192.278 252.834 192.561 252.225C192.849 251.619 193.06 250.992 193.194 250.344C193.336 249.695 193.405 249.038 193.4 248.372C193.4 247.71 193.321 247.057 193.163 246.412L194.082 246.187C194.265 246.907 194.355 247.635 194.353 248.371C194.359 249.106 194.284 249.831 194.127 250.544C193.977 251.256 193.746 251.95 193.432 252.626C193.121 253.297 192.741 253.924 192.29 254.508Z" fill="#FF16B0"/>
<path d="M195.307 254.326C195.757 254.91 196.266 255.435 196.833 255.902C197.4 256.369 198.011 256.768 198.666 257.098C199.317 257.432 199.999 257.689 200.712 257.872C201.424 258.061 202.152 258.16 202.896 258.167L202.913 257.223C202.248 257.21 201.594 257.118 200.949 256.945C200.304 256.779 199.687 256.547 199.098 256.249C198.501 255.949 197.95 255.588 197.444 255.164C196.93 254.739 196.471 254.265 196.067 253.741C195.663 253.218 195.319 252.651 195.036 252.042C194.748 251.436 194.537 250.809 194.403 250.161C194.261 249.512 194.192 248.855 194.197 248.19C194.197 247.528 194.276 246.874 194.434 246.229L193.515 246.005C193.332 246.725 193.242 247.453 193.244 248.189C193.238 248.924 193.313 249.648 193.47 250.361C193.62 251.074 193.851 251.768 194.165 252.443C194.476 253.114 194.856 253.742 195.307 254.326Z" fill="#FF16B0"/>
<path d="M165.436 233.977C164.217 233.02 163.135 231.932 162.189 230.713C161.243 229.505 160.451 228.212 159.813 226.834C159.175 225.455 158.686 224.014 158.344 222.51C158.002 221.006 157.831 219.485 157.831 217.947C157.831 216.409 158.002 214.894 158.344 213.401C158.686 211.897 159.175 210.462 159.813 209.094C160.451 207.716 161.243 206.423 162.189 205.215C163.135 203.996 164.217 202.908 165.436 201.951L166.667 203.489C165.584 204.355 164.616 205.335 163.761 206.428C162.918 207.522 162.2 208.696 161.608 209.949C161.027 211.191 160.583 212.49 160.275 213.845C159.979 215.201 159.831 216.568 159.831 217.947C159.831 219.348 159.979 220.727 160.275 222.083C160.583 223.427 161.027 224.72 161.608 225.962C162.2 227.193 162.912 228.36 163.744 229.466C164.587 230.582 165.561 231.573 166.667 232.439L165.436 233.977ZM231.021 217.981C231.021 219.519 230.85 221.035 230.508 222.527C230.166 224.02 229.665 225.455 229.004 226.834C228.355 228.212 227.557 229.505 226.612 230.713C225.677 231.932 224.601 233.02 223.382 233.977L222.151 232.439C223.233 231.573 224.196 230.588 225.039 229.483C225.894 228.389 226.617 227.221 227.21 225.979C227.814 224.726 228.264 223.427 228.56 222.083C228.867 220.727 229.021 219.36 229.021 217.981C229.021 216.603 228.867 215.23 228.56 213.863C228.264 212.495 227.814 211.191 227.21 209.949C226.617 208.696 225.894 207.522 225.039 206.428C224.196 205.335 223.233 204.355 222.151 203.489L223.382 201.951C224.601 202.908 225.677 203.996 226.612 205.215C227.557 206.423 228.355 207.716 229.004 209.094C229.665 210.462 230.166 211.903 230.508 213.418C230.85 214.922 231.021 216.443 231.021 217.981Z" fill="#FF16B0"/>
<path d="M179.793 228.35L178.118 229.239L165.027 202.869L166.702 201.997L179.793 228.35ZM224.452 202.869L211.361 229.239L209.686 228.35L222.777 201.997L224.452 202.869Z" fill="#FF16B0"/>
<path d="M194.295 232.078H178.367V230.079H194.295V232.078Z" fill="#FF16B0"/>
<path d="M211.727 232.078H195.799V230.079H211.727V232.078Z" fill="#FF16B0"/>
<path d="M147.413 292.471C146.136 291.917 145.043 291.272 144.134 290.535C143.219 289.81 142.524 288.989 142.048 288.071C141.579 287.171 141.341 286.179 141.334 285.096C141.327 284.014 141.593 282.852 142.134 281.61C142.679 280.358 143.351 279.365 144.149 278.631C144.941 277.91 145.827 277.413 146.807 277.141C147.793 276.886 148.872 276.842 150.043 277.009C151.21 277.188 152.431 277.554 153.707 278.108L168.161 284.384L167.132 286.746L152.645 280.455C151.966 280.161 151.223 279.906 150.414 279.691C149.6 279.488 148.807 279.424 148.036 279.5C147.26 279.586 146.53 279.85 145.846 280.291C145.157 280.743 144.592 281.475 144.152 282.487C143.711 283.498 143.56 284.41 143.699 285.221C143.833 286.045 144.135 286.764 144.606 287.378C145.072 288.004 145.659 288.539 146.368 288.984C147.077 289.428 147.77 289.798 148.449 290.092L162.936 296.383L161.9 298.762L147.413 292.471Z" fill="#FF16B0"/>
<path d="M140.649 276.755L138.332 275.874L138.934 274.296C139.061 273.963 139.229 273.668 139.437 273.41C139.653 273.149 139.899 272.945 140.177 272.796C140.455 272.648 140.762 272.56 141.098 272.533C141.439 272.508 141.803 272.569 142.189 272.716L141.866 273.563C140.886 273.19 140.191 273.542 139.781 274.618L139.695 274.842L141.165 275.401L140.649 276.755ZM136.602 275.216L134.299 274.34L134.901 272.762C135.028 272.429 135.193 272.133 135.397 271.874C135.608 271.611 135.852 271.406 136.13 271.257C136.407 271.109 136.714 271.021 137.051 270.994C137.392 270.969 137.755 271.03 138.142 271.177L137.819 272.024C136.848 271.655 136.158 272.008 135.748 273.084L135.662 273.309L137.118 273.862L136.602 275.216Z" fill="#FF16B0"/>
<path d="M171.807 250.39L174.982 248.184L176.097 250.143L172.606 251.798L176.097 253.442L174.982 255.401L171.807 253.183L172.122 257.034H169.893L170.208 253.183L167.033 255.401L165.918 253.442L169.408 251.798L165.918 250.143L167.033 248.184L170.208 250.39L169.893 246.54H172.122L171.807 250.39Z" fill="#FF16B0"/>
<path d="M219.111 249.983L222.286 247.776L223.401 249.735L219.911 251.39L223.401 253.034L222.286 254.993L219.111 252.775L219.426 256.626H217.197L217.512 252.775L214.337 254.993L213.222 253.034L216.713 251.39L213.222 249.735L214.337 247.776L217.512 249.983L217.197 246.132H219.426L219.111 249.983Z" fill="#FF16B0"/>
<rect x="39.75" y="50.8879" width="188.788" height="35.583" fill="#FF16B0"/>
<path d="M57.0884 67.0161H54.73V56.6938H45.1768V67.0161H42.8354V44.7139H45.1768V54.6943H54.73V44.7139H57.0884V67.0161ZM73.8364 67.0161H64.2832V65.0166H67.8892V46.7134H64.2832V44.7139H73.8364V46.7134H70.2476V65.0166H73.8364V67.0161ZM89.73 44.7139L88.8584 60.7441H87.457L86.5854 44.7139H89.73ZM89.7642 67.0161H86.5854V63.8374H89.7642V67.0161ZM59.0024 79.7139L54.9863 102.016H52.2178L49.9448 91.1299L47.6377 102.016H44.9033L40.9214 79.7139H43.3994L46.5439 98.0684L48.7827 86.0884H51.0898L53.3457 98.0684L56.4902 79.7139H59.0024ZM76.1948 102.016H73.8364V91.6938H64.2832V102.016H61.9419V79.7139H64.2832V89.6943H73.8364V79.7139H76.1948V102.016ZM96.7368 90.8906C96.7368 92.3831 96.583 93.8244 96.2754 95.2144C95.9678 96.6043 95.4779 97.8291 94.8057 98.8887C94.1335 99.9482 93.2505 100.803 92.1567 101.452C91.0744 102.09 89.7528 102.409 88.1919 102.409C86.631 102.409 85.3037 102.09 84.21 101.452C83.1276 100.803 82.2446 99.9482 81.561 98.8887C80.8888 97.8291 80.4046 96.6043 80.1084 95.2144C79.8008 93.8244 79.647 92.3831 79.647 90.8906C79.647 89.3981 79.8008 87.9569 80.1084 86.5669C80.4046 85.1769 80.8945 83.9465 81.5781 82.8755C82.2731 81.8045 83.1618 80.95 84.2441 80.312C85.3379 79.6626 86.6538 79.3379 88.1919 79.3379C89.73 79.3379 91.0402 79.6626 92.1226 80.312C93.2163 80.95 94.0993 81.8045 94.7715 82.8755C95.4437 83.9465 95.9393 85.1769 96.2583 86.5669C96.5773 87.9569 96.7368 89.3981 96.7368 90.8906ZM94.3784 90.8906C94.3784 89.4209 94.236 88.0993 93.9512 86.9258C93.6777 85.7409 93.279 84.7326 92.7549 83.9009C92.2308 83.0692 91.5814 82.4368 90.8066 82.0039C90.0433 81.5596 89.1717 81.3374 88.1919 81.3374C86.9728 81.3374 85.9645 81.6222 85.167 82.1919C84.3809 82.7616 83.7485 83.5078 83.27 84.4307C82.7915 85.3535 82.4554 86.3789 82.2617 87.5068C82.0794 88.6348 81.9883 89.7627 81.9883 90.8906C81.9883 92.0072 82.0794 93.1351 82.2617 94.2744C82.4554 95.4023 82.7915 96.422 83.27 97.3335C83.7485 98.2336 84.3809 98.9741 85.167 99.5552C85.9645 100.125 86.9728 100.41 88.1919 100.41C89.3996 100.41 90.4022 100.125 91.1997 99.5552C91.9972 98.9741 92.6353 98.2336 93.1138 97.3335C93.5923 96.422 93.9227 95.4023 94.105 94.2744C94.2873 93.1351 94.3784 92.0072 94.3784 90.8906ZM131.156 102.016H121.603V100.017H125.208V81.7134H121.603V79.7139H131.156V81.7134H127.567V100.017H131.156V102.016ZM173.641 102.016H171.129L169.027 95.6416H160.208L158.141 102.016H155.628L163.045 79.7139H166.224L173.641 102.016ZM168.36 93.5737L164.618 82.0723L160.875 93.5737H168.36ZM190.833 102.016H188.475V83.4395L184.527 94.9409H182.853L178.922 83.4395V102.016H176.581V79.7139H179.623L183.69 91.3691L187.792 79.7139H190.833V102.016ZM223.509 102.016H220.331V98.8374H223.509V102.016ZM229.491 84.5503C229.491 85.439 229.326 86.2194 228.995 86.8916C228.676 87.5524 228.272 88.1619 227.782 88.7202C227.292 89.2785 226.756 89.8026 226.175 90.2925C225.594 90.7824 225.059 91.2894 224.569 91.8135C224.079 92.3376 223.669 92.9129 223.338 93.5396C223.008 94.1548 222.843 94.8555 222.843 95.6416H220.365C220.365 94.7529 220.53 93.9611 220.86 93.2661C221.202 92.5711 221.618 91.9217 222.108 91.3179C222.598 90.7026 223.139 90.1273 223.731 89.5918C224.335 89.0563 224.882 88.5265 225.372 88.0024C225.862 87.4784 226.272 86.9372 226.603 86.3789C226.944 85.8092 227.115 85.1997 227.115 84.5503C227.115 83.5477 226.808 82.7616 226.192 82.1919C225.577 81.6222 224.683 81.3374 223.509 81.3374C222.792 81.3374 222.159 81.457 221.612 81.6963C221.077 81.9242 220.621 82.2375 220.245 82.6362C219.881 83.0236 219.584 83.4907 219.356 84.0376C219.14 84.5845 218.998 85.1883 218.929 85.8491L216.827 85.5244C217.032 83.6104 217.687 82.1007 218.792 80.9956C219.909 79.8905 221.47 79.3379 223.475 79.3379C225.366 79.3379 226.842 79.8221 227.901 80.7905C228.961 81.759 229.491 83.0122 229.491 84.5503ZM242.582 79.7139L241.71 95.7441H240.309L239.437 79.7139H242.582ZM242.616 102.016H239.437V98.8374H242.616V102.016Z" fill="black"/>
<path d="M56.8994 11.6028V13.9612L28.2397 13.9612V11.6028L56.8994 11.6028Z" fill="black"/>
<path d="M79.5928 11.6028V13.9612L50.9331 13.9612V11.6028L79.5928 11.6028Z" fill="black"/>
<path d="M104.706 11.6028V13.9612L76.0464 13.9612V11.6028L104.706 11.6028Z" fill="black"/>
<path d="M127.399 11.6028V13.9612L98.7397 13.9612V11.6028L127.399 11.6028Z" fill="black"/>
<path d="M152.513 11.6028V13.9612L123.853 13.9612V11.6028L152.513 11.6028Z" fill="black"/>
<path d="M175.206 11.6028V13.9612L146.546 13.9612V11.6028L175.206 11.6028Z" fill="black"/>
<path d="M200.319 11.6028V13.9612L171.66 13.9612V11.6028L200.319 11.6028Z" fill="black"/>
<path d="M223.013 11.6028V13.9612L194.353 13.9612V11.6028L223.013 11.6028Z" fill="black"/>
<path d="M247.679 11.6028V13.9612L219.019 13.9612V11.6028L247.679 11.6028Z" fill="black"/>
</svg>
