<svg width="1175" height="701" viewBox="0 0 1175 701" fill="none" xmlns="http://www.w3.org/2000/svg">
<circle cx="1050.74" cy="574.891" r="27.577" fill="#FF16B0" fill-opacity="0.31" stroke="#FF16B0" stroke-width="1.7102"/>
<circle cx="1050.95" cy="575.105" r="31.6387" stroke="#FF16B0" stroke-width="1.7102"/>
<path d="M1052.08 578.769H1048.66V575.349H1052.08V578.769Z" fill="#FF16B0"/>
<circle cx="957.897" cy="574.891" r="27.577" stroke="#FF16B0" stroke-width="1.7102"/>
<circle cx="958.111" cy="575.105" r="31.6387" stroke="#FF16B0" stroke-width="1.7102"/>
<path d="M960.403 572.45L955.365 582.728H953.6L957.02 572.45H960.403Z" fill="#FF16B0"/>
<circle cx="865.061" cy="574.891" r="27.577" stroke="#FF16B0" stroke-width="1.7102"/>
<circle cx="865.275" cy="575.105" r="31.6387" stroke="#FF16B0" stroke-width="1.7102"/>
<path d="M864.771 569.369H861.352V565.931H864.771V569.369ZM865.709 579.647L860.671 589.924H858.906L862.326 579.647H865.709Z" fill="#FF16B0"/>
<circle cx="772.225" cy="574.891" r="27.577" stroke="#FF16B0" stroke-width="1.7102"/>
<circle cx="772.439" cy="575.105" r="31.6387" stroke="#FF16B0" stroke-width="1.7102"/>
<path d="M772.795 570.229H769.375V566.791H772.795V570.229ZM772.795 583.926H769.375V580.506H772.795V583.926Z" fill="#FF16B0"/>
<circle cx="586.549" cy="574.891" r="27.577" stroke="#FF16B0" stroke-width="1.7102"/>
<circle cx="586.763" cy="575.105" r="31.6387" stroke="#FF16B0" stroke-width="1.7102"/>
<path d="M589.712 576.159L588.958 577.355L581.052 572.887L582.266 570.883L589.712 576.159Z" fill="#FF16B0"/>
<circle cx="493.713" cy="574.891" r="27.577" stroke="#FF16B0" stroke-width="1.7102"/>
<circle cx="493.927" cy="575.105" r="31.6387" stroke="#FF16B0" stroke-width="1.7102"/>
<path d="M496.842 569.369H490.977V565.361C490.977 564.516 491.099 563.719 491.344 562.971C491.602 562.211 491.976 561.549 492.466 560.986C492.956 560.422 493.563 559.968 494.286 559.625C495.021 559.282 495.873 559.11 496.842 559.11V561.261C494.366 561.261 493.128 562.628 493.128 565.361V565.931H496.842V569.369Z" fill="#FF16B0"/>
<circle cx="400.875" cy="574.891" r="27.577" stroke="#FF16B0" stroke-width="1.7102"/>
<circle cx="401.09" cy="575.105" r="31.6387" stroke="#FF16B0" stroke-width="1.7102"/>
<path d="M410.059 574.508H407.264L401.473 563.238L395.718 574.508H392.923L399.781 560.793H403.164L410.059 574.508Z" fill="#FF16B0"/>
<circle cx="308.04" cy="574.891" r="27.577" stroke="#FF16B0" stroke-width="1.7102"/>
<circle cx="308.254" cy="575.105" r="31.6387" stroke="#FF16B0" stroke-width="1.7102"/>
<path d="M306.49 587.659C305.461 587.536 304.523 587.285 303.677 586.905C302.844 586.513 302.121 586.028 301.508 585.452C300.895 584.864 300.392 584.196 300 583.448C299.608 582.701 299.338 581.91 299.191 581.077L301.563 580.47C301.845 581.708 302.378 582.786 303.162 583.706C303.959 584.613 305.068 585.195 306.49 585.452V575.763C305.461 575.383 304.541 574.997 303.732 574.605C302.936 574.2 302.255 573.741 301.692 573.226C301.128 572.711 300.699 572.123 300.405 571.461C300.123 570.787 299.982 570.002 299.982 569.108C299.982 568.323 300.129 567.588 300.423 566.901C300.729 566.215 301.158 565.596 301.71 565.045C302.262 564.481 302.936 564.027 303.732 563.684C304.541 563.329 305.461 563.09 306.49 562.967V559.952H309.027V562.967C309.947 563.09 310.792 563.359 311.565 563.776C312.349 564.193 313.023 564.701 313.587 565.302C314.151 565.903 314.604 566.571 314.947 567.306C315.291 568.029 315.499 568.765 315.573 569.512L312.943 569.972C312.784 568.893 312.386 567.907 311.748 567.012C311.111 566.117 310.204 565.547 309.027 565.302V573.961C311.258 574.783 312.931 575.733 314.047 576.811C315.162 577.878 315.72 579.312 315.72 581.113C315.72 581.947 315.566 582.731 315.26 583.467C314.966 584.202 314.531 584.864 313.955 585.452C313.379 586.028 312.674 586.519 311.84 586.923C311.019 587.315 310.081 587.561 309.027 587.659V590.784H306.49V587.659ZM312.98 581.334C312.98 580.28 312.643 579.385 311.969 578.65C311.307 577.902 310.327 577.24 309.027 576.664V585.452C310.449 585.244 311.454 584.76 312.043 584C312.643 583.228 312.956 582.339 312.98 581.334ZM302.574 569.071C302.574 570.015 302.923 570.805 303.622 571.443C304.333 572.068 305.289 572.619 306.49 573.097V565.265C305.816 565.363 305.228 565.547 304.725 565.817C304.223 566.074 303.812 566.381 303.493 566.736C303.187 567.079 302.954 567.453 302.795 567.858C302.648 568.262 302.574 568.666 302.574 569.071Z" fill="#FF16B0"/>
<circle cx="215.2" cy="574.891" r="27.577" stroke="#FF16B0" stroke-width="1.7102"/>
<circle cx="215.414" cy="575.105" r="31.6387" stroke="#FF16B0" stroke-width="1.7102"/>
<path d="M224.348 581.563H220.285V585.627H218.134V581.563H213.427V585.627H211.276V581.563H207.213V579.541H211.276V574.687H207.213V572.683H211.276V568.491H213.427V572.683H218.134V568.491H220.285V572.683H224.348V574.687H220.285V579.541H224.348V581.563ZM218.134 579.541V574.687H213.427V579.541H218.134Z" fill="#FF16B0"/>
<circle cx="122.364" cy="574.891" r="27.577" stroke="#FF16B0" stroke-width="1.7102"/>
<circle cx="122.578" cy="575.105" r="31.6387" stroke="#FF16B0" stroke-width="1.7102"/>
<path d="M130.435 573.07C130.435 573.903 130.367 574.749 130.233 575.607C130.098 576.465 129.865 577.243 129.534 577.942C129.203 578.628 128.762 579.192 128.21 579.633C127.659 580.075 126.972 580.295 126.151 580.295C125.796 580.295 125.452 580.234 125.121 580.111C124.791 579.989 124.496 579.811 124.239 579.578C123.982 579.345 123.773 579.076 123.614 578.769C123.467 578.45 123.393 578.095 123.393 577.703V577.188C123.124 578.107 122.701 578.855 122.125 579.431C121.549 580.007 120.881 580.295 120.121 580.295C119.312 580.295 118.638 580.117 118.098 579.762C117.559 579.407 117.124 578.935 116.793 578.346C116.474 577.758 116.247 577.09 116.113 576.342C115.978 575.595 115.91 574.829 115.91 574.044C115.91 573.137 116.015 572.273 116.223 571.452C116.431 570.618 116.744 569.889 117.161 569.264C117.577 568.627 118.092 568.124 118.705 567.756C119.33 567.376 120.053 567.186 120.874 567.186C121.303 567.186 121.757 567.297 122.235 567.517C122.713 567.726 123.099 568.057 123.393 568.51V567.536H125.802V577.188C125.802 577.58 125.875 577.862 126.022 578.034C126.169 578.205 126.384 578.291 126.666 578.291C127.009 578.291 127.303 578.126 127.548 577.795C127.794 577.464 127.99 577.047 128.137 576.545C128.284 576.03 128.388 575.466 128.449 574.853C128.523 574.24 128.56 573.646 128.56 573.07C128.56 572.224 128.504 571.384 128.394 570.551C128.296 569.705 128.124 568.908 127.879 568.161C127.646 567.401 127.34 566.702 126.96 566.065C126.58 565.415 126.114 564.858 125.563 564.392C125.023 563.914 124.392 563.546 123.669 563.289C122.958 563.019 122.149 562.884 121.242 562.884C119.857 562.884 118.699 563.178 117.767 563.767C116.836 564.355 116.082 565.146 115.506 566.138C114.942 567.131 114.538 568.277 114.292 569.576C114.047 570.876 113.925 572.242 113.925 573.676C113.925 575.086 114.047 576.44 114.292 577.74C114.538 579.027 114.942 580.166 115.506 581.159C116.082 582.152 116.836 582.943 117.767 583.531C118.711 584.119 119.869 584.414 121.242 584.414C122.247 584.414 123.148 584.236 123.945 583.88C124.742 583.525 125.465 583.047 126.114 582.446L127.199 583.696C125.63 585.278 123.645 586.068 121.242 586.068C120.115 586.068 119.103 585.915 118.209 585.609C117.326 585.29 116.542 584.849 115.855 584.285C115.181 583.721 114.599 583.053 114.109 582.281C113.631 581.509 113.238 580.663 112.932 579.744C112.626 578.824 112.405 577.85 112.27 576.82C112.123 575.791 112.049 574.743 112.049 573.676C112.049 572.586 112.123 571.525 112.27 570.496C112.417 569.454 112.644 568.473 112.95 567.554C113.257 566.635 113.649 565.789 114.127 565.017C114.617 564.245 115.206 563.583 115.892 563.031C116.578 562.467 117.363 562.032 118.245 561.726C119.128 561.407 120.127 561.248 121.242 561.248C122.897 561.248 124.306 561.591 125.471 562.277C126.647 562.952 127.604 563.846 128.339 564.962C129.074 566.077 129.608 567.34 129.938 568.749C130.269 570.159 130.435 571.599 130.435 573.07ZM123.393 570.79C123.111 570.189 122.774 569.773 122.382 569.54C122.002 569.295 121.579 569.172 121.113 569.172C120.648 569.172 120.243 569.313 119.9 569.595C119.569 569.865 119.293 570.232 119.073 570.698C118.852 571.151 118.687 571.672 118.576 572.261C118.478 572.837 118.429 573.425 118.429 574.026C118.429 575.362 118.601 576.367 118.944 577.041C119.299 577.715 119.796 578.052 120.433 578.052C120.887 578.052 121.297 577.917 121.665 577.648C122.033 577.366 122.345 577.004 122.603 576.563C122.86 576.109 123.056 575.607 123.191 575.055C123.326 574.492 123.393 573.934 123.393 573.382V570.79Z" fill="#FF16B0"/>
<circle cx="679.385" cy="574.891" r="27.577" fill="#FF16B0" fill-opacity="0.31" stroke="#FF16B0" stroke-width="1.7102"/>
<circle cx="679.599" cy="575.105" r="31.6387" stroke="#FF16B0" stroke-width="1.7102"/>
<path d="M683.279 576.209C683.733 576.209 684.113 576.068 684.419 575.786C684.738 575.492 684.995 575.093 685.191 574.591C685.4 574.088 685.565 573.488 685.688 572.789C685.823 572.078 685.939 571.324 686.037 570.528L688.519 570.785C688.446 571.888 688.274 572.912 688.004 573.855C687.747 574.799 687.404 575.614 686.975 576.301C686.546 576.987 686.019 577.532 685.394 577.937C684.769 578.341 684.064 578.544 683.279 578.544C682.532 578.544 681.9 578.403 681.386 578.121C680.871 577.827 680.436 577.465 680.08 577.036C679.737 576.607 679.431 576.147 679.161 575.657C678.904 575.167 678.646 574.713 678.389 574.297C678.144 573.868 677.868 573.512 677.561 573.23C677.255 572.936 676.893 572.789 676.477 572.789C676.023 572.789 675.637 572.936 675.318 573.23C675.012 573.512 674.755 573.904 674.546 574.407C674.35 574.909 674.185 575.504 674.05 576.19C673.927 576.877 673.817 577.624 673.719 578.433L671.237 578.157C671.31 577.079 671.476 576.068 671.733 575.124C672.003 574.168 672.352 573.347 672.781 572.66C673.21 571.962 673.731 571.416 674.344 571.024C674.957 570.619 675.668 570.417 676.477 570.417C677.224 570.417 677.856 570.564 678.37 570.858C678.885 571.14 679.32 571.496 679.676 571.925C680.044 572.342 680.356 572.801 680.613 573.304C680.883 573.806 681.141 574.272 681.386 574.701C681.643 575.13 681.913 575.492 682.195 575.786C682.489 576.068 682.85 576.209 683.279 576.209Z" fill="#FF16B0"/>
<circle cx="401.911" cy="667.386" r="27.577" stroke="#FF16B0" stroke-width="1.7102"/>
<circle cx="402.125" cy="667.6" r="31.6387" stroke="#FF16B0" stroke-width="1.7102"/>
<path d="M401.906 660.132C401.906 660.757 401.783 661.351 401.538 661.915C401.305 662.479 400.974 662.969 400.545 663.386C400.129 663.803 399.638 664.14 399.074 664.397C398.511 664.642 397.91 664.765 397.273 664.765C396.648 664.765 396.053 664.642 395.489 664.397C394.925 664.14 394.435 663.803 394.018 663.386C393.602 662.969 393.277 662.479 393.044 661.915C392.811 661.351 392.695 660.757 392.695 660.132C392.695 659.507 392.811 658.906 393.044 658.33C393.277 657.742 393.602 657.245 394.018 656.841C394.435 656.424 394.925 656.093 395.489 655.848C396.053 655.591 396.648 655.462 397.273 655.462C397.91 655.462 398.511 655.591 399.074 655.848C399.638 656.093 400.129 656.424 400.545 656.841C400.974 657.245 401.305 657.742 401.538 658.33C401.783 658.906 401.906 659.507 401.906 660.132ZM410.198 656.473L394.827 680.356L393.099 679.253L408.506 655.315L410.198 656.473ZM410.731 675.649C410.731 676.299 410.602 676.899 410.345 677.451C410.1 678.002 409.769 678.493 409.352 678.922C408.935 679.351 408.439 679.682 407.863 679.915C407.287 680.16 406.686 680.282 406.061 680.282C405.424 680.282 404.823 680.16 404.259 679.915C403.695 679.682 403.205 679.357 402.788 678.94C402.384 678.523 402.053 678.033 401.795 677.469C401.55 676.905 401.428 676.299 401.428 675.649C401.428 675.012 401.55 674.411 401.795 673.847C402.053 673.284 402.384 672.799 402.788 672.395C403.205 671.978 403.695 671.653 404.259 671.42C404.823 671.175 405.424 671.053 406.061 671.053C406.686 671.053 407.28 671.175 407.844 671.42C408.408 671.653 408.904 671.978 409.333 672.395C409.762 672.799 410.1 673.284 410.345 673.847C410.602 674.411 410.731 675.012 410.731 675.649ZM400.03 660.132C400.03 659.347 399.767 658.686 399.24 658.146C398.713 657.607 398.057 657.337 397.273 657.337C396.5 657.337 395.851 657.607 395.324 658.146C394.797 658.686 394.533 659.347 394.533 660.132C394.533 660.904 394.797 661.56 395.324 662.099C395.851 662.638 396.5 662.908 397.273 662.908C398.057 662.908 398.713 662.638 399.24 662.099C399.767 661.56 400.03 660.904 400.03 660.132ZM408.837 675.649C408.837 674.865 408.567 674.209 408.028 673.682C407.489 673.155 406.833 672.891 406.061 672.891C405.276 672.891 404.621 673.155 404.094 673.682C403.567 674.209 403.303 674.865 403.303 675.649C403.303 676.421 403.567 677.077 404.094 677.616C404.621 678.156 405.276 678.425 406.061 678.425C406.833 678.425 407.489 678.156 408.028 677.616C408.567 677.077 408.837 676.421 408.837 675.649Z" fill="#FF16B0"/>
<circle cx="309.415" cy="667.386" r="27.577" stroke="#FF16B0" stroke-width="1.7102"/>
<circle cx="309.629" cy="667.6" r="31.6387" stroke="#FF16B0" stroke-width="1.7102"/>
<path d="M319.002 667.753C318.782 668.807 318.426 669.867 317.936 670.934C317.446 672 316.839 673.011 316.116 673.967L319.002 676.67L317.274 678.637L314.387 675.806C313.48 676.615 312.475 677.277 311.372 677.791C310.269 678.306 309.074 678.563 307.787 678.563C306.856 678.563 305.973 678.392 305.14 678.049C304.318 677.706 303.601 677.24 302.988 676.651C302.376 676.063 301.885 675.377 301.518 674.592C301.15 673.796 300.966 672.931 300.966 672C300.966 671.228 301.052 670.523 301.223 669.886C301.383 669.236 301.603 668.654 301.885 668.139C302.179 667.624 302.523 667.165 302.915 666.76C303.307 666.343 303.73 665.957 304.183 665.602C303.424 664.646 302.835 663.702 302.418 662.77C302.002 661.827 301.793 660.877 301.793 659.921C301.793 658.033 302.339 656.532 303.43 655.416C304.533 654.301 305.998 653.743 307.824 653.743C308.657 653.743 309.436 653.872 310.159 654.129C310.894 654.374 311.532 654.73 312.071 655.196C312.61 655.661 313.027 656.225 313.321 656.887C313.627 657.549 313.781 658.309 313.781 659.167C313.781 660.123 313.591 660.938 313.211 661.612C312.831 662.286 312.353 662.881 311.777 663.396C311.201 663.91 310.545 664.376 309.809 664.793C309.086 665.21 308.375 665.645 307.677 666.098L314.295 672.312C314.884 671.503 315.362 670.658 315.73 669.775C316.109 668.881 316.398 668.004 316.594 667.146L319.002 667.753ZM307.787 676.137C308.743 676.137 309.632 675.959 310.453 675.603C311.286 675.236 312.028 674.752 312.678 674.151L306.353 667.973L305.801 667.44C305.164 667.992 304.649 668.629 304.257 669.352C303.877 670.063 303.687 670.946 303.687 672C303.687 673.177 304.067 674.163 304.827 674.96C305.599 675.744 306.586 676.137 307.787 676.137ZM304.404 659.921C304.404 660.497 304.508 661.152 304.717 661.888C304.937 662.611 305.397 663.432 306.096 664.352C306.721 663.984 307.34 663.622 307.952 663.267C308.578 662.911 309.123 662.538 309.589 662.145C310.067 661.741 310.447 661.293 310.729 660.803C311.023 660.313 311.17 659.743 311.17 659.093C311.17 658.137 310.851 657.383 310.214 656.832C309.577 656.28 308.78 656.005 307.824 656.005C307.297 656.005 306.819 656.115 306.39 656.336C305.973 656.544 305.611 656.832 305.305 657.2C304.999 657.555 304.772 657.972 304.625 658.45C304.478 658.928 304.404 659.418 304.404 659.921Z" fill="#FF16B0"/>
<circle cx="216.918" cy="667.386" r="27.577" stroke="#FF16B0" stroke-width="1.7102"/>
<circle cx="217.132" cy="667.6" r="31.6387" stroke="#FF16B0" stroke-width="1.7102"/>
<path d="M223.703 666.153L217.415 669.536L223.703 673.011L222.691 674.739L216.587 671.007L216.845 678.122H214.712L214.969 671.007L208.866 674.739L207.854 673.011L214.142 669.536L207.854 666.153L208.866 664.388L214.969 668.157L214.712 660.987H216.845L216.587 668.157L222.691 664.388L223.703 666.153Z" fill="#FF16B0"/>
<circle cx="679.393" cy="667.386" r="27.577" stroke="#FF16B0" stroke-width="1.7102"/>
<circle cx="679.607" cy="667.6" r="31.6387" stroke="#FF16B0" stroke-width="1.7102"/>
<path d="M687.819 673.039H681.935V669.031C681.935 668.186 682.058 667.389 682.303 666.641C682.56 665.881 682.934 665.219 683.424 664.656C683.915 664.092 684.521 663.638 685.245 663.295C685.98 662.952 686.838 662.78 687.819 662.78V664.931C685.33 664.931 684.086 666.298 684.086 669.031V669.601H687.819V673.039ZM677.541 673.039H671.695V669.031C671.695 668.186 671.811 667.389 672.044 666.641C672.289 665.881 672.657 665.219 673.147 664.656C673.637 664.092 674.244 663.638 674.967 663.295C675.703 662.952 676.561 662.78 677.541 662.78V664.931C675.077 664.931 673.846 666.298 673.846 669.031V669.601H677.541V673.039Z" fill="#FF16B0"/>
<circle cx="586.897" cy="667.386" r="27.577" stroke="#FF16B0" stroke-width="1.7102"/>
<circle cx="587.111" cy="667.6" r="31.6387" stroke="#FF16B0" stroke-width="1.7102"/>
<path d="M591.664 666.773L582.251 676.187L580.817 674.734L588.759 666.773L580.817 658.831L582.251 657.36L591.664 666.773Z" fill="#FF16B0"/>
<circle cx="494.401" cy="667.386" r="27.577" stroke="#FF16B0" stroke-width="1.7102"/>
<circle cx="494.615" cy="667.6" r="31.6387" stroke="#FF16B0" stroke-width="1.7102"/>
<path d="M500.179 674.734L498.763 676.187L489.35 666.773L498.763 657.36L500.179 658.831L492.237 666.773L500.179 674.734Z" fill="#FF16B0"/>
<circle cx="771.889" cy="667.386" r="27.577" fill="#FF16B0" fill-opacity="0.31" stroke="#FF16B0" stroke-width="1.7102"/>
<circle cx="772.103" cy="667.6" r="31.6387" stroke="#FF16B0" stroke-width="1.7102"/>
<path d="M764.172 664.249H770.037V668.257C770.037 669.103 769.914 669.906 769.669 670.666C769.424 671.414 769.056 672.069 768.566 672.633C768.076 673.197 767.463 673.65 766.728 673.994C766.004 674.325 765.153 674.49 764.172 674.49V672.357C766.66 672.357 767.904 670.991 767.904 668.257V667.687H764.172V664.249ZM774.449 664.249H780.296V668.257C780.296 669.103 780.173 669.906 779.928 670.666C779.695 671.414 779.334 672.069 778.844 672.633C778.353 673.197 777.74 673.65 777.005 673.994C776.282 674.325 775.43 674.49 774.449 674.49V672.357C776.913 672.357 778.145 670.991 778.145 668.257V667.687H774.449V664.249Z" fill="#FF16B0"/>
<circle cx="956.875" cy="667.386" r="27.577" stroke="#FF16B0" stroke-width="1.7102"/>
<circle cx="957.09" cy="667.6" r="31.6387" stroke="#FF16B0" stroke-width="1.7102"/>
<path d="M965.301 678.981H948.166V676.83H965.301V678.981Z" fill="#FF16B0"/>
<circle cx="864.381" cy="667.386" r="27.577" stroke="#FF16B0" stroke-width="1.7102"/>
<circle cx="864.595" cy="667.6" r="31.6387" stroke="#FF16B0" stroke-width="1.7102"/>
<path d="M872.807 667.84H855.672V665.689H872.807V667.84Z" fill="#FF16B0"/>
<circle cx="865.061" cy="482.396" r="27.577" stroke="#FF16B0" stroke-width="1.7102"/>
<circle cx="865.275" cy="482.61" r="31.6387" stroke="#FF16B0" stroke-width="1.7102"/>
<path d="M866.49 498.289H859.633V496.211H864.468V466.059H859.633V464.019H866.49V498.289Z" fill="#FF16B0"/>
<circle cx="772.225" cy="482.396" r="27.577" stroke="#FF16B0" stroke-width="1.7102"/>
<circle cx="772.439" cy="482.61" r="31.6387" stroke="#FF16B0" stroke-width="1.7102"/>
<path d="M774.494 498.289H767.654V464.018H774.494V466.059H769.677V496.211H774.494V498.289Z" fill="#FF16B0"/>
<circle cx="679.385" cy="482.396" r="27.577" stroke="#FF16B0" stroke-width="1.7102"/>
<circle cx="679.599" cy="482.61" r="31.6387" stroke="#FF16B0" stroke-width="1.7102"/>
<path d="M685.059 482.201C682.804 482.201 681.676 483.231 681.676 485.29V493.122C681.676 493.882 681.547 494.575 681.29 495.2C681.045 495.825 680.689 496.371 680.224 496.836C679.758 497.302 679.212 497.657 678.587 497.903C677.962 498.16 677.276 498.289 676.528 498.289H674.818V496.211H676.528C678.575 496.211 679.598 495.182 679.598 493.122V485.29C679.598 484.861 679.678 484.42 679.837 483.966C680.009 483.501 680.236 483.072 680.518 482.68C680.812 482.287 681.155 481.962 681.547 481.705C681.939 481.435 682.362 481.264 682.816 481.19C682.362 481.092 681.933 480.908 681.529 480.639C681.124 480.357 680.781 480.02 680.499 479.628C680.23 479.235 680.009 478.812 679.837 478.359C679.678 477.905 679.598 477.47 679.598 477.054V469.148C679.598 467.089 678.575 466.059 676.528 466.059H674.818V464.018H676.528C677.276 464.018 677.962 464.153 678.587 464.423C679.212 464.68 679.758 465.036 680.224 465.489C680.689 465.943 681.045 466.482 681.29 467.107C681.547 467.732 681.676 468.412 681.676 469.148V477.054C681.676 479.113 682.804 480.142 685.059 480.142V482.201Z" fill="#FF16B0"/>
<circle cx="308.04" cy="482.396" r="27.577" stroke="#FF16B0" stroke-width="1.7102"/>
<circle cx="308.254" cy="482.61" r="31.6387" stroke="#FF16B0" stroke-width="1.7102"/>
<path d="M314.971 470.913L300.887 499.282L299.086 498.326L313.169 469.976L314.971 470.913Z" fill="#FF16B0"/>
<circle cx="215.2" cy="482.396" r="27.577" stroke="#FF16B0" stroke-width="1.7102"/>
<circle cx="215.414" cy="482.61" r="31.6387" stroke="#FF16B0" stroke-width="1.7102"/>
<path d="M217.49 494.87H214.071V491.45H217.49V494.87ZM223.925 476.08C223.925 477.036 223.747 477.875 223.392 478.599C223.049 479.309 222.614 479.965 222.087 480.566C221.56 481.166 220.983 481.73 220.358 482.257C219.733 482.784 219.157 483.33 218.63 483.894C218.103 484.457 217.662 485.076 217.306 485.75C216.951 486.412 216.773 487.166 216.773 488.012H214.107C214.107 487.056 214.285 486.204 214.64 485.456C215.008 484.709 215.456 484.01 215.983 483.36C216.51 482.698 217.092 482.08 217.729 481.503C218.379 480.927 218.967 480.357 219.494 479.794C220.021 479.23 220.463 478.648 220.818 478.047C221.186 477.434 221.37 476.778 221.37 476.08C221.37 475.001 221.039 474.155 220.377 473.543C219.715 472.93 218.753 472.623 217.49 472.623C216.718 472.623 216.038 472.752 215.449 473.009C214.873 473.255 214.383 473.592 213.979 474.021C213.586 474.437 213.268 474.94 213.023 475.528C212.79 476.117 212.636 476.766 212.563 477.477L210.302 477.128C210.522 475.069 211.227 473.444 212.416 472.256C213.617 471.067 215.296 470.472 217.453 470.472C219.488 470.472 221.075 470.993 222.215 472.035C223.355 473.077 223.925 474.425 223.925 476.08Z" fill="#FF16B0"/>
<circle cx="122.364" cy="482.396" r="27.577" stroke="#FF16B0" stroke-width="1.7102"/>
<circle cx="122.578" cy="482.61" r="31.6387" stroke="#FF16B0" stroke-width="1.7102"/>
<path d="M123.895 467.438L122.957 484.684H121.45L120.512 467.438H123.895ZM123.932 491.431H120.512V488.011H123.932V491.431Z" fill="#FF16B0"/>
<circle cx="493.713" cy="482.396" r="27.577" stroke="#FF16B0" stroke-width="1.7102"/>
<circle cx="493.927" cy="482.61" r="31.6387" stroke="#FF16B0" stroke-width="1.7102"/>
<path d="M497.758 482.763C497.758 484.417 497.574 486.047 497.206 487.653C496.839 489.259 496.299 490.803 495.589 492.286C494.89 493.769 494.032 495.161 493.015 496.46C492.01 497.771 490.851 498.942 489.54 499.971L488.216 498.317C489.38 497.385 490.416 496.325 491.323 495.136C492.242 493.959 493.021 492.703 493.658 491.367C494.308 490.019 494.792 488.621 495.111 487.175C495.441 485.717 495.607 484.246 495.607 482.763C495.607 481.28 495.441 479.803 495.111 478.332C494.792 476.861 494.308 475.457 493.658 474.121C493.021 472.773 492.242 471.511 491.323 470.334C490.416 469.157 489.38 468.103 488.216 467.172L489.54 465.517C490.851 466.547 492.01 467.717 493.015 469.029C494.032 470.328 494.89 471.719 495.589 473.202C496.299 474.673 496.839 476.224 497.206 477.854C497.574 479.472 497.758 481.108 497.758 482.763Z" fill="#FF16B0"/>
<circle cx="400.875" cy="482.396" r="27.577" stroke="#FF16B0" stroke-width="1.7102"/>
<circle cx="401.09" cy="482.61" r="31.6387" stroke="#FF16B0" stroke-width="1.7102"/>
<path d="M401.947 499.972C400.635 498.942 399.471 497.771 398.453 496.46C397.436 495.161 396.584 493.77 395.898 492.286C395.211 490.803 394.684 489.253 394.317 487.635C393.949 486.017 393.765 484.381 393.765 482.726C393.765 481.071 393.949 479.441 394.317 477.836C394.684 476.218 395.211 474.673 395.898 473.202C396.584 471.719 397.436 470.328 398.453 469.029C399.471 467.717 400.635 466.547 401.947 465.517L403.27 467.172C402.106 468.104 401.064 469.158 400.145 470.334C399.238 471.511 398.466 472.773 397.828 474.122C397.203 475.458 396.725 476.855 396.394 478.314C396.076 479.772 395.916 481.243 395.916 482.726C395.916 484.234 396.076 485.717 396.394 487.175C396.725 488.622 397.203 490.013 397.828 491.349C398.466 492.673 399.232 493.929 400.126 495.118C401.033 496.319 402.081 497.385 403.27 498.317L401.947 499.972Z" fill="#FF16B0"/>
<circle cx="586.549" cy="482.396" r="27.577" fill="#FF16B0" fill-opacity="0.31" stroke="#FF16B0" stroke-width="1.7102"/>
<circle cx="586.763" cy="482.61" r="31.6387" stroke="#FF16B0" stroke-width="1.7102"/>
<path d="M588.696 498.289H587.004C586.256 498.289 585.564 498.154 584.927 497.885C584.301 497.627 583.762 497.272 583.309 496.818C582.867 496.365 582.518 495.819 582.261 495.182C582.016 494.545 581.893 493.846 581.893 493.086V485.291C581.893 483.231 580.747 482.202 578.455 482.202V480.143C580.747 480.143 581.893 479.113 581.893 477.054V469.148C581.893 468.388 582.016 467.696 582.261 467.071C582.518 466.445 582.867 465.906 583.309 465.453C583.762 464.999 584.301 464.65 584.927 464.405C585.564 464.147 586.256 464.019 587.004 464.019H588.696V466.059H587.004C584.92 466.059 583.879 467.089 583.879 469.148V477.054C583.879 477.471 583.799 477.906 583.64 478.359C583.48 478.813 583.26 479.236 582.978 479.628C582.708 480.02 582.377 480.363 581.985 480.657C581.593 480.939 581.17 481.117 580.716 481.191C581.17 481.264 581.587 481.442 581.967 481.724C582.346 481.993 582.677 482.324 582.959 482.717C583.253 483.109 583.48 483.532 583.64 483.985C583.799 484.426 583.879 484.862 583.879 485.291V493.086C583.879 495.17 584.92 496.211 587.004 496.211H588.696V498.289Z" fill="#FF16B0"/>
<circle cx="957.897" cy="482.396" r="27.577" stroke="#FF16B0" stroke-width="1.7102"/>
<circle cx="958.111" cy="482.61" r="31.6387" stroke="#FF16B0" stroke-width="1.7102"/>
<path d="M966.323 482.85H958.822V490.333H956.689V482.85H949.188V480.699H956.689V473.216H958.822V480.699H966.323V482.85Z" fill="#FF16B0"/>
<circle cx="1050.74" cy="482.396" r="27.577" fill="#FF16B0" fill-opacity="0.31" stroke="#FF16B0" stroke-width="1.7102"/>
<circle cx="1050.95" cy="482.61" r="31.6387" stroke="#FF16B0" stroke-width="1.7102"/>
<path d="M1060.15 480.329H1043.02V478.141H1060.15V480.329ZM1060.15 488.419H1043.02V486.268H1060.15V488.419Z" fill="#FF16B0"/>
<circle cx="169.041" cy="32.396" r="27.577" stroke="#FF16B0" stroke-width="1.7102"/>
<circle cx="169.256" cy="32.6095" r="31.6387" stroke="#FF16B0" stroke-width="1.7102"/>
<path d="M173.396 44.3657H163.119V42.2146H166.998V25.8332C166.777 26.3358 166.428 26.8751 165.95 27.4511C165.472 28.015 164.908 28.5359 164.259 29.0139C163.609 29.4797 162.892 29.8719 162.108 30.1906C161.335 30.5092 160.533 30.6686 159.699 30.6686V28.0579C160.447 28.0579 161.25 27.825 162.108 27.3592C162.966 26.8934 163.756 26.299 164.479 25.5758C165.202 24.8527 165.803 24.0314 166.281 23.1122C166.759 22.1929 166.998 21.2798 166.998 20.3728H169.535V42.2146H173.396V44.3657Z" fill="#FF16B0"/>
<circle cx="261.534" cy="32.396" r="27.577" stroke="#FF16B0" stroke-width="1.7102"/>
<circle cx="261.748" cy="32.6095" r="31.6387" stroke="#FF16B0" stroke-width="1.7102"/>
<path d="M268.424 27.8487C268.424 28.5106 268.362 29.1051 268.24 29.6321C268.13 30.1592 267.921 30.6924 267.615 31.2317C267.321 31.771 266.928 32.3409 266.438 32.9415C265.948 33.5421 265.329 34.2285 264.581 35.0007L256.216 43.4763H266.346V38.7697H268.497V45.6274H252.906V43.4028L262.246 33.9159C262.724 33.4379 263.178 32.9599 263.607 32.4819C264.048 32.0038 264.44 31.5197 264.783 31.0294C265.127 30.5391 265.396 30.0305 265.592 29.5034C265.788 28.9764 265.886 28.4248 265.886 27.8487C265.886 26.3779 265.396 25.2687 264.416 24.521C263.447 23.761 262.246 23.3811 260.812 23.3811C258.802 23.3811 257.282 23.9388 256.253 25.0542C255.223 26.1695 254.708 27.7813 254.708 29.8895H252.373C252.373 27.1807 253.096 25.0603 254.543 23.5282C255.989 21.996 258.079 21.23 260.812 21.23C261.842 21.23 262.81 21.3832 263.717 21.6896C264.636 21.9838 265.445 22.4128 266.144 22.9766C266.855 23.5404 267.412 24.2329 267.817 25.0542C268.221 25.8631 268.424 26.7946 268.424 27.8487Z" fill="#FF16B0"/>
<circle cx="354.03" cy="32.396" r="27.577" stroke="#FF16B0" stroke-width="1.7102"/>
<circle cx="354.244" cy="32.6095" r="31.6387" stroke="#FF16B0" stroke-width="1.7102"/>
<path d="M360.34 39.0087C360.34 40.0628 360.126 41.025 359.697 41.8952C359.268 42.7532 358.692 43.4886 357.969 44.1015C357.258 44.7143 356.43 45.1923 355.487 45.5355C354.555 45.8787 353.574 46.0503 352.545 46.0503C351.38 46.0503 350.296 45.891 349.291 45.5723C348.298 45.2536 347.415 44.7878 346.643 44.175C345.883 43.5621 345.264 42.79 344.786 41.8584C344.308 40.9269 344.02 39.8605 343.922 38.6594L346.367 38.3284C346.514 40.1792 347.158 41.5704 348.298 42.5019C349.438 43.4334 350.853 43.8992 352.545 43.8992C353.268 43.8992 353.948 43.7828 354.586 43.5499C355.223 43.3048 355.781 42.9616 356.259 42.5203C356.737 42.0791 357.111 41.5643 357.38 40.9759C357.662 40.3876 357.803 39.7319 357.803 39.0087C357.803 38.0281 357.644 37.2314 357.325 36.6186C357.019 35.9935 356.571 35.5093 355.983 35.1661C355.395 34.8107 354.665 34.5717 353.795 34.4491C352.937 34.3265 351.938 34.2653 350.798 34.2653V32.1142C351.632 32.1142 352.435 32.0467 353.207 31.9119C353.991 31.7648 354.69 31.532 355.303 31.2133C355.916 30.8823 356.412 30.4472 356.792 29.9079C357.172 29.3686 357.362 28.6822 357.362 27.8487C357.362 26.5005 356.914 25.4219 356.02 24.6129C355.125 23.7917 353.967 23.3811 352.545 23.3811C350.755 23.3811 349.321 23.853 348.243 24.7968C347.164 25.7283 346.625 27.1991 346.625 29.2093H344.253C344.253 27.9591 344.455 26.8375 344.86 25.8447C345.264 24.8519 345.828 24.0184 346.551 23.3443C347.274 22.6579 348.145 22.137 349.162 21.7816C350.179 21.4138 351.307 21.23 352.545 21.23C353.574 21.23 354.53 21.3832 355.413 21.6896C356.308 21.9838 357.086 22.4128 357.748 22.9766C358.422 23.5404 358.943 24.2329 359.311 25.0542C359.691 25.8631 359.881 26.7946 359.881 27.8487C359.881 29.2093 359.47 30.343 358.649 31.25C357.84 32.1448 356.682 32.7086 355.174 32.9415C356.032 33.0641 356.78 33.3092 357.417 33.6769C358.054 34.0324 358.588 34.492 359.017 35.0558C359.446 35.6074 359.77 36.2202 359.991 36.8944C360.224 37.5685 360.34 38.2733 360.34 39.0087Z" fill="#FF16B0"/>
<circle cx="446.524" cy="32.396" r="27.577" stroke="#FF16B0" stroke-width="1.7102"/>
<circle cx="446.738" cy="32.6095" r="31.6387" stroke="#FF16B0" stroke-width="1.7102"/>
<path d="M453.684 44.3657H443.406V42.2146H447.286V37.508H436.549V35.3201L446.606 20.3728H449.805V35.3201H453.684V37.508H449.805V42.2146H453.684V44.3657ZM447.286 35.3201V23.3512L439.215 35.3201H447.286Z" fill="#FF16B0"/>
<circle cx="539.02" cy="32.396" r="27.577" stroke="#FF16B0" stroke-width="1.7102"/>
<circle cx="539.234" cy="32.6095" r="31.6387" stroke="#FF16B0" stroke-width="1.7102"/>
<path d="M546.921 38.206C546.921 39.3826 546.701 40.4858 546.259 41.5154C545.818 42.5449 545.211 43.4458 544.439 44.218C543.679 44.9779 542.76 45.5785 541.681 46.0198C540.603 46.461 539.426 46.6817 538.151 46.6817C536.999 46.6817 535.933 46.5101 534.952 46.1669C533.972 45.8237 533.108 45.3334 532.36 44.696C531.625 44.0587 531.03 43.2742 530.577 42.3427C530.123 41.4112 529.847 40.3448 529.749 39.1436L532.194 38.7575C532.268 39.591 532.464 40.3693 532.783 41.0925C533.101 41.8034 533.518 42.4101 534.033 42.9126C534.548 43.4152 535.155 43.8135 535.853 44.1077C536.552 44.3896 537.318 44.5306 538.151 44.5306C539.132 44.5306 540.002 44.3712 540.762 44.0525C541.534 43.7216 542.19 43.2681 542.729 42.692C543.269 42.1037 543.679 41.4296 543.961 40.6696C544.255 39.8974 544.402 39.0762 544.402 38.206C544.402 37.299 544.255 36.4594 543.961 35.6872C543.679 34.9027 543.275 34.2286 542.748 33.6648C542.221 33.101 541.571 32.6597 540.799 32.341C540.039 32.0101 539.193 31.8446 538.262 31.8446C537.281 31.8446 536.337 32.053 535.43 32.4697C534.536 32.8742 533.757 33.4687 533.095 34.2531H530.577V22.2658H545.597V24.4169H533.095V31.9182C533.831 31.2073 534.664 30.6618 535.596 30.2819C536.54 29.8896 537.502 29.6935 538.482 29.6935C539.72 29.6935 540.854 29.8958 541.884 30.3002C542.913 30.6925 543.802 31.2563 544.549 31.9917C545.297 32.7149 545.879 33.6035 546.296 34.6576C546.713 35.7117 546.921 36.8945 546.921 38.206Z" fill="#FF16B0"/>
<circle cx="631.512" cy="32.396" r="27.577" stroke="#FF16B0" stroke-width="1.7102"/>
<circle cx="631.726" cy="32.6095" r="31.6387" stroke="#FF16B0" stroke-width="1.7102"/>
<path d="M639.154 36.8335C639.154 38.1572 638.933 39.3461 638.492 40.4002C638.063 41.4543 637.456 42.3552 636.672 43.1029C635.9 43.8383 634.981 44.4082 633.914 44.8127C632.848 45.2172 631.696 45.4194 630.458 45.4194C628.754 45.4194 627.326 45.0763 626.174 44.3899C625.022 43.6912 624.09 42.7719 623.379 41.6321C622.681 40.4922 622.172 39.1745 621.853 37.6792C621.547 36.1838 621.394 34.6333 621.394 33.0277C621.394 31.3975 621.602 29.8347 622.019 28.3394C622.448 26.844 623.085 25.5203 623.931 24.3681C624.777 23.2037 625.831 22.2845 627.093 21.6103C628.368 20.9362 629.857 20.5991 631.561 20.5991C633.939 20.5991 635.918 21.4265 637.499 23.0812L635.845 24.552C634.742 23.3508 633.314 22.7502 631.561 22.7502C630.274 22.7502 629.134 22.9954 628.141 23.4856C627.161 23.9759 626.339 24.6623 625.678 25.5448C625.028 26.4151 624.538 27.4691 624.207 28.7071C623.888 29.9328 623.729 31.2811 623.729 32.7519C623.9 32.1268 624.225 31.5385 624.703 30.9869C625.181 30.4353 625.733 29.9634 626.358 29.5712C626.983 29.1667 627.657 28.8481 628.38 28.6152C629.116 28.37 629.851 28.2475 630.586 28.2475C631.837 28.2475 632.989 28.462 634.043 28.891C635.097 29.3077 635.998 29.896 636.746 30.656C637.505 31.4036 638.094 32.3045 638.511 33.3586C638.94 34.4127 639.154 35.571 639.154 36.8335ZM636.635 36.8335C636.635 35.9264 636.494 35.0807 636.212 34.2963C635.943 33.4996 635.55 32.8132 635.036 32.2371C634.521 31.661 633.884 31.2075 633.124 30.8766C632.376 30.5456 631.53 30.3802 630.586 30.3802C629.655 30.3802 628.797 30.5334 628.012 30.8398C627.24 31.1462 626.578 31.5752 626.027 32.1268C625.475 32.6784 625.046 33.3341 624.74 34.094C624.446 34.8417 624.299 35.6752 624.299 36.5944C624.299 37.5015 624.421 38.3594 624.666 39.1684C624.911 39.9651 625.291 40.6699 625.806 41.2827C626.321 41.8956 626.958 42.3797 627.718 42.7352C628.49 43.0906 629.404 43.2684 630.458 43.2684C631.365 43.2684 632.192 43.1213 632.94 42.8271C633.7 42.5207 634.355 42.0917 634.907 41.5401C635.459 40.9886 635.881 40.3083 636.176 39.4993C636.482 38.6904 636.635 37.8018 636.635 36.8335Z" fill="#FF16B0"/>
<circle cx="724.008" cy="32.396" r="27.577" stroke="#FF16B0" stroke-width="1.7102"/>
<circle cx="724.222" cy="32.6095" r="31.6387" stroke="#FF16B0" stroke-width="1.7102"/>
<path d="M730.948 24.4905C729.44 26.1206 728.233 27.7263 727.326 29.3074C726.419 30.8886 725.72 32.5433 725.23 34.2715C724.74 35.9875 724.409 37.826 724.237 39.7871C724.065 41.736 723.967 43.8932 723.943 46.2588H721.295C721.32 44.028 721.436 41.926 721.645 39.9526C721.865 37.9792 722.245 36.0978 722.785 34.3083C723.324 32.5065 724.059 30.7905 724.991 29.1603C725.922 27.5302 727.099 25.949 728.521 24.4169H717.085V29.1236H714.934V22.2658H730.948V24.4905Z" fill="#FF16B0"/>
<circle cx="816.502" cy="32.396" r="27.577" stroke="#FF16B0" stroke-width="1.7102"/>
<circle cx="816.716" cy="32.6095" r="31.6387" stroke="#FF16B0" stroke-width="1.7102"/>
<path d="M825.741 38.2491C825.741 39.5116 825.514 40.5902 825.061 41.4849C824.607 42.3674 823.982 43.1029 823.185 43.6912C822.401 44.2795 821.476 44.7146 820.409 44.9966C819.343 45.2785 818.209 45.4194 817.008 45.4194C815.782 45.4194 814.642 45.2785 813.588 44.9966C812.534 44.7146 811.609 44.2795 810.812 43.6912C810.028 43.1029 809.409 42.3674 808.955 41.4849C808.502 40.5902 808.275 39.5116 808.275 38.2491C808.275 37.5995 808.391 36.9437 808.624 36.2819C808.869 35.62 809.212 35.0071 809.654 34.4433C810.107 33.8672 810.653 33.3954 811.29 33.0276C811.94 32.6477 812.651 32.4087 813.423 32.3106C812.749 32.2371 812.148 32.0164 811.621 31.6487C811.094 31.281 810.647 30.852 810.279 30.3618C809.923 29.8715 809.641 29.3383 809.433 28.7622C809.237 28.1861 809.139 27.6346 809.139 27.1075C809.139 26.0289 809.353 25.0851 809.782 24.2762C810.211 23.455 810.788 22.7747 811.511 22.2354C812.234 21.6961 813.073 21.2916 814.029 21.022C814.986 20.7401 815.978 20.5991 817.008 20.5991C818.037 20.5991 819.03 20.7401 819.986 21.022C820.942 21.2916 821.782 21.6961 822.505 22.2354C823.228 22.7747 823.804 23.455 824.233 24.2762C824.662 25.0851 824.877 26.0289 824.877 27.1075C824.877 27.6346 824.773 28.1861 824.564 28.7622C824.368 29.3383 824.086 29.8715 823.719 30.3618C823.363 30.852 822.916 31.281 822.376 31.6487C821.837 32.0164 821.224 32.2371 820.538 32.3106C821.322 32.4087 822.033 32.6477 822.671 33.0276C823.308 33.3954 823.853 33.8672 824.307 34.4433C824.76 35.0071 825.11 35.62 825.355 36.2819C825.612 36.9437 825.741 37.5995 825.741 38.2491ZM822.358 27.1075C822.358 25.7593 821.88 24.699 820.924 23.9269C819.968 23.1424 818.663 22.7502 817.008 22.7502C815.353 22.7502 814.048 23.1424 813.092 23.9269C812.136 24.699 811.658 25.7593 811.658 27.1075C811.658 28.37 812.111 29.3751 813.018 30.1227C813.925 30.8704 815.255 31.2443 817.008 31.2443C818.761 31.2443 820.091 30.8704 820.998 30.1227C821.905 29.3751 822.358 28.37 822.358 27.1075ZM823.222 38.2491C823.222 37.3789 823.051 36.6373 822.707 36.0245C822.376 35.3994 821.917 34.8968 821.328 34.5169C820.752 34.1246 820.097 33.8427 819.361 33.6711C818.626 33.4873 817.841 33.3954 817.008 33.3954C816.174 33.3954 815.39 33.4873 814.655 33.6711C813.919 33.8427 813.257 34.1246 812.669 34.5169C812.093 34.8968 811.633 35.3994 811.29 36.0245C810.959 36.6373 810.794 37.3789 810.794 38.2491C810.794 39.1071 810.959 39.8486 811.29 40.4737C811.633 41.0988 812.093 41.6198 812.669 42.0365C813.257 42.4532 813.919 42.7658 814.655 42.9742C815.39 43.1703 816.174 43.2683 817.008 43.2683C817.841 43.2683 818.626 43.1703 819.361 42.9742C820.097 42.7658 820.752 42.4532 821.328 42.0365C821.917 41.6198 822.376 41.0988 822.707 40.4737C823.051 39.8486 823.222 39.1071 823.222 38.2491Z" fill="#FF16B0"/>
<circle cx="908.998" cy="32.396" r="27.577" stroke="#FF16B0" stroke-width="1.7102"/>
<circle cx="909.213" cy="32.6095" r="31.6387" stroke="#FF16B0" stroke-width="1.7102"/>
<path d="M899.862 29.1851C899.862 27.8491 900.083 26.6541 900.524 25.6C900.965 24.5459 901.572 23.6511 902.344 22.9157C903.129 22.168 904.054 21.5981 905.12 21.2058C906.187 20.8014 907.339 20.5991 908.577 20.5991C910.256 20.5991 911.678 20.9485 912.842 21.6471C914.007 22.3335 914.938 23.2528 915.637 24.4049C916.348 25.5571 916.856 26.8747 917.163 28.3578C917.482 29.8409 917.641 31.3852 917.641 32.9909C917.641 34.6211 917.426 36.1838 916.997 37.6792C916.568 39.1745 915.931 40.4983 915.085 41.6504C914.252 42.8026 913.192 43.7219 911.905 44.4082C910.63 45.0824 909.153 45.4194 907.474 45.4194C905.096 45.4194 903.116 44.586 901.535 42.919L903.19 41.4482C903.742 42.061 904.379 42.5207 905.102 42.8271C905.837 43.1213 906.628 43.2684 907.474 43.2684C908.761 43.2684 909.888 43.0232 910.857 42.5329C911.837 42.0427 912.658 41.3624 913.32 40.4922C913.994 39.6097 914.491 38.5556 914.81 37.3299C915.14 36.0919 915.306 34.7314 915.306 33.2483C915.11 33.8734 914.779 34.4617 914.313 35.0133C913.847 35.5649 913.302 36.0429 912.677 36.4474C912.052 36.8518 911.365 37.1767 910.618 37.4218C909.882 37.6547 909.159 37.7711 908.448 37.7711C907.198 37.7711 906.046 37.5566 904.992 37.1276C903.938 36.6986 903.031 36.1103 902.271 35.3626C901.523 34.6027 900.935 33.6957 900.506 32.6416C900.077 31.5875 899.862 30.4353 899.862 29.1851ZM902.399 29.1851C902.399 30.0921 902.534 30.944 902.804 31.7407C903.086 32.5251 903.484 33.2054 903.999 33.7815C904.514 34.3576 905.145 34.8111 905.893 35.142C906.653 35.4607 907.504 35.62 908.448 35.62C909.38 35.62 910.232 35.4729 911.004 35.1788C911.788 34.8723 912.456 34.4495 913.008 33.9102C913.559 33.3709 913.982 32.7213 914.276 31.9613C914.583 31.1891 914.736 30.3373 914.736 29.4057C914.736 28.4987 914.607 27.6469 914.35 26.8502C914.105 26.0412 913.725 25.3303 913.21 24.7175C912.707 24.1046 912.07 23.6266 911.298 23.2834C910.538 22.928 909.631 22.7502 908.577 22.7502C907.67 22.7502 906.836 22.9034 906.076 23.2099C905.329 23.504 904.679 23.9269 904.128 24.4785C903.576 25.03 903.147 25.7103 902.841 26.5192C902.546 27.3159 902.399 28.2046 902.399 29.1851Z" fill="#FF16B0"/>
<circle cx="1001.49" cy="32.396" r="27.577" stroke="#FF16B0" stroke-width="1.7102"/>
<circle cx="1001.7" cy="32.6095" r="31.6387" stroke="#FF16B0" stroke-width="1.7102"/>
<path d="M994.691 33.0277C994.691 34.8049 994.906 36.4719 995.335 38.0285L1006.57 26.1699C1005.98 25.0668 1005.25 24.2211 1004.38 23.6327C1003.52 23.0444 1002.52 22.7502 1001.37 22.7502C999.208 22.7502 997.553 23.6695 996.401 25.508C995.261 27.3343 994.691 29.8409 994.691 33.0277ZM996.199 40.0693C997.412 42.2265 999.134 43.3051 1001.37 43.3051C1003.47 43.3051 1005.11 42.392 1006.27 40.5657C1007.44 38.7272 1008.02 36.2145 1008.02 33.0277C1008.02 32.1452 1007.97 31.3117 1007.86 30.5273C1007.74 29.7306 1007.59 28.9706 1007.4 28.2475L996.199 40.0693ZM992.172 33.0277C992.172 31.422 992.344 29.8715 992.687 28.3762C993.03 26.8808 993.564 25.5571 994.287 24.4049C995.01 23.2528 995.954 22.3335 997.118 21.6471C998.295 20.9485 999.71 20.5991 1001.37 20.5991C1003.02 20.5991 1004.43 20.9485 1005.59 21.6471C1006.77 22.3335 1007.73 23.2528 1008.46 24.4049C1009.2 25.5571 1009.73 26.8808 1010.06 28.3762C1010.39 29.8715 1010.56 31.422 1010.56 33.0277C1010.56 34.6333 1010.39 36.1838 1010.06 37.6792C1009.73 39.1745 1009.2 40.4922 1008.48 41.6321C1007.76 42.7719 1006.81 43.6912 1005.63 44.3899C1004.47 45.0763 1003.04 45.4194 1001.37 45.4194C999.686 45.4194 998.258 45.0763 997.081 44.3899C995.917 43.6912 994.967 42.7719 994.232 41.6321C993.508 40.4922 992.988 39.1745 992.669 37.6792C992.338 36.1838 992.172 34.6333 992.172 33.0277Z" fill="#FF16B0"/>
<circle cx="215.456" cy="310.736" r="27.577" stroke="#FF16B0" stroke-width="1.7102"/>
<circle cx="215.67" cy="310.949" r="31.6387" stroke="#FF16B0" stroke-width="1.7102"/>
<path d="M215.011 312.949C214.006 312.875 213.074 312.667 212.216 312.324C211.37 311.98 210.635 311.527 210.01 310.963C209.397 310.399 208.913 309.719 208.557 308.922C208.214 308.113 208.043 307.206 208.043 306.201C208.043 303.921 208.766 302.212 210.212 301.072C211.658 299.92 213.699 299.343 216.334 299.343H224.24V323.336H221.703V313.059H217.989L210.984 323.336H207.785L215.011 312.949ZM210.635 306.201C210.635 307.856 211.144 309.057 212.161 309.805C213.178 310.54 214.569 310.908 216.334 310.908H221.703V301.495H216.334C214.569 301.495 213.178 301.875 212.161 302.634C211.144 303.382 210.635 304.571 210.635 306.201Z" fill="#FF16B0"/>
<circle cx="307.952" cy="310.736" r="27.577" stroke="#FF16B0" stroke-width="1.7102"/>
<circle cx="308.166" cy="310.949" r="31.6387" stroke="#FF16B0" stroke-width="1.7102"/>
<path d="M298.877 298.713H301.396V309.303C301.396 310.835 301.727 312.024 302.389 312.869C303.063 313.703 304.142 314.12 305.625 314.12C306.556 314.12 307.396 313.905 308.144 313.476C308.891 313.047 309.529 312.477 310.056 311.766C310.583 311.055 310.981 310.234 311.251 309.303C311.533 308.371 311.674 307.403 311.674 306.398V298.713H314.211V322.706H311.674V311.564C310.472 314.702 308.315 316.271 305.202 316.271C300.986 316.271 298.877 313.948 298.877 309.303V298.713Z" fill="#FF16B0"/>
<circle cx="400.446" cy="310.736" r="27.577" stroke="#FF16B0" stroke-width="1.7102"/>
<circle cx="400.66" cy="310.95" r="31.6387" stroke="#FF16B0" stroke-width="1.7102"/>
<path d="M409.017 317.049C408.391 319.108 407.368 320.732 405.946 321.921C404.524 323.11 402.735 323.705 400.578 323.705C398.898 323.705 397.477 323.368 396.312 322.693C395.148 322.019 394.192 321.112 393.444 319.972C392.709 318.832 392.176 317.515 391.845 316.02C391.526 314.524 391.367 312.974 391.367 311.368C391.367 309.762 391.526 308.212 391.845 306.716C392.176 305.221 392.709 303.897 393.444 302.745C394.192 301.593 395.148 300.674 396.312 299.987C397.477 299.289 398.898 298.939 400.578 298.939C402.061 298.939 403.329 299.203 404.383 299.73C405.438 300.257 406.216 301.06 406.718 302.139V299.344H408.869V307.213H406.718C406.718 306.367 406.553 305.57 406.222 304.823C405.903 304.063 405.468 303.407 404.917 302.856C404.365 302.304 403.709 301.875 402.949 301.569C402.202 301.25 401.411 301.091 400.578 301.091C399.278 301.091 398.2 301.397 397.342 302.01C396.496 302.623 395.816 303.426 395.301 304.418C394.786 305.411 394.419 306.514 394.198 307.728C393.99 308.941 393.885 310.155 393.885 311.368C393.885 312.569 393.99 313.783 394.198 315.008C394.419 316.222 394.786 317.313 395.301 318.281C395.816 319.237 396.496 320.028 397.342 320.653C398.2 321.265 399.278 321.572 400.578 321.572C403.568 321.572 405.652 319.776 406.829 316.185L409.017 317.049Z" fill="#FF16B0"/>
<circle cx="492.942" cy="310.736" r="27.577" stroke="#FF16B0" stroke-width="1.7102"/>
<circle cx="493.156" cy="310.949" r="31.6387" stroke="#FF16B0" stroke-width="1.7102"/>
<path d="M501.724 322.706H499.187V302.721L494.94 315.094H493.138L488.91 302.721V322.706H486.391V298.713H489.664L494.039 311.252L498.452 298.713H501.724V322.706Z" fill="#FF16B0"/>
<circle cx="585.434" cy="310.736" r="27.577" fill="#FF16B0" fill-opacity="0.31" stroke="#FF16B0" stroke-width="1.7102"/>
<circle cx="585.648" cy="310.949" r="31.6387" stroke="#FF16B0" stroke-width="1.7102"/>
<path d="M576.362 298.713H578.881V318.072L588.147 298.713H591.695V322.706H589.158V302.408L579.487 322.706H576.362V298.713Z" fill="#FF16B0"/>
<circle cx="677.93" cy="310.736" r="27.577" fill="#FF16B0" fill-opacity="0.31" stroke="#FF16B0" stroke-width="1.7102"/>
<circle cx="678.144" cy="310.949" r="31.6387" stroke="#FF16B0" stroke-width="1.7102"/>
<path d="M685.092 307.451H682.941V301.495H677.793V321.185H681.654V323.336H671.377V321.185H675.256V301.495H670.108V307.451H667.957V299.343H685.092V307.451Z" fill="#FF16B0"/>
<circle cx="770.426" cy="310.736" r="27.577" stroke="#FF16B0" stroke-width="1.7102"/>
<circle cx="770.64" cy="310.949" r="31.6387" stroke="#FF16B0" stroke-width="1.7102"/>
<path d="M776.292 315.921C776.292 314.365 775.772 313.182 774.73 312.373C773.688 311.552 772.297 311.141 770.556 311.141H765.132V320.554H770.556C772.297 320.554 773.688 320.168 774.73 319.396C775.772 318.612 776.292 317.453 776.292 315.921ZM765.132 309.008H770.556C773.167 309.008 775.195 309.585 776.642 310.737C778.088 311.889 778.811 313.617 778.811 315.921C778.811 318.213 778.088 319.917 776.642 321.032C775.195 322.148 773.155 322.706 770.519 322.706H762.614V298.713H765.132V309.008Z" fill="#FF16B0"/>
<circle cx="862.922" cy="310.96" r="27.577" stroke="#FF16B0" stroke-width="1.7102"/>
<circle cx="863.136" cy="311.173" r="31.6387" stroke="#FF16B0" stroke-width="1.7102"/>
<path d="M868.79 316.037C868.79 314.48 868.27 313.298 867.228 312.489C866.186 311.667 864.795 311.257 863.054 311.257H857.631V320.67H863.054C864.795 320.67 866.186 320.284 867.228 319.512C868.27 318.727 868.79 317.569 868.79 316.037ZM857.631 309.124H863.054C865.665 309.124 867.693 309.7 869.14 310.852C870.586 312.005 871.309 313.733 871.309 316.037C871.309 318.329 870.586 320.033 869.14 321.148C867.693 322.264 865.653 322.821 863.017 322.821H855.112V298.828H870.445V300.979H857.631V309.124Z" fill="#FF16B0"/>
<circle cx="955.413" cy="310.96" r="27.577" stroke="#FF16B0" stroke-width="1.7102"/>
<circle cx="955.627" cy="311.173" r="31.6387" stroke="#FF16B0" stroke-width="1.7102"/>
<path d="M947.094 298.828H949.613V309.749H952.775C952.935 302.199 954.706 298.424 958.089 298.424C961.631 298.424 963.402 302.567 963.402 310.852C963.402 319.114 961.631 323.244 958.089 323.244C954.706 323.244 952.935 319.463 952.775 311.9H949.613V322.821H947.094V298.828ZM958.089 321.093C958.665 321.093 959.137 320.842 959.504 320.339C959.872 319.837 960.154 319.132 960.35 318.225C960.546 317.318 960.681 316.239 960.755 314.989C960.84 313.739 960.883 312.36 960.883 310.852C960.883 309.345 960.84 307.96 960.755 306.697C960.681 305.423 960.546 304.338 960.35 303.443C960.154 302.536 959.872 301.831 959.504 301.329C959.137 300.826 958.665 300.575 958.089 300.575C957.513 300.575 957.041 300.826 956.673 301.329C956.317 301.831 956.036 302.536 955.827 303.443C955.631 304.338 955.496 305.423 955.423 306.697C955.349 307.96 955.312 309.345 955.312 310.852C955.312 312.36 955.349 313.739 955.423 314.989C955.496 316.239 955.631 317.318 955.827 318.225C956.036 319.132 956.317 319.837 956.673 320.339C957.041 320.842 957.513 321.093 958.089 321.093Z" fill="#FF16B0"/>
<circle cx="122.622" cy="218.241" r="27.577" fill="#FF16B0" fill-opacity="0.31" stroke="#FF16B0" stroke-width="1.7102"/>
<circle cx="122.836" cy="218.455" r="31.6387" stroke="#FF16B0" stroke-width="1.7102"/>
<path d="M133.485 218.562C133.485 219.971 133.263 221.279 132.817 222.487C132.386 223.694 131.767 224.758 130.962 225.678C130.171 226.584 129.215 227.325 128.094 227.9C126.987 228.475 125.758 228.834 124.406 228.978V232.687H121.43V228.935C120.079 228.791 118.85 228.432 117.742 227.857C116.65 227.281 115.701 226.548 114.896 225.657C114.105 224.751 113.494 223.694 113.063 222.487C112.646 221.279 112.437 219.971 112.437 218.562C112.437 217.138 112.646 215.823 113.063 214.615C113.494 213.408 114.105 212.344 114.896 211.424C115.701 210.489 116.65 209.741 117.742 209.181C118.85 208.606 120.079 208.225 121.43 208.038V204.544H124.406V208.038C125.758 208.181 126.987 208.548 128.094 209.138C129.215 209.727 130.171 210.482 130.962 211.402C131.767 212.308 132.386 213.372 132.817 214.594C133.263 215.816 133.485 217.138 133.485 218.562ZM130.531 218.562C130.531 217.555 130.387 216.606 130.1 215.715C129.826 214.809 129.431 214.004 128.913 213.3C128.41 212.595 127.77 212.013 126.994 211.553C126.232 211.093 125.37 210.777 124.406 210.604V226.368C126.347 226.052 127.85 225.182 128.913 223.759C129.992 222.321 130.531 220.589 130.531 218.562ZM115.392 218.562C115.392 220.589 115.909 222.321 116.945 223.759C117.994 225.182 119.489 226.052 121.43 226.368V210.604C120.467 210.777 119.604 211.1 118.842 211.574C118.095 212.049 117.462 212.631 116.945 213.321C116.441 214.011 116.053 214.809 115.78 215.715C115.521 216.606 115.392 217.555 115.392 218.562Z" fill="#FF16B0"/>
<circle cx="215.118" cy="218.241" r="27.577" stroke="#FF16B0" stroke-width="1.7102"/>
<circle cx="215.332" cy="218.455" r="31.6387" stroke="#FF16B0" stroke-width="1.7102"/>
<path d="M205.773 205.587H208.292V215.882H210.774C212.76 215.882 214.298 216.459 215.389 217.611C216.48 218.763 217.025 220.491 217.025 222.795C217.025 225.087 216.48 226.791 215.389 227.907C214.298 229.022 212.748 229.58 210.737 229.58H205.773V205.587ZM214.506 222.795C214.506 221.239 214.175 220.056 213.514 219.247C212.852 218.426 211.951 218.015 210.811 218.015H208.292V227.428H210.811C211.951 227.428 212.852 227.042 213.514 226.27C214.175 225.486 214.506 224.327 214.506 222.795ZM220.39 205.587H222.909V229.58H220.39V205.587Z" fill="#FF16B0"/>
<circle cx="307.612" cy="218.241" r="27.577" stroke="#FF16B0" stroke-width="1.7102"/>
<circle cx="307.826" cy="218.455" r="31.6387" stroke="#FF16B0" stroke-width="1.7102"/>
<path d="M314.737 223.353C314.737 225.645 313.995 227.361 312.512 228.501C311.029 229.641 308.921 230.211 306.188 230.211H298.539V206.218H305.765C306.77 206.218 307.757 206.304 308.725 206.475C309.693 206.635 310.557 206.941 311.317 207.395C312.09 207.848 312.715 208.479 313.193 209.288C313.671 210.085 313.91 211.133 313.91 212.432C313.91 214.92 312.666 216.618 310.177 217.525C313.217 218.457 314.737 220.399 314.737 223.353ZM311.391 212.432C311.391 211.587 311.213 210.894 310.858 210.355C310.502 209.815 310.049 209.405 309.497 209.123C308.946 208.829 308.339 208.633 307.677 208.535C307.015 208.424 306.378 208.369 305.765 208.369H301.058V216.514H305.765C306.451 216.514 307.125 216.465 307.787 216.367C308.449 216.256 309.044 216.054 309.571 215.76C310.098 215.454 310.533 215.037 310.876 214.51C311.219 213.983 311.391 213.29 311.391 212.432ZM312.218 223.353C312.218 221.698 311.679 220.497 310.6 219.75C309.534 218.99 308.063 218.61 306.188 218.61H301.058V228.06H306.188C308.063 228.06 309.534 227.668 310.6 226.883C311.679 226.086 312.218 224.91 312.218 223.353Z" fill="#FF16B0"/>
<circle cx="400.104" cy="218.241" r="27.577" stroke="#FF16B0" stroke-width="1.7102"/>
<circle cx="400.318" cy="218.455" r="31.6387" stroke="#FF16B0" stroke-width="1.7102"/>
<path d="M409.055 230.211H406.352L404.091 223.353H394.604L392.38 230.211H389.677L397.656 206.218H401.076L409.055 230.211ZM403.374 221.129L399.348 208.755L395.321 221.129H403.374Z" fill="#FF16B0"/>
<circle cx="492.6" cy="218.241" r="27.577" stroke="#FF16B0" stroke-width="1.7102"/>
<circle cx="492.814" cy="218.455" r="31.6387" stroke="#FF16B0" stroke-width="1.7102"/>
<path d="M499.492 230.842H496.955V209H486.677V230.842H484.159V206.849H499.492V230.842Z" fill="#FF16B0"/>
<circle cx="585.096" cy="218.241" r="27.577" fill="#FF16B0" fill-opacity="0.31" stroke="#FF16B0" stroke-width="1.7102"/>
<circle cx="585.31" cy="218.455" r="31.6387" stroke="#FF16B0" stroke-width="1.7102"/>
<path d="M592.852 213.076C592.852 215.392 592.129 217.114 590.683 218.242C589.236 219.37 587.208 219.933 584.597 219.933H579.173V230.211H576.655V206.218H584.56C587.196 206.218 589.236 206.794 590.683 207.946C592.129 209.086 592.852 210.796 592.852 213.076ZM590.333 213.076C590.333 211.421 589.813 210.226 588.771 209.491C587.729 208.743 586.338 208.369 584.597 208.369H579.173V217.782H584.597C586.338 217.782 587.729 217.415 588.771 216.679C589.813 215.932 590.333 214.73 590.333 213.076Z" fill="#FF16B0"/>
<circle cx="677.588" cy="218.241" r="27.577" stroke="#FF16B0" stroke-width="1.7102"/>
<circle cx="677.802" cy="218.455" r="31.6387" stroke="#FF16B0" stroke-width="1.7102"/>
<path d="M686.023 218.242C686.023 219.848 685.857 221.398 685.526 222.894C685.195 224.389 684.668 225.707 683.945 226.846C683.222 227.986 682.272 228.906 681.095 229.604C679.931 230.291 678.509 230.634 676.83 230.634C675.151 230.634 673.723 230.291 672.546 229.604C671.382 228.906 670.432 227.986 669.696 226.846C668.973 225.707 668.452 224.389 668.134 222.894C667.803 221.398 667.637 219.848 667.637 218.242C667.637 216.636 667.803 215.086 668.134 213.591C668.452 212.095 668.979 210.771 669.715 209.619C670.463 208.467 671.419 207.548 672.583 206.861C673.76 206.163 675.175 205.813 676.83 205.813C678.485 205.813 679.894 206.163 681.059 206.861C682.235 207.548 683.185 208.467 683.908 209.619C684.632 210.771 685.165 212.095 685.508 213.591C685.851 215.086 686.023 216.636 686.023 218.242ZM683.486 218.242C683.486 216.661 683.332 215.239 683.026 213.977C682.732 212.702 682.303 211.617 681.739 210.722C681.175 209.828 680.476 209.147 679.643 208.682C678.822 208.204 677.884 207.965 676.83 207.965C675.519 207.965 674.434 208.271 673.576 208.884C672.73 209.497 672.05 210.3 671.535 211.292C671.02 212.285 670.659 213.388 670.45 214.602C670.254 215.815 670.156 217.029 670.156 218.242C670.156 219.443 670.254 220.657 670.45 221.882C670.659 223.096 671.02 224.193 671.535 225.173C672.05 226.142 672.73 226.938 673.576 227.563C674.434 228.176 675.519 228.483 676.83 228.483C678.129 228.483 679.208 228.176 680.066 227.563C680.924 226.938 681.61 226.142 682.125 225.173C682.64 224.193 682.995 223.096 683.191 221.882C683.387 220.657 683.486 219.443 683.486 218.242Z" fill="#FF16B0"/>
<circle cx="770.082" cy="218.241" r="27.577" stroke="#FF16B0" stroke-width="1.7102"/>
<circle cx="770.297" cy="218.455" r="31.6387" stroke="#FF16B0" stroke-width="1.7102"/>
<path d="M776.974 206.849V230.842H774.437V209H766.697V227.036C766.697 227.71 766.581 228.311 766.348 228.838C766.127 229.365 765.827 229.806 765.447 230.162C765.067 230.517 764.626 230.787 764.123 230.97C763.621 231.167 763.093 231.265 762.542 231.265C761.512 231.265 760.759 231.111 760.28 230.805L760.777 228.801C760.948 228.911 761.138 228.991 761.347 229.04C761.567 229.089 761.856 229.114 762.211 229.114C763.51 229.114 764.16 228.421 764.16 227.036V206.849H776.974Z" fill="#FF16B0"/>
<circle cx="862.579" cy="217.386" r="27.577" stroke="#FF16B0" stroke-width="1.7102"/>
<circle cx="862.793" cy="217.6" r="31.6387" stroke="#FF16B0" stroke-width="1.7102"/>
<path d="M853.115 225.251C853.814 224.65 854.433 224.007 854.972 223.32C855.512 222.622 855.965 221.696 856.333 220.544C856.7 219.392 856.976 217.927 857.16 216.15C857.356 214.361 857.454 212.087 857.454 209.329V203.409H866.812V225.251H870.251V233.267H867.989V227.402H855.377V233.267H853.115V225.251ZM859.973 209.329C859.973 211.486 859.9 213.392 859.752 215.047C859.618 216.702 859.397 218.173 859.091 219.46C858.796 220.734 858.404 221.844 857.914 222.787C857.424 223.731 856.829 224.552 856.131 225.251H864.294V205.56H859.973V209.329Z" fill="#FF16B0"/>
<circle cx="955.075" cy="217.386" r="27.577" stroke="#FF16B0" stroke-width="1.7102"/>
<circle cx="955.289" cy="217.6" r="31.6387" stroke="#FF16B0" stroke-width="1.7102"/>
<path d="M953.904 231.167V221.644L952.893 219.805L948.076 231.167H945.447L951.312 217.617L945.447 207.175H948.186L953.904 217.838V207.175H956.442V217.838L962.159 207.175H964.899L959.034 217.617L964.899 231.167H962.27L957.453 219.805L956.442 221.644V231.167H953.904Z" fill="#FF16B0"/>
<circle cx="1047.57" cy="217.41" r="27.577" stroke="#FF16B0" stroke-width="1.7102"/>
<circle cx="1047.78" cy="217.623" r="31.6387" stroke="#FF16B0" stroke-width="1.7102"/>
<path d="M1041.14 224.039C1042.32 227.655 1044.4 229.463 1047.39 229.463C1048.04 229.463 1048.63 229.383 1049.16 229.224C1049.7 229.052 1050.18 228.819 1050.61 228.525C1051.05 228.231 1051.44 227.882 1051.77 227.477C1052.11 227.073 1052.41 226.631 1052.67 226.153C1053.13 225.283 1053.47 224.327 1053.68 223.285C1053.9 222.231 1054.03 221.165 1054.07 220.086H1043.36V217.935H1054.07C1054 216.82 1053.84 215.723 1053.57 214.644C1053.31 213.565 1052.92 212.603 1052.39 211.758C1051.88 210.912 1051.21 210.232 1050.39 209.717C1049.57 209.202 1048.57 208.945 1047.39 208.945C1046.55 208.945 1045.75 209.104 1045 209.423C1044.25 209.729 1043.6 210.158 1043.05 210.71C1042.5 211.261 1042.06 211.911 1041.73 212.658C1041.41 213.406 1041.25 214.209 1041.25 215.067H1039.1V207.198H1041.25V209.993C1041.77 208.914 1042.54 208.111 1043.59 207.584C1044.64 207.057 1045.91 206.793 1047.39 206.793C1049.07 206.793 1050.49 207.143 1051.66 207.841C1052.83 208.528 1053.78 209.447 1054.51 210.599C1055.24 211.751 1055.78 213.075 1056.11 214.57C1056.44 216.066 1056.6 217.616 1056.6 219.222C1056.6 220.301 1056.53 221.355 1056.38 222.384C1056.25 223.402 1056.02 224.37 1055.7 225.289C1055.4 226.208 1055 227.054 1054.51 227.826C1054.03 228.599 1053.45 229.267 1052.76 229.83C1052.07 230.382 1051.28 230.817 1050.39 231.136C1049.51 231.454 1048.51 231.614 1047.39 231.614C1045.23 231.614 1043.44 231.013 1042.02 229.812C1040.6 228.586 1039.58 226.95 1038.95 224.903L1041.14 224.039Z" fill="#FF16B0"/>
<path d="M134.34 134.588V142.604H132.078V136.739H115.844V112.746H118.363V134.588H128.64V112.746H131.177V134.588H134.34Z" fill="#FF16B0"/>
<circle cx="124.858" cy="124.891" r="27.577" stroke="#FF16B0" stroke-width="1.7102"/>
<circle cx="125.072" cy="125.105" r="31.6387" stroke="#FF16B0" stroke-width="1.7102"/>
<circle cx="32.3637" cy="124.891" r="27.577" stroke="#FF16B0" stroke-width="1.7102"/>
<circle cx="32.5778" cy="125.105" r="31.6387" stroke="#FF16B0" stroke-width="1.7102"/>
<path d="M23.9203 114.13H26.4391V133.489L35.7054 114.13H39.2538V138.123H36.7166V117.825L27.0458 138.123H23.9203V114.13ZM36.8453 109.055C35.4112 110.477 33.6646 111.188 31.6054 111.188C29.5462 111.188 27.7996 110.477 26.3656 109.055L27.7996 107.658C28.9518 108.81 30.2204 109.386 31.6054 109.386C32.9905 109.386 34.259 108.81 35.4112 107.658L36.8453 109.055Z" fill="#FF16B0"/>
<circle cx="217.354" cy="124.891" r="27.577" stroke="#FF16B0" stroke-width="1.7102"/>
<circle cx="217.568" cy="125.105" r="31.6387" stroke="#FF16B0" stroke-width="1.7102"/>
<path d="M225.596 114.252L216.33 135.726C215.852 136.927 215.178 137.718 214.307 138.098C213.437 138.478 212.475 138.667 211.421 138.667C210.244 138.667 209.068 138.453 207.891 138.024L208.387 135.836C208.963 136.081 209.527 136.259 210.079 136.369C210.63 136.467 211.078 136.516 211.421 136.516C212.254 136.516 212.824 136.314 213.131 135.91C213.449 135.505 213.725 135.027 213.958 134.476L215.006 131.883L207.358 114.252H210.336L216.514 129.254L222.581 114.252H225.596Z" fill="#FF16B0"/>
<circle cx="309.848" cy="124.891" r="27.577" stroke="#FF16B0" stroke-width="1.7102"/>
<circle cx="310.062" cy="125.105" r="31.6387" stroke="#FF16B0" stroke-width="1.7102"/>
<path d="M318.689 136.739H315.6L307.621 124.99L305.084 127.822V136.739H302.565V112.746H305.084V124.42L315.361 112.746H318.689L309.276 123.225L318.689 136.739Z" fill="#FF16B0"/>
<circle cx="402.34" cy="124.891" r="27.577" stroke="#FF16B0" stroke-width="1.7102"/>
<circle cx="402.554" cy="125.105" r="31.6387" stroke="#FF16B0" stroke-width="1.7102"/>
<path d="M408.621 138.245H393.287V114.252H408.621V116.403H395.806V124.989H405.256V127.14H395.806V136.094H408.621V138.245Z" fill="#FF16B0"/>
<circle cx="494.836" cy="124.891" r="27.577" stroke="#FF16B0" stroke-width="1.7102"/>
<circle cx="495.05" cy="125.105" r="31.6387" stroke="#FF16B0" stroke-width="1.7102"/>
<path d="M502.359 137.492H499.822V126.387H489.545V137.492H487.026V113.499H489.545V124.236H499.822V113.499H502.359V137.492Z" fill="#FF16B0"/>
<circle cx="587.332" cy="124.891" r="27.577" stroke="#FF16B0" stroke-width="1.7102"/>
<circle cx="587.547" cy="125.105" r="31.6387" stroke="#FF16B0" stroke-width="1.7102"/>
<path d="M581.27 115.005H597.504V117.156H583.789V138.998H581.27V115.005Z" fill="#FF16B0"/>
<circle cx="679.827" cy="124.891" r="27.577" fill="#FF16B0" fill-opacity="0.31" stroke="#FF16B0" stroke-width="1.7102"/>
<circle cx="680.041" cy="125.105" r="31.6387" stroke="#FF16B0" stroke-width="1.7102"/>
<path d="M678.414 115.005H680.951V136.846H685.732V115.005H688.25V138.998H671.115V115.005H673.634V136.846H678.414V115.005Z" fill="#FF16B0"/>
<circle cx="772.319" cy="124.891" r="27.577" stroke="#FF16B0" stroke-width="1.7102"/>
<circle cx="772.533" cy="125.105" r="31.6387" stroke="#FF16B0" stroke-width="1.7102"/>
<circle cx="772.319" cy="124.891" r="27.577" stroke="#FF16B0" stroke-width="1.7102"/>
<circle cx="772.533" cy="125.105" r="31.6387" stroke="#FF16B0" stroke-width="1.7102"/>
<path d="M762.344 136.739V112.746H764.862V134.588H769.643V112.746H772.18V134.588H776.96V112.746H779.479V134.588H781.74V142.604H779.479V136.739H762.344Z" fill="#FF16B0"/>
<circle cx="864.815" cy="124.891" r="27.577" stroke="#FF16B0" stroke-width="1.7102"/>
<circle cx="865.029" cy="125.105" r="31.6387" stroke="#FF16B0" stroke-width="1.7102"/>
<circle cx="864.815" cy="124.891" r="27.577" stroke="#FF16B0" stroke-width="1.7102"/>
<circle cx="865.029" cy="125.105" r="31.6387" stroke="#FF16B0" stroke-width="1.7102"/>
<path d="M871.754 130.12C871.754 131.174 871.54 132.136 871.111 133.007C870.682 133.865 870.106 134.6 869.383 135.213C868.672 135.826 867.844 136.304 866.901 136.647C865.969 136.99 864.989 137.162 863.959 137.162C862.807 137.162 861.728 137.009 860.723 136.702C859.718 136.383 858.829 135.912 858.057 135.286C857.297 134.661 856.678 133.889 856.2 132.97C855.722 132.051 855.434 130.984 855.336 129.771L857.782 129.44C857.929 131.278 858.572 132.67 859.712 133.613C860.84 134.545 862.255 135.011 863.959 135.011C864.682 135.011 865.362 134.888 866 134.643C866.637 134.398 867.195 134.061 867.673 133.632C868.151 133.203 868.525 132.688 868.794 132.087C869.076 131.487 869.217 130.831 869.217 130.12C869.217 129.14 869.064 128.343 868.758 127.73C868.451 127.105 867.998 126.621 867.397 126.278C866.809 125.922 866.079 125.683 865.209 125.561C864.339 125.438 863.34 125.377 862.212 125.377V123.226C863.034 123.226 863.836 123.158 864.621 123.023C865.405 122.889 866.104 122.656 866.717 122.325C867.33 121.994 867.826 121.559 868.206 121.019C868.586 120.468 868.776 119.781 868.776 118.96C868.776 117.612 868.329 116.533 867.434 115.724C866.539 114.903 865.381 114.493 863.959 114.493C863.162 114.493 862.39 114.646 861.642 114.952C860.907 115.259 860.282 115.663 859.767 116.166C859.277 116.631 858.866 117.207 858.535 117.894C858.204 118.58 858.039 119.389 858.039 120.321H855.741V112.746H857.892V115.54C858.186 114.94 858.56 114.437 859.013 114.033C859.467 113.628 859.963 113.304 860.503 113.058C861.042 112.801 861.606 112.617 862.194 112.507C862.782 112.397 863.371 112.341 863.959 112.341C864.989 112.341 865.951 112.495 866.846 112.801C867.74 113.095 868.512 113.524 869.162 114.088C869.824 114.652 870.345 115.344 870.725 116.166C871.105 116.987 871.295 117.918 871.295 118.96C871.295 120.333 870.89 121.467 870.081 122.361C869.272 123.256 868.108 123.82 866.588 124.053C867.434 124.175 868.175 124.421 868.813 124.788C869.462 125.156 870.002 125.616 870.431 126.167C870.872 126.707 871.203 127.319 871.424 128.006C871.644 128.68 871.754 129.385 871.754 130.12Z" fill="#FF16B0"/>
<circle cx="957.311" cy="124.891" r="27.577" stroke="#FF16B0" stroke-width="1.7102"/>
<circle cx="957.525" cy="125.105" r="31.6387" stroke="#FF16B0" stroke-width="1.7102"/>
<circle cx="957.311" cy="124.891" r="27.577" stroke="#FF16B0" stroke-width="1.7102"/>
<circle cx="957.525" cy="125.105" r="31.6387" stroke="#FF16B0" stroke-width="1.7102"/>
<path d="M964.873 136.739H958.071V134.588H959.689L955.92 126.719L952.114 134.588H953.732V136.739H946.911V134.588H949.246L954.449 124.66L949.338 114.897H947.334V112.746H954.191V114.897H952.187L955.92 122.582L959.542 114.897H957.611V112.746H964.469V114.897H962.391L957.391 124.66L962.538 134.588H964.873V136.739Z" fill="#FF16B0"/>
<circle cx="1142.3" cy="124.891" r="27.577" stroke="#FF16B0" stroke-width="1.7102"/>
<circle cx="1142.51" cy="125.105" r="31.6387" stroke="#FF16B0" stroke-width="1.7102"/>
<circle cx="1142.3" cy="124.891" r="27.577" stroke="#FF16B0" stroke-width="1.7102"/>
<circle cx="1142.51" cy="125.105" r="31.6387" stroke="#FF16B0" stroke-width="1.7102"/>
<path d="M1148.56 136.739H1133.22V112.746H1148.56V114.897H1135.74V123.483H1145.19V125.634H1135.74V134.588H1148.56V136.739ZM1146.02 109.326H1142.6V105.888H1146.02V109.326ZM1139.18 109.326H1135.74V105.888H1139.18V109.326Z" fill="#FF16B0"/>
<circle cx="1049.8" cy="124.891" r="27.577" stroke="#FF16B0" stroke-width="1.7102"/>
<circle cx="1050.02" cy="125.105" r="31.6387" stroke="#FF16B0" stroke-width="1.7102"/>
<circle cx="1049.8" cy="124.891" r="27.577" stroke="#FF16B0" stroke-width="1.7102"/>
<circle cx="1050.02" cy="125.105" r="31.6387" stroke="#FF16B0" stroke-width="1.7102"/>
<path d="M1039.83 112.746H1046.69V123.042H1049.96C1052.16 123.042 1053.87 123.618 1055.09 124.77C1056.31 125.922 1056.93 127.65 1056.93 129.954C1056.93 132.247 1056.31 133.95 1055.09 135.066C1053.87 136.181 1052.15 136.739 1049.92 136.739H1044.17V114.897H1039.83V112.746ZM1054.41 129.954C1054.41 128.398 1054.01 127.215 1053.21 126.406C1052.43 125.585 1051.36 125.174 1050 125.174H1046.69V134.588H1050C1051.36 134.588 1052.43 134.202 1053.21 133.429C1054.01 132.645 1054.41 131.487 1054.41 129.954Z" fill="#FF16B0"/>
</svg>
