<svg width="474" height="158" viewBox="0 0 474 158" fill="none" xmlns="http://www.w3.org/2000/svg">
<rect x="51" y="1.73779" width="333" height="67" rx="23" fill="#FF16B0" stroke="black" stroke-width="2"/>
<path d="M32.1934 82.9242L52.1934 43.4242L71.4323 30.0896L93.253 61.7978L85.6934 67.9242L32.1934 82.9242Z" fill="#FF16B0"/>
<path d="M52.6272 47.2724C52.6923 47.9235 52.6622 48.2882 52.3837 48.9094C52.2855 49.1286 52.1727 49.3218 52.0479 49.5265C51.9258 49.7267 51.8108 49.931 51.6953 50.1351C51.659 50.1993 51.6145 50.3812 51.5736 50.3198C51.4444 50.126 51.8208 49.5231 51.9136 49.346C52.1686 48.8592 53.1083 47.5012 52.8203 47.9692C52.6228 48.2901 52.42 48.6228 52.2074 48.9346C52.0948 49.0998 51.5694 49.8271 51.5694 49.7909C51.5694 48.8919 52.0378 48.1575 52.4677 47.3899C52.6455 47.0724 52.7238 46.6888 52.9882 46.4245C53.2131 46.1995 53.4916 46.0036 53.6472 45.7235C54.0984 44.9112 54.9703 44.3754 55.725 43.8723" stroke="#FF16B0" stroke-width="3" stroke-linecap="round"/>
<path d="M51.7972 50.748C51.555 50.9095 51.5705 51.4681 51.5705 51.7429C51.5705 52.1841 51.8254 52.7037 52.0322 53.0945C52.3818 53.7548 53.0348 54.2243 53.577 54.7148C53.9502 55.0525 54.4819 55.2582 54.7859 55.6634C55.1996 56.2151 55.7771 56.6115 56.1963 57.1704C56.5591 57.6542 56.8803 58.4278 57.0694 59.0089C57.341 59.844 57.3722 60.7773 57.5731 61.6366C57.7653 62.4587 58.1845 63.2869 58.6728 63.9705" stroke="#FF16B0" stroke-width="3" stroke-linecap="round"/>
<path d="M52.0977 55.0547C52.1425 55.4586 52.3339 55.8553 52.551 56.1964C52.9312 56.7939 53.1939 57.526 53.5332 58.1525C54.1913 59.3674 55.1859 60.3303 56.3288 61.0992C57.925 62.173 59.4793 63.2445 60.9882 64.4447C62.0159 65.2622 63.0092 66.3283 64.1867 66.9171" stroke="#FF16B0" stroke-width="3" stroke-linecap="round"/>
<path d="M64.7924 65.5571C64.6914 65.8265 65.3061 66.3731 65.4892 66.5562C65.7784 66.8454 66.0886 66.9839 66.4546 67.1606C67.273 67.5557 68.1481 67.8747 69.0319 68.0925C69.7676 68.2737 70.463 68.4641 71.1391 68.1261" stroke="#FF16B0" stroke-width="3" stroke-linecap="round"/>
<path d="M71.5918 68.0505C71.6263 68.3267 72.79 68.2772 73.0442 68.2772C74.4238 68.2772 75.8034 68.2772 77.183 68.2772" stroke="#FF16B0" stroke-width="3" stroke-linecap="round"/>
<path d="M76.8809 67.2193C77.4475 67.2193 78.0142 67.2193 78.5809 67.2193C78.9494 67.2193 79.5196 67.3145 79.8653 67.1815C80.3529 66.994 81.0072 66.9579 81.5402 66.9003C82.4918 66.7974 83.6081 66.6895 84.5121 66.3882" stroke="#FF16B0" stroke-width="3" stroke-linecap="round"/>
<path d="M78.0898 67.3706C78.186 67.3826 78.1926 67.7272 78.241 67.8239" stroke="#FF16B0" stroke-width="3" stroke-linecap="round"/>
<path d="M53.6847 44.7036C53.1228 44.7738 53.432 45.7864 53.2901 46.1056C53.1201 46.4882 53.0653 47.2154 52.7948 47.516C52.4674 47.8797 52.2956 48.4305 52.0812 48.8592C51.8633 49.295 51.6298 49.72 51.418 50.1437" stroke="#FF16B0" stroke-width="3" stroke-linecap="round"/>
<path d="M51.2793 49.6444C51.2987 49.642 51.3884 49.5467 51.3998 49.5239" stroke="#FF16B0" stroke-width="3" stroke-linecap="round"/>
<path d="M51.4395 49.5038C51.4465 49.4473 51.5337 49.3756 51.56 49.323" stroke="#FF16B0" stroke-width="3" stroke-linecap="round"/>
<path d="M51.7207 49.2026C51.7207 49.1473 51.7957 49.0045 51.8412 48.9817" stroke="#FF16B0" stroke-width="3" stroke-linecap="round"/>
<path d="M51.9422 48.8208C51.8688 48.8553 51.7536 48.8859 51.7011 48.9514C51.6654 48.9961 51.6094 49.0494 51.5605 49.0819" stroke="#FF16B0" stroke-width="3" stroke-linecap="round"/>
<path d="M50.5352 48.5799C50.7067 48.4274 50.9472 48.3949 51.102 48.2229C51.1366 48.1845 51.3364 48.0893 51.3364 48.0488C51.3364 48.0374 51.2748 48.0884 51.2739 48.0889C51.2341 48.1133 51.1676 48.1308 51.1377 48.1682C51.1136 48.1984 51.051 48.2417 51.0172 48.2586" stroke="#FF16B0" stroke-linecap="round"/>
<path d="M137.058 47.7378H133.521V37.9795H126.343V47.7378H122.805V25.4355H126.343V34.7837H133.521V25.4355H137.058V47.7378ZM154.336 47.7378L152.729 42.4229H145.347L143.774 47.7378H140.066L147.021 25.4355H151.089L158.044 47.7378H154.336ZM146.287 39.2954H151.79L149.055 30.1011L146.287 39.2954ZM161.018 25.4355H164.556V35.2793C164.556 36.5098 164.789 37.3643 165.256 37.8428C165.723 38.3213 166.401 38.5605 167.29 38.5605C168.589 38.5605 169.654 38.0308 170.486 36.9712C171.318 35.9116 171.733 34.4476 171.733 32.5791V25.4355H175.271V47.7378H171.733V37.3813C171.38 38.7599 170.725 39.8366 169.768 40.6113C168.811 41.3747 167.632 41.7563 166.23 41.7563C164.601 41.7563 163.325 41.2266 162.402 40.167C161.479 39.096 161.018 37.4668 161.018 35.2793V25.4355ZM194.377 47.7378H180.125V25.4355H194.377V28.6313H183.662V34.7837H192.019V37.9795H183.662V44.5591H194.377V47.7378ZM214.321 32.1006C214.321 34.3337 213.643 35.9971 212.288 37.0908C210.932 38.1732 209.041 38.7144 206.614 38.7144H202.769V47.7378H199.231V25.4355H206.58C209.029 25.4355 210.932 25.9995 212.288 27.1274C213.643 28.244 214.321 29.9017 214.321 32.1006ZM210.784 32.0493C210.784 30.91 210.408 30.0555 209.656 29.4858C208.915 28.9162 207.901 28.6313 206.614 28.6313H202.769V35.5186H206.614C207.901 35.5186 208.915 35.2337 209.656 34.6641C210.408 34.0944 210.784 33.2228 210.784 32.0493ZM233.394 33.5703H230.232V28.6313H227.224V44.5591H230.762V47.7378H220.166V44.5591H223.687V28.6313H220.645V33.5703H217.5V25.4355H233.394V33.5703ZM249.868 47.7378L248.262 42.4229H240.879L239.307 47.7378H235.598L242.554 25.4355H246.621L253.577 47.7378H249.868ZM241.819 39.2954H247.322L244.587 30.1011L241.819 39.2954ZM270.803 47.7378H267.266V37.9795H260.088V47.7378H256.55V25.4355H260.088V34.7837H267.266V25.4355H270.803V47.7378ZM275.657 25.4355H279.194V40.7993L285.466 25.4355H289.91V47.7378H286.372V31.5708L279.758 47.7378H275.657V25.4355ZM299.976 38.5264C299.121 38.4124 298.324 38.2017 297.583 37.894C296.854 37.575 296.21 37.1478 295.652 36.6123C295.105 36.0768 294.678 35.4388 294.37 34.6982C294.074 33.9463 293.926 33.0804 293.926 32.1006C293.926 29.9017 294.604 28.244 295.959 27.1274C297.315 25.9995 299.218 25.4355 301.667 25.4355H309.016V47.7378H305.479V38.7144H303.872L298.096 47.7378H293.618L299.976 38.5264ZM297.463 32.0493C297.463 33.2228 297.834 34.0944 298.574 34.6641C299.326 35.2337 300.357 35.5186 301.667 35.5186H305.479V28.6313H301.667C300.357 28.6313 299.326 28.9162 298.574 29.4858C297.834 30.0555 297.463 30.91 297.463 32.0493Z" fill="black"/>
</svg>
