<svg width="355" height="84" viewBox="0 0 355 84" fill="none" xmlns="http://www.w3.org/2000/svg">
<rect x="19.084" y="0.569824" width="335" height="69" rx="24" fill="#FF16B0"/>
<path d="M0.0839844 83.5698L20.084 44.0698L33.2668 32.6184L53.584 47.2044L59.7198 64.1392L53.584 68.5698L0.0839844 83.5698Z" fill="#FF16B0"/>
<path d="M21.7112 47.1046C21.7763 47.7558 21.7462 48.1205 21.4677 48.7417C21.3695 48.9609 21.2567 49.1541 21.1319 49.3587C21.0098 49.559 20.8948 49.7633 20.7793 49.9674C20.743 50.0316 20.6985 50.2134 20.6576 50.1521C20.5284 49.9583 20.9048 49.3554 20.9976 49.1783C21.2526 48.6915 22.1923 47.3334 21.9043 47.8014C21.7068 48.1224 21.504 48.4551 21.2914 48.7669C21.1788 48.9321 20.6534 49.6594 20.6534 49.6232C20.6534 48.7242 21.1218 47.9898 21.5517 47.2222C21.7294 46.9047 21.8078 46.5211 22.0722 46.2567C22.2971 46.0318 22.5756 45.8359 22.7312 45.5557C23.1824 44.7435 24.0543 44.2077 24.809 43.7046" stroke="#FF16B0" stroke-width="3" stroke-linecap="round"/>
<path d="M20.8812 50.5806C20.639 50.742 20.6545 51.3007 20.6545 51.5754C20.6545 52.0166 20.9093 52.5362 21.1162 52.927C21.4658 53.5873 22.1188 54.0568 22.6609 54.5473C23.0342 54.885 23.5659 55.0907 23.8699 55.4959C24.2836 56.0477 24.8611 56.444 25.2802 57.0029C25.6431 57.4867 25.9643 58.2603 26.1533 58.8414C26.425 59.6765 26.4562 60.6099 26.6571 61.4691C26.8492 62.2913 27.2685 63.1194 27.7568 63.803" stroke="#FF16B0" stroke-width="3" stroke-linecap="round"/>
<path d="M21.1816 54.8872C21.2265 55.2911 21.4179 55.6878 21.635 56.029C22.0152 56.6264 22.2779 57.3586 22.6172 57.985C23.2753 59.1999 24.2699 60.1629 25.4128 60.9317C27.009 62.0055 28.5633 63.077 30.0721 64.2772C31.0998 65.0947 32.0932 66.1609 33.2707 66.7496" stroke="#FF16B0" stroke-width="3" stroke-linecap="round"/>
<path d="M33.8764 65.3892C33.7754 65.6585 34.3901 66.2052 34.5732 66.3882C34.8624 66.6774 35.1726 66.8159 35.5386 66.9926C36.357 67.3877 37.2321 67.7067 38.1159 67.9245C38.8516 68.1058 39.547 68.2962 40.2231 67.9581" stroke="#FF16B0" stroke-width="3" stroke-linecap="round"/>
<path d="M40.6758 67.8828C40.7103 68.159 41.874 68.1095 42.1281 68.1095C43.5078 68.1095 44.8874 68.1095 46.267 68.1095" stroke="#FF16B0" stroke-width="3" stroke-linecap="round"/>
<path d="M45.9648 67.0513C46.5315 67.0513 47.0982 67.0513 47.6649 67.0513C48.0334 67.0513 48.6036 67.1465 48.9493 67.0136C49.4369 66.826 50.0912 66.7899 50.6242 66.7323C51.5758 66.6294 52.6921 66.5215 53.5961 66.2202" stroke="#FF16B0" stroke-width="3" stroke-linecap="round"/>
<path d="M47.1738 67.2026C47.2699 67.2147 47.2766 67.5592 47.3249 67.656" stroke="#FF16B0" stroke-width="3" stroke-linecap="round"/>
<path d="M22.7687 44.5356C22.2068 44.6059 22.5159 45.6185 22.3741 45.9376C22.2041 46.3202 22.1493 47.0475 21.8788 47.348C21.5514 47.7117 21.3795 48.2625 21.1652 48.6913C20.9473 49.127 20.7138 49.552 20.502 49.9757" stroke="#FF16B0" stroke-width="3" stroke-linecap="round"/>
<path d="M20.3633 49.4765C20.3827 49.4741 20.4724 49.3787 20.4838 49.356" stroke="#FF16B0" stroke-width="3" stroke-linecap="round"/>
<path d="M20.5234 49.336C20.5305 49.2796 20.6177 49.2079 20.644 49.1553" stroke="#FF16B0" stroke-width="3" stroke-linecap="round"/>
<path d="M20.8047 49.0349C20.8047 48.9796 20.8797 48.8367 20.9252 48.814" stroke="#FF16B0" stroke-width="3" stroke-linecap="round"/>
<path d="M21.0262 48.6528C20.9528 48.6874 20.8375 48.7179 20.7851 48.7834C20.7494 48.8281 20.6934 48.8814 20.6445 48.9139" stroke="#FF16B0" stroke-width="3" stroke-linecap="round"/>
<path d="M19.6191 48.4122C19.7907 48.2597 20.0312 48.2272 20.186 48.0551C20.2206 48.0167 20.4203 47.9216 20.4203 47.8811C20.4203 47.8697 20.3588 47.9207 20.3579 47.9212C20.318 47.9456 20.2516 47.9631 20.2217 48.0005C20.1976 48.0307 20.135 48.074 20.1012 48.0908" stroke="#FF16B0" stroke-linecap="round"/>
<path d="M99.6863 46.5698H95.6434V35.4175H87.4402V46.5698H83.3973V21.0815H87.4402V31.7651H95.6434V21.0815H99.6863V46.5698ZM106.432 33.8159C106.432 32.1102 106.614 30.4631 106.979 28.8745C107.343 27.286 107.91 25.8862 108.678 24.6753C109.446 23.4644 110.449 22.4943 111.686 21.7651C112.936 21.0229 114.439 20.6519 116.197 20.6519C117.955 20.6519 119.452 21.0229 120.689 21.7651C121.939 22.4943 122.955 23.4644 123.736 24.6753C124.518 25.8862 125.084 27.286 125.436 28.8745C125.787 30.4631 125.963 32.1102 125.963 33.8159C125.963 35.5216 125.787 37.1688 125.436 38.7573C125.084 40.3328 124.524 41.7391 123.756 42.9761C122.988 44.2 121.979 45.1831 120.729 45.9253C119.492 46.6545 117.981 47.019 116.197 47.019C114.413 47.019 112.896 46.6545 111.646 45.9253C110.41 45.1831 109.4 44.2 108.619 42.9761C107.851 41.7391 107.298 40.3328 106.959 38.7573C106.607 37.1688 106.432 35.5216 106.432 33.8159ZM110.475 33.8159C110.475 34.9618 110.559 36.1076 110.729 37.2534C110.911 38.3993 111.21 39.4279 111.627 40.3394C112.057 41.2378 112.636 41.967 113.365 42.5269C114.107 43.0868 115.051 43.3667 116.197 43.3667C117.343 43.3667 118.281 43.0868 119.01 42.5269C119.752 41.967 120.331 41.2378 120.748 40.3394C121.178 39.4279 121.477 38.3993 121.646 37.2534C121.829 36.1076 121.92 34.9618 121.92 33.8159C121.92 32.6701 121.829 31.5308 121.646 30.3979C121.477 29.2651 121.178 28.243 120.748 27.3315C120.331 26.4201 119.745 25.6844 118.99 25.1245C118.248 24.5646 117.317 24.2847 116.197 24.2847C114.335 24.2847 112.916 25.1245 111.939 26.8042C110.963 28.4839 110.475 30.8211 110.475 33.8159ZM150.306 38.7769C149.993 40.0269 149.577 41.1597 149.056 42.1753C148.535 43.1909 147.897 44.0568 147.142 44.7729C146.4 45.4891 145.527 46.0425 144.525 46.4331C143.535 46.8237 142.396 47.019 141.107 47.019C139.323 47.019 137.812 46.6545 136.575 45.9253C135.338 45.1831 134.323 44.2 133.529 42.9761C132.747 41.7391 132.181 40.3328 131.829 38.7573C131.491 37.1688 131.321 35.5216 131.321 33.8159C131.321 32.1102 131.491 30.4631 131.829 28.8745C132.181 27.286 132.741 25.8862 133.509 24.6753C134.29 23.4644 135.28 22.4943 136.478 21.7651C137.676 21.0229 139.14 20.6519 140.872 20.6519C141.432 20.6519 141.999 20.7235 142.571 20.8667C143.144 21.0099 143.678 21.2313 144.173 21.5308C144.668 21.8172 145.098 22.1753 145.462 22.605C145.84 23.0347 146.107 23.5295 146.263 24.0894V21.0815H149.915V30.73H146.263C146.263 29.9357 146.165 29.1545 145.97 28.3862C145.775 27.605 145.462 26.9149 145.032 26.3159C144.603 25.717 144.062 25.2287 143.411 24.8511C142.76 24.4735 141.992 24.2847 141.107 24.2847C139.961 24.2847 139.023 24.5646 138.294 25.1245C137.565 25.6844 136.979 26.4201 136.536 27.3315C136.094 28.243 135.781 29.2651 135.599 30.3979C135.43 31.5308 135.345 32.6701 135.345 33.8159C135.345 34.9618 135.43 36.1076 135.599 37.2534C135.781 38.3993 136.087 39.4279 136.517 40.3394C136.946 41.2378 137.532 41.967 138.275 42.5269C139.017 43.0868 139.961 43.3667 141.107 43.3667C142.76 43.3667 144.03 42.8394 144.915 41.7847C145.814 40.73 146.53 39.3107 147.064 37.5269L150.306 38.7769ZM157.305 21.0815H161.348V38.6401L168.516 21.0815H173.594V46.5698H169.551V28.0933L161.993 46.5698H157.305V21.0815ZM199.148 30.3784H195.535V24.7339H192.097V42.937H196.14V46.5698H184.031V42.937H188.054V24.7339H184.578V30.3784H180.984V21.0815H199.148V30.3784ZM222.866 46.5698H206.577V21.0815H222.866V24.7339H210.62V31.7651H220.171V35.4175H210.62V42.937H222.866V46.5698ZM247.502 21.0815V46.5698H243.459V24.7339H236.584V41.1792C236.584 42.2339 236.428 43.1388 236.115 43.894C235.803 44.6362 235.386 45.2352 234.865 45.6909C234.357 46.1466 233.752 46.4787 233.049 46.687C232.359 46.9084 231.617 47.019 230.822 47.019C229.729 47.019 228.928 46.8563 228.42 46.5308L228.928 43.0542C229.123 43.1584 229.338 43.2365 229.572 43.2886C229.794 43.3407 230.087 43.3667 230.451 43.3667C231.844 43.3667 232.541 42.6375 232.541 41.1792V21.0815H247.502ZM255.849 21.0815H259.892V38.6401L267.06 21.0815H272.138V46.5698H268.095V28.0933L260.536 46.5698H255.849V21.0815Z" fill="black"/>
</svg>
