<svg width="297" height="64" viewBox="0 0 297 64" fill="none" xmlns="http://www.w3.org/2000/svg">
<path d="M296.584 63.6748L284.206 39.6748V13.1748L282.305 7.1748L279.455 3.6748L276.129 1.6748L271.232 0.174805H13.8625L11.0117 0.674805L6.73566 2.6748L3.40982 5.6748L1.50934 8.6748L0.583984 14.1748L1.50934 42.6748L2.08398 47.1748L4.08398 49.1748L9.08398 53.1748L13.8625 54.1748H255.584L264.584 55.1748L296.584 63.6748Z" fill="#FF16B0"/>
<path d="M19.3572 28.3512C19.3572 29.1937 19.4496 30.0363 19.6344 30.8788C19.8265 31.7213 20.1037 32.5306 20.4658 33.3066C20.828 34.0753 21.2751 34.8033 21.8072 35.4906C22.3394 36.1779 22.9454 36.7877 23.6253 37.3198L22.2174 38.7277C21.4266 38.1069 20.7245 37.4011 20.1111 36.6103C19.4976 35.8269 18.984 34.988 18.5701 34.0937C18.1562 33.1995 17.8384 32.2682 17.6167 31.3001C17.395 30.3319 17.2841 29.3489 17.2841 28.3512C17.2841 27.3534 17.395 26.3705 17.6167 25.4023C17.8384 24.4267 18.1562 23.4955 18.5701 22.6086C18.984 21.7143 19.4976 20.8755 20.1111 20.0921C20.7245 19.3013 21.4266 18.5955 22.2174 17.9746L23.6253 19.3826C22.9454 19.9073 22.3394 20.517 21.8072 21.2118C21.2751 21.8991 20.828 22.6308 20.4658 23.4068C20.1037 24.1754 19.8265 24.981 19.6344 25.8236C19.4496 26.6587 19.3572 27.5012 19.3572 28.3512ZM37.9263 36.5881L36.2191 37.4306L27.7272 20.336L29.4344 19.4934L37.9263 36.5881ZM56.5398 28.3512C56.5398 29.1937 56.6322 30.0363 56.817 30.8788C57.0091 31.7213 57.2863 32.5306 57.6484 33.3066C58.0106 34.0753 58.4577 34.8033 58.9898 35.4906C59.522 36.1779 60.128 36.7877 60.8079 37.3198L59.4 38.7277C58.6092 38.1069 57.9071 37.4011 57.2937 36.6103C56.6802 35.8269 56.1666 34.988 55.7527 34.0937C55.3388 33.1995 55.021 32.2682 54.7993 31.3001C54.5776 30.3319 54.4667 29.3489 54.4667 28.3512C54.4667 27.3534 54.5776 26.3705 54.7993 25.4023C55.021 24.4267 55.3388 23.4955 55.7527 22.6086C56.1666 21.7143 56.6802 20.8755 57.2937 20.0921C57.9071 19.3013 58.6092 18.5955 59.4 17.9746L60.8079 19.3826C60.128 19.9073 59.522 20.517 58.9898 21.2118C58.4577 21.8991 58.0106 22.6308 57.6484 23.4068C57.2863 24.1754 57.0091 24.981 56.817 25.8236C56.6322 26.6587 56.5398 27.5012 56.5398 28.3512ZM75.1089 36.5881L73.4017 37.4306L64.9098 20.336L66.617 19.4934L75.1089 36.5881ZM93.7224 28.3512C93.7224 29.1937 93.8148 30.0363 93.9996 30.8788C94.1917 31.7213 94.4689 32.5306 94.831 33.3066C95.1932 34.0753 95.6403 34.8033 96.1724 35.4906C96.7046 36.1779 97.3106 36.7877 97.9905 37.3198L96.5826 38.7277C95.7918 38.1069 95.0897 37.4011 94.4763 36.6103C93.8628 35.8269 93.3492 34.988 92.9353 34.0937C92.5214 33.1995 92.2036 32.2682 91.9819 31.3001C91.7602 30.3319 91.6493 29.3489 91.6493 28.3512C91.6493 27.3534 91.7602 26.3705 91.9819 25.4023C92.2036 24.4267 92.5214 23.4955 92.9353 22.6086C93.3492 21.7143 93.8628 20.8755 94.4763 20.0921C95.0897 19.3013 95.7918 18.5955 96.5826 17.9746L97.9905 19.3826C97.3106 19.9073 96.7046 20.517 96.1724 21.2118C95.6403 21.8991 95.1932 22.6308 94.831 23.4068C94.4689 24.1754 94.1917 24.981 93.9996 25.8236C93.8148 26.6587 93.7224 27.5012 93.7224 28.3512ZM101.959 30.3688V28.3068H112.292V30.3688H101.959ZM126.748 30.3688V28.3068H137.08V30.3688H126.748ZM145.361 28.3733C145.361 27.5234 145.265 26.6809 145.073 25.8457C144.888 25.0032 144.615 24.1976 144.253 23.429C143.89 22.6529 143.443 21.9213 142.911 21.2339C142.379 20.5392 141.773 19.9295 141.093 19.4047L142.501 17.9968C143.292 18.6176 143.987 19.3234 144.585 20.1142C145.191 20.8977 145.705 21.7365 146.126 22.6308C146.555 23.5177 146.88 24.4489 147.102 25.4245C147.323 26.3926 147.434 27.3756 147.434 28.3733C147.434 29.3711 147.323 30.3541 147.102 31.3222C146.88 32.2904 146.555 33.2216 146.126 34.1159C145.705 35.0102 145.191 35.849 144.585 36.6325C143.987 37.4233 143.292 38.1291 142.501 38.7499L141.093 37.342C141.773 36.8098 142.379 36.2001 142.911 35.5128C143.443 34.8254 143.89 34.0974 144.253 33.3288C144.615 32.5528 144.888 31.7435 145.073 30.901C145.265 30.0584 145.361 29.2159 145.361 28.3733ZM172.4 24.3269C172.4 24.9625 172.293 25.5501 172.079 26.0896C171.872 26.6291 171.576 27.0874 171.192 27.4643C170.815 27.8412 170.357 28.1368 169.817 28.3512C169.285 28.5581 168.701 28.6616 168.065 28.6616C167.43 28.6616 166.842 28.5618 166.303 28.3623C165.763 28.1553 165.301 27.8634 164.917 27.4865C164.533 27.1095 164.233 26.655 164.019 26.1229C163.812 25.5907 163.709 24.9921 163.709 24.3269C163.709 23.6766 163.812 23.0816 164.019 22.5421C164.233 21.9952 164.533 21.5333 164.917 21.1563C165.301 20.772 165.763 20.4764 166.303 20.2694C166.842 20.0551 167.43 19.9479 168.065 19.9479C168.701 19.9479 169.285 20.0551 169.817 20.2694C170.357 20.4764 170.815 20.772 171.192 21.1563C171.576 21.5333 171.872 21.9952 172.079 22.5421C172.293 23.0816 172.4 23.6766 172.4 24.3269ZM170.449 24.3269C170.449 23.4844 170.227 22.8229 169.784 22.3425C169.348 21.8621 168.775 21.6219 168.065 21.6219C167.349 21.6219 166.768 21.8621 166.325 22.3425C165.882 22.8229 165.66 23.4844 165.66 24.3269C165.66 25.1769 165.878 25.8346 166.314 26.3003C166.75 26.7585 167.334 26.9876 168.065 26.9876C168.79 26.9876 169.366 26.7585 169.795 26.3003C170.231 25.8346 170.449 25.1769 170.449 24.3269ZM172.189 32.4308H163.93V30.3688H172.189V32.4308ZM176.325 36.699V34.637H186.657V36.699H176.325ZM192.876 28.3512C192.876 29.1937 192.968 30.0363 193.153 30.8788C193.345 31.7213 193.622 32.5306 193.985 33.3066C194.347 34.0753 194.794 34.8033 195.326 35.4906C195.858 36.1779 196.464 36.7877 197.144 37.3198L195.736 38.7277C194.945 38.1069 194.243 37.4011 193.63 36.6103C193.016 35.8269 192.503 34.988 192.089 34.0937C191.675 33.1995 191.357 32.2682 191.136 31.3001C190.914 30.3319 190.803 29.3489 190.803 28.3512C190.803 27.3534 190.914 26.3705 191.136 25.4023C191.357 24.4267 191.675 23.4955 192.089 22.6086C192.503 21.7143 193.016 20.8755 193.63 20.0921C194.243 19.3013 194.945 18.5955 195.736 17.9746L197.144 19.3826C196.464 19.9073 195.858 20.517 195.326 21.2118C194.794 21.8991 194.347 22.6308 193.985 23.4068C193.622 24.1754 193.345 24.981 193.153 25.8236C192.968 26.6587 192.876 27.5012 192.876 28.3512ZM209.716 20.1697L209.217 25.7127H207.465L206.966 20.1697H209.716ZM205.581 20.1697L205.082 25.7127H203.341L202.842 20.1697H205.581ZM219.726 28.3733C219.726 27.5234 219.63 26.6809 219.438 25.8457C219.253 25.0032 218.98 24.1976 218.618 23.429C218.256 22.6529 217.809 21.9213 217.276 21.2339C216.744 20.5392 216.138 19.9295 215.458 19.4047L216.866 17.9968C217.657 18.6176 218.352 19.3234 218.95 20.1142C219.556 20.8977 220.07 21.7365 220.491 22.6308C220.92 23.5177 221.245 24.4489 221.467 25.4245C221.689 26.3926 221.8 27.3756 221.8 28.3733C221.8 29.3711 221.689 30.3541 221.467 31.3222C221.245 32.2904 220.92 33.2216 220.491 34.1159C220.07 35.0102 219.556 35.849 218.95 36.6325C218.352 37.4233 217.657 38.1291 216.866 38.7499L215.458 37.342C216.138 36.8098 216.744 36.2001 217.276 35.5128C217.809 34.8254 218.256 34.0974 218.618 33.3288C218.98 32.5528 219.253 31.7435 219.438 30.901C219.63 30.0584 219.726 29.2159 219.726 28.3733ZM230.059 28.3512C230.059 29.1937 230.151 30.0363 230.336 30.8788C230.528 31.7213 230.805 32.5306 231.167 33.3066C231.529 34.0753 231.977 34.8033 232.509 35.4906C233.041 36.1779 233.647 36.7877 234.327 37.3198L232.919 38.7277C232.128 38.1069 231.426 37.4011 230.812 36.6103C230.199 35.8269 229.685 34.988 229.272 34.0937C228.858 33.1995 228.54 32.2682 228.318 31.3001C228.096 30.3319 227.986 29.3489 227.986 28.3512C227.986 27.3534 228.096 26.3705 228.318 25.4023C228.54 24.4267 228.858 23.4955 229.272 22.6086C229.685 21.7143 230.199 20.8755 230.812 20.0921C231.426 19.3013 232.128 18.5955 232.919 17.9746L234.327 19.3826C233.647 19.9073 233.041 20.517 232.509 21.2118C231.977 21.8991 231.529 22.6308 231.167 23.4068C230.805 24.1754 230.528 24.981 230.336 25.8236C230.151 26.6587 230.059 27.5012 230.059 28.3512ZM246.898 20.1697L246.399 25.7127H244.648L244.149 20.1697H246.898ZM242.763 20.1697L242.264 25.7127H240.524L240.025 20.1697H242.763ZM256.909 28.3733C256.909 27.5234 256.813 26.6809 256.621 25.8457C256.436 25.0032 256.163 24.1976 255.8 23.429C255.438 22.6529 254.991 21.9213 254.459 21.2339C253.927 20.5392 253.321 19.9295 252.641 19.4047L254.049 17.9968C254.84 18.6176 255.534 19.3234 256.133 20.1142C256.739 20.8977 257.253 21.7365 257.674 22.6308C258.103 23.5177 258.428 24.4489 258.65 25.4245C258.871 26.3926 258.982 27.3756 258.982 28.3733C258.982 29.3711 258.871 30.3541 258.65 31.3222C258.428 32.2904 258.103 33.2216 257.674 34.1159C257.253 35.0102 256.739 35.849 256.133 36.6325C255.534 37.4233 254.84 38.1291 254.049 38.7499L252.641 37.342C253.321 36.8098 253.927 36.2001 254.459 35.5128C254.991 34.8254 255.438 34.0974 255.8 33.3288C256.163 32.5528 256.436 31.7435 256.621 30.901C256.813 30.0584 256.909 29.2159 256.909 28.3733Z" fill="black"/>
</svg>
