<svg width="312" height="65" viewBox="0 0 312 65" fill="none" xmlns="http://www.w3.org/2000/svg">
<path d="M0.0839844 64.1367L12.584 39.6367V13.1367L14.584 7.13672L17.584 3.63672L21.084 1.63672L26.2371 0.136719H297.084L300.084 0.636719L304.584 2.63672L308.084 5.63672L310.084 8.63672L311.584 14.1367V42.6367L308.584 49.6367L303.084 53.6367L297.084 55.1367H42.584H32.084L0.0839844 64.1367Z" fill="#FF16B0"/>
<path d="M31.5574 26.7355H27.7719V24.036C27.7719 23.5624 27.8328 23.109 27.9546 22.676C28.0831 22.2363 28.2962 21.8472 28.5939 21.5089C28.8916 21.1706 29.2807 20.9 29.761 20.697C30.2482 20.494 30.847 20.3926 31.5574 20.3926V22.1381C31.1514 22.1381 30.8131 22.1855 30.5425 22.2802C30.2719 22.3682 30.0554 22.4967 29.893 22.6659C29.7374 22.8283 29.6257 23.0245 29.5581 23.2545C29.4904 23.4846 29.4566 23.745 29.4566 24.036V24.1781H31.5574V26.7355ZM37.2305 26.7355H33.445V24.036C33.445 23.5624 33.5059 23.109 33.6277 22.676C33.7563 22.2363 33.9694 21.8472 34.2671 21.5089C34.5648 21.1706 34.9538 20.9 35.4342 20.697C35.9214 20.494 36.5201 20.3926 37.2305 20.3926V22.1381C36.8246 22.1381 36.4863 22.1855 36.2157 22.2802C35.9518 22.3682 35.7387 22.4967 35.5763 22.6659C35.4139 22.8283 35.2989 23.0245 35.2312 23.2545C35.1636 23.4846 35.1297 23.745 35.1297 24.036V24.1781H37.2305V26.7355ZM38.7833 27.0096C38.7833 26.1232 38.878 25.2674 39.0675 24.4419C39.2569 23.6165 39.5512 22.8892 39.9504 22.2599C40.3496 21.6307 40.8706 21.1267 41.5133 20.7478C42.1629 20.3621 42.9443 20.1693 43.8577 20.1693C44.7711 20.1693 45.5492 20.3621 46.1919 20.7478C46.8414 21.1267 47.3692 21.6307 47.7751 22.2599C48.1811 22.8892 48.4754 23.6165 48.6581 24.4419C48.8408 25.2674 48.9321 26.1232 48.9321 27.0096C48.9321 27.8959 48.8408 28.7518 48.6581 29.5772C48.4754 30.3959 48.1845 31.1266 47.7853 31.7693C47.3861 32.4053 46.8617 32.9162 46.2122 33.3018C45.5695 33.6807 44.7846 33.8701 43.8577 33.8701C42.9308 33.8701 42.1426 33.6807 41.493 33.3018C40.8503 32.9162 40.3259 32.4053 39.92 31.7693C39.5208 31.1266 39.2332 30.3959 39.0573 29.5772C38.8746 28.7518 38.7833 27.8959 38.7833 27.0096ZM40.8841 27.0096C40.8841 27.605 40.9281 28.2004 41.016 28.7958C41.1108 29.3911 41.2664 29.9256 41.4829 30.3993C41.7062 30.8661 42.0072 31.245 42.3861 31.5359C42.7718 31.8269 43.2623 31.9723 43.8577 31.9723C44.4531 31.9723 44.9402 31.8269 45.3191 31.5359C45.7048 31.245 46.0059 30.8661 46.2224 30.3993C46.4456 29.9256 46.6013 29.3911 46.6892 28.7958C46.7839 28.2004 46.8313 27.605 46.8313 27.0096C46.8313 26.4142 46.7839 25.8222 46.6892 25.2335C46.6013 24.6449 46.4456 24.1138 46.2224 23.6402C46.0059 23.1666 45.7014 22.7843 45.309 22.4934C44.9233 22.2024 44.4396 22.057 43.8577 22.057C42.8902 22.057 42.1527 22.4934 41.6453 23.3662C41.1378 24.2389 40.8841 25.4534 40.8841 27.0096ZM59.4259 33.6367H56.9902L53.0626 24.036V33.6367H50.9618V20.3926H53.6005L57.3251 29.5163V20.3926H59.4259V33.6367ZM70.7723 33.6367H62.3082V20.3926H64.409V31.749H70.7723V33.6367ZM82.8189 22.2904H81.8649L78.9319 28.2376V31.749H81.053V33.6367H74.7201V31.749H76.8311V28.2376L73.9082 22.2904H72.9543V20.3926H77.1254V22.2904H76.212L77.8967 26.1774L79.5611 22.2904H78.6477V20.3926H82.8189V22.2904ZM90.1767 20.3926H93.9622V23.1023C93.9622 23.5691 93.898 24.0224 93.7694 24.4622C93.6476 24.8952 93.4379 25.2843 93.1402 25.6293C92.8425 25.9676 92.4501 26.2383 91.9629 26.4412C91.4825 26.6374 90.8872 26.7355 90.1767 26.7355V24.99C90.9819 24.99 91.5333 24.8174 91.831 24.4724C92.1287 24.1273 92.2775 23.6706 92.2775 23.1023V22.9501H90.1767V20.3926ZM84.5036 20.3926H88.2891V23.1023C88.2891 23.5691 88.2248 24.0224 88.0962 24.4622C87.9744 24.8952 87.7647 25.2843 87.467 25.6293C87.1693 25.9676 86.7769 26.2383 86.2898 26.4412C85.8026 26.6374 85.2072 26.7355 84.5036 26.7355V24.99C85.3087 24.99 85.8601 24.8174 86.1578 24.4724C86.4555 24.1273 86.6044 23.6706 86.6044 23.1023V22.9501H84.5036V20.3926ZM105.309 35.4229L103.746 36.1942L95.9717 20.5448L97.5346 19.7735L105.309 35.4229ZM116.655 35.4229L115.092 36.1942L107.318 20.5448L108.881 19.7735L116.655 35.4229ZM122.348 27.8824C122.348 28.6537 122.433 29.425 122.602 30.1963C122.778 30.9676 123.032 31.7085 123.363 32.4189C123.695 33.1225 124.104 33.789 124.591 34.4182C125.078 35.0474 125.633 35.6056 126.256 36.0927L124.967 37.3816C124.243 36.8133 123.6 36.1671 123.038 35.4432C122.477 34.726 122.007 33.9581 121.628 33.1394C121.249 32.3208 120.958 31.4683 120.755 30.5819C120.552 29.6956 120.451 28.7958 120.451 27.8824C120.451 26.969 120.552 26.0691 120.755 25.1828C120.958 24.2897 121.249 23.4372 121.628 22.6253C122.007 21.8066 122.477 21.0387 123.038 20.3215C123.6 19.5976 124.243 18.9514 124.967 18.3831L126.256 19.672C125.633 20.1524 125.078 20.7106 124.591 21.3465C124.104 21.9758 123.695 22.6456 123.363 23.356C123.032 24.0597 122.778 24.7971 122.602 25.5684C122.433 26.333 122.348 27.1043 122.348 27.8824ZM138.85 33.5352C138.85 34.1848 138.739 34.7632 138.515 35.2707C138.292 35.7781 137.977 36.2077 137.572 36.5596C137.172 36.9114 136.699 37.1786 136.151 37.3613C135.609 37.5508 135.004 37.6455 134.334 37.6455C132.69 37.6455 131.286 37.1482 130.122 36.1536L131.117 34.5298C132.084 35.362 133.157 35.7781 134.334 35.7781C135.058 35.7781 135.64 35.5988 136.08 35.2402C136.526 34.8884 136.749 34.3336 136.749 33.5758V32.5609C136.316 32.9331 135.9 33.2105 135.501 33.3931C135.102 33.5691 134.639 33.657 134.111 33.657C133.502 33.657 132.937 33.5285 132.416 33.2714C131.895 33.0143 131.445 32.6658 131.066 32.226C130.694 31.7795 130.4 31.2619 130.183 30.6733C129.973 30.0846 129.869 29.4588 129.869 28.7958C129.869 28.1327 129.973 27.5069 130.183 26.9182C130.4 26.3228 130.694 25.8086 131.066 25.3756C131.445 24.9358 131.895 24.5908 132.416 24.3404C132.937 24.0833 133.502 23.9548 134.111 23.9548C134.639 23.9548 135.109 24.0461 135.521 24.2288C135.934 24.4047 136.344 24.672 136.749 25.0306V24.1781H138.85V33.5352ZM136.749 26.695C136.499 26.4176 136.174 26.2078 135.775 26.0657C135.383 25.9169 135.001 25.8425 134.628 25.8425C133.837 25.8425 133.194 26.1199 132.7 26.6747C132.213 27.2295 131.969 27.9365 131.969 28.7958C131.969 29.222 132.034 29.6178 132.162 29.9832C132.298 30.3417 132.48 30.653 132.71 30.9168C132.947 31.1807 133.228 31.3905 133.553 31.5461C133.884 31.6949 134.243 31.7693 134.628 31.7693C135.001 31.7693 135.383 31.6949 135.775 31.5461C136.174 31.3905 136.499 31.1739 136.749 30.8965V26.695ZM141.235 35.5244V33.6367H150.694V35.5244H141.235ZM161.543 33.5352C161.543 34.1848 161.431 34.7632 161.208 35.2707C160.985 35.7781 160.67 36.2077 160.264 36.5596C159.865 36.9114 159.391 37.1786 158.843 37.3613C158.302 37.5508 157.697 37.6455 157.027 37.6455C155.383 37.6455 153.979 37.1482 152.815 36.1536L153.81 34.5298C154.777 35.362 155.849 35.7781 157.027 35.7781C157.751 35.7781 158.333 35.5988 158.772 35.2402C159.219 34.8884 159.442 34.3336 159.442 33.5758V32.5609C159.009 32.9331 158.593 33.2105 158.194 33.3931C157.795 33.5691 157.331 33.657 156.803 33.657C156.195 33.657 155.63 33.5285 155.109 33.2714C154.588 33.0143 154.138 32.6658 153.759 32.226C153.387 31.7795 153.092 31.2619 152.876 30.6733C152.666 30.0846 152.561 29.4588 152.561 28.7958C152.561 28.1327 152.666 27.5069 152.876 26.9182C153.092 26.3228 153.387 25.8086 153.759 25.3756C154.138 24.9358 154.588 24.5908 155.109 24.3404C155.63 24.0833 156.195 23.9548 156.803 23.9548C157.331 23.9548 157.801 24.0461 158.214 24.2288C158.627 24.4047 159.036 24.672 159.442 25.0306V24.1781H161.543V33.5352ZM159.442 26.695C159.192 26.4176 158.867 26.2078 158.468 26.0657C158.075 25.9169 157.693 25.8425 157.321 25.8425C156.529 25.8425 155.887 26.1199 155.393 26.6747C154.906 27.2295 154.662 27.9365 154.662 28.7958C154.662 29.222 154.726 29.6178 154.855 29.9832C154.99 30.3417 155.173 30.653 155.403 30.9168C155.64 31.1807 155.921 31.3905 156.245 31.5461C156.577 31.6949 156.935 31.7693 157.321 31.7693C157.693 31.7693 158.075 31.6949 158.468 31.5461C158.867 31.3905 159.192 31.1739 159.442 30.8965V26.695ZM169.621 27.9027C169.621 27.1246 169.533 26.3533 169.358 25.5887C169.188 24.8174 168.938 24.0799 168.607 23.3763C168.275 22.6659 167.866 21.9961 167.379 21.3668C166.891 20.7309 166.337 20.1727 165.714 19.6923L167.003 18.4034C167.727 18.9717 168.363 19.6179 168.911 20.3418C169.466 21.059 169.936 21.8269 170.322 22.6456C170.714 23.4575 171.012 24.31 171.215 25.2031C171.418 26.0894 171.519 26.9893 171.519 27.9027C171.519 28.816 171.418 29.7159 171.215 30.6022C171.012 31.4886 170.714 32.3411 170.322 33.1597C169.936 33.9784 169.466 34.7463 168.911 35.4635C168.363 36.1874 167.727 36.8336 167.003 37.4019L165.714 36.113C166.337 35.6259 166.891 35.0677 167.379 34.4385C167.866 33.8092 168.275 33.1428 168.607 32.4392C168.938 31.7287 169.188 30.9879 169.358 30.2166C169.533 29.4453 169.621 28.674 169.621 27.9027ZM183.17 19.7735L184.733 20.5448L176.959 36.1942L175.396 35.4229L183.17 19.7735ZM194.516 19.7735L196.079 20.5448L188.305 36.1942L186.742 35.4229L194.516 19.7735ZM203.64 20.3926H207.426V23.1023C207.426 23.5691 207.361 24.0224 207.233 24.4622C207.111 24.8952 206.901 25.2843 206.604 25.6293C206.306 25.9676 205.913 26.2383 205.426 26.4412C204.946 26.6374 204.351 26.7355 203.64 26.7355V24.99C204.445 24.99 204.997 24.8174 205.294 24.4724C205.592 24.1273 205.741 23.6706 205.741 23.1023V22.9501H203.64V20.3926ZM197.967 20.3926H201.752V23.1023C201.752 23.5691 201.688 24.0224 201.56 24.4622C201.438 24.8952 201.228 25.2843 200.93 25.6293C200.633 25.9676 200.24 26.2383 199.753 26.4412C199.266 26.6374 198.671 26.7355 197.967 26.7355V24.99C198.772 24.99 199.323 24.8174 199.621 24.4724C199.919 24.1273 200.068 23.6706 200.068 23.1023V22.9501H197.967V20.3926ZM218.275 33.6367H209.811V20.3926H211.911V31.749H218.275V33.6367ZM220.325 27.0096C220.325 26.1232 220.419 25.2674 220.609 24.4419C220.798 23.6165 221.093 22.8892 221.492 22.2599C221.891 21.6307 222.412 21.1267 223.055 20.7478C223.704 20.3621 224.486 20.1693 225.399 20.1693C226.312 20.1693 227.091 20.3621 227.733 20.7478C228.383 21.1267 228.911 21.6307 229.317 22.2599C229.722 22.8892 230.017 23.6165 230.199 24.4419C230.382 25.2674 230.473 26.1232 230.473 27.0096C230.473 27.8959 230.382 28.7518 230.199 29.5772C230.017 30.3959 229.726 31.1266 229.327 31.7693C228.927 32.4053 228.403 32.9162 227.754 33.3018C227.111 33.6807 226.326 33.8701 225.399 33.8701C224.472 33.8701 223.684 33.6807 223.034 33.3018C222.392 32.9162 221.867 32.4053 221.461 31.7693C221.062 31.1266 220.775 30.3959 220.599 29.5772C220.416 28.7518 220.325 27.8959 220.325 27.0096ZM222.426 27.0096C222.426 27.605 222.469 28.2004 222.557 28.7958C222.652 29.3911 222.808 29.9256 223.024 30.3993C223.248 30.8661 223.549 31.245 223.928 31.5359C224.313 31.8269 224.804 31.9723 225.399 31.9723C225.994 31.9723 226.482 31.8269 226.861 31.5359C227.246 31.245 227.547 30.8661 227.764 30.3993C227.987 29.9256 228.143 29.3911 228.231 28.7958C228.325 28.2004 228.373 27.605 228.373 27.0096C228.373 26.4142 228.325 25.8222 228.231 25.2335C228.143 24.6449 227.987 24.1138 227.764 23.6402C227.547 23.1666 227.243 22.7843 226.85 22.4934C226.465 22.2024 225.981 22.057 225.399 22.057C224.432 22.057 223.694 22.4934 223.187 23.3662C222.679 24.2389 222.426 25.4534 222.426 27.0096ZM242.063 20.3926L237.933 33.6367H235.538L231.407 20.3926H233.609L236.745 30.8763L239.861 20.3926H242.063ZM252.314 33.6367H243.85V20.3926H252.314V22.2904H245.95V25.9439H250.913V27.8418H245.95V31.749H252.314V33.6367ZM260.372 20.3926H264.157V23.1023C264.157 23.5691 264.093 24.0224 263.964 24.4622C263.843 24.8952 263.633 25.2843 263.335 25.6293C263.038 25.9676 262.645 26.2383 262.158 26.4412C261.678 26.6374 261.082 26.7355 260.372 26.7355V24.99C261.177 24.99 261.728 24.8174 262.026 24.4724C262.324 24.1273 262.473 23.6706 262.473 23.1023V22.9501H260.372V20.3926ZM254.699 20.3926H258.484V23.1023C258.484 23.5691 258.42 24.0224 258.291 24.4622C258.17 24.8952 257.96 25.2843 257.662 25.6293C257.364 25.9676 256.972 26.2383 256.485 26.4412C255.998 26.6374 255.402 26.7355 254.699 26.7355V24.99C255.504 24.99 256.055 24.8174 256.353 24.4724C256.651 24.1273 256.799 23.6706 256.799 23.1023V22.9501H254.699V20.3926ZM272.155 20.3926L271.637 29.8512H269.912L269.394 20.3926H272.155ZM272.053 33.6367H269.496V31.0792H272.053V33.6367ZM283.501 20.3926L282.983 29.8512H281.258L280.74 20.3926H283.501ZM283.399 33.6367H280.842V31.0792H283.399V33.6367ZM294.847 20.3926L294.33 29.8512H292.604L292.087 20.3926H294.847ZM294.746 33.6367H292.188V31.0792H294.746V33.6367Z" fill="black"/>
</svg>
