<svg width="348" height="62" viewBox="0 0 348 62" fill="none" xmlns="http://www.w3.org/2000/svg">
<path d="M6.17199 3.8665L11.741 7.82268L10.5141 9.71117L4.55919 6.34773L6.17199 3.8665ZM21.5832 3.8665L27.1522 7.82268L25.9254 9.71117L19.9704 6.34773L21.5832 3.8665ZM40.8127 17.2376C41.2998 17.2376 41.6536 16.9757 41.8742 16.4519C42.1039 15.928 42.2923 15.055 42.4393 13.8328L45.1549 14.0258C45.0998 14.8528 44.9711 15.6202 44.7689 16.3278C44.5759 17.0354 44.3003 17.6465 43.9419 18.1611C43.5835 18.6758 43.1423 19.0847 42.6185 19.388C42.1039 19.6912 41.502 19.8429 40.8127 19.8429C40.0592 19.8429 39.4756 19.6637 39.0621 19.3053C38.6486 18.9469 38.3039 18.5471 38.0283 18.106C37.7526 17.6649 37.5136 17.2651 37.3115 16.9067C37.1185 16.5483 36.8612 16.3691 36.5395 16.3691C36.0525 16.3691 35.6941 16.6311 35.4643 17.1549C35.2438 17.6695 35.06 18.5379 34.9129 19.7602L32.1974 19.5534C32.2525 18.7447 32.3766 17.9865 32.5695 17.2789C32.7717 16.5621 33.052 15.9464 33.4104 15.4318C33.7688 14.908 34.2053 14.499 34.7199 14.205C35.2438 13.9017 35.8503 13.7501 36.5395 13.7501C37.2931 13.7501 37.8812 13.9339 38.3039 14.3015C38.7267 14.6599 39.0713 15.0596 39.3378 15.5007C39.6043 15.9326 39.8386 16.3324 40.0408 16.7C40.2522 17.0584 40.5095 17.2376 40.8127 17.2376ZM47.6637 25.7978V23.2339H60.511V25.7978H47.6637ZM63.0749 25.7978V23.2339H75.9222V25.7978H63.0749ZM78.4861 25.7978V23.2339H91.3334V25.7978H78.4861ZM93.8973 25.7978V23.2339H106.745V25.7978H93.8973ZM122.487 15.4456C122.34 16.1164 122.128 16.8057 121.853 17.5133C121.586 18.2209 121.237 18.9055 120.805 19.5672L122.969 21.5659L121.191 23.6061L119.137 21.5935C118.475 22.2 117.749 22.6779 116.959 23.0271C116.169 23.3763 115.296 23.5509 114.34 23.5509C113.586 23.5509 112.879 23.4223 112.217 23.165C111.555 22.9077 110.986 22.5584 110.508 22.1173C110.03 21.6762 109.653 21.1616 109.377 20.5735C109.102 19.9761 108.964 19.3282 108.964 18.6298C108.964 17.426 109.184 16.4427 109.626 15.6799C110.076 14.9172 110.609 14.2647 111.225 13.7225C110.701 13.0608 110.296 12.3992 110.012 11.7375C109.727 11.0667 109.584 10.3453 109.584 9.57333C109.584 8.87491 109.708 8.24082 109.956 7.67105C110.205 7.0921 110.531 6.60045 110.935 6.1961C111.339 5.79175 111.813 5.48389 112.355 5.27253C112.906 5.05197 113.49 4.9417 114.106 4.9417C114.73 4.9417 115.314 5.03819 115.856 5.23117C116.408 5.41497 116.885 5.68147 117.29 6.03068C117.694 6.37989 118.007 6.80262 118.227 7.29887C118.457 7.79511 118.572 8.36488 118.572 9.00816C118.572 9.62387 118.462 10.1799 118.241 10.6761C118.03 11.1632 117.749 11.6043 117.4 11.9994C117.051 12.3946 116.66 12.7576 116.228 13.0884C115.796 13.4192 115.365 13.7317 114.933 14.0258L118.847 17.7338C119.077 17.2743 119.275 16.7965 119.44 16.3002C119.615 15.804 119.766 15.3031 119.895 14.7977L122.487 15.4456ZM114.533 20.9732C115.075 20.9732 115.576 20.8721 116.035 20.6699C116.504 20.4586 116.936 20.1737 117.331 19.8153L113.003 15.611H112.975C112.635 15.9694 112.355 16.3691 112.134 16.8103C111.923 17.2514 111.817 17.7476 111.817 18.299C111.817 19.0893 112.075 19.7326 112.589 20.2288C113.113 20.7251 113.761 20.9732 114.533 20.9732ZM112.438 9.57333C112.438 10.0788 112.484 10.5337 112.575 10.938C112.677 11.3424 112.897 11.7789 113.237 12.2475C113.577 12.027 113.894 11.8064 114.188 11.5859C114.492 11.3561 114.753 11.108 114.974 10.8415C115.204 10.575 115.383 10.2901 115.512 9.98687C115.649 9.67442 115.718 9.3298 115.718 8.95302C115.718 8.5211 115.571 8.17189 115.277 7.90539C114.983 7.63889 114.629 7.50564 114.216 7.50564C113.674 7.50564 113.242 7.70321 112.92 8.09837C112.598 8.49353 112.438 8.98518 112.438 9.57333Z" fill="#FF16B0"/>
<path d="M237.869 15.4456C237.722 16.1164 237.511 16.8057 237.235 17.5133C236.968 18.2209 236.619 18.9055 236.187 19.5672L238.351 21.5659L236.573 23.6061L234.519 21.5935C233.858 22.2 233.132 22.6779 232.341 23.0271C231.551 23.3763 230.678 23.5509 229.722 23.5509C228.969 23.5509 228.261 23.4223 227.599 23.165C226.938 22.9077 226.368 22.5584 225.89 22.1173C225.412 21.6762 225.035 21.1616 224.76 20.5735C224.484 19.9761 224.346 19.3282 224.346 18.6298C224.346 17.426 224.567 16.4427 225.008 15.6799C225.458 14.9172 225.991 14.2647 226.607 13.7225C226.083 13.0608 225.679 12.3992 225.394 11.7375C225.109 11.0667 224.967 10.3453 224.967 9.57333C224.967 8.87491 225.091 8.24082 225.339 7.67105C225.587 7.0921 225.913 6.60045 226.317 6.1961C226.722 5.79175 227.195 5.48389 227.737 5.27253C228.289 5.05197 228.872 4.9417 229.488 4.9417C230.113 4.9417 230.696 5.03819 231.239 5.23117C231.79 5.41497 232.268 5.68147 232.672 6.03068C233.076 6.37989 233.389 6.80262 233.609 7.29887C233.839 7.79511 233.954 8.36488 233.954 9.00816C233.954 9.62387 233.844 10.1799 233.623 10.6761C233.412 11.1632 233.132 11.6043 232.782 11.9994C232.433 12.3946 232.043 12.7576 231.611 13.0884C231.179 13.4192 230.747 13.7317 230.315 14.0258L234.23 17.7338C234.46 17.2743 234.657 16.7965 234.823 16.3002C234.997 15.804 235.149 15.3031 235.277 14.7977L237.869 15.4456ZM229.915 20.9732C230.457 20.9732 230.958 20.8721 231.418 20.6699C231.886 20.4586 232.318 20.1737 232.713 19.8153L228.385 15.611H228.358C228.018 15.9694 227.737 16.3691 227.517 16.8103C227.305 17.2514 227.2 17.7476 227.2 18.299C227.2 19.0893 227.457 19.7326 227.972 20.2288C228.495 20.7251 229.143 20.9732 229.915 20.9732ZM227.82 9.57333C227.82 10.0788 227.866 10.5337 227.958 10.938C228.059 11.3424 228.279 11.7789 228.619 12.2475C228.959 12.027 229.277 11.8064 229.571 11.5859C229.874 11.3561 230.136 11.108 230.356 10.8415C230.586 10.575 230.765 10.2901 230.894 9.98687C231.032 9.67442 231.101 9.3298 231.101 8.95302C231.101 8.5211 230.954 8.17189 230.66 7.90539C230.365 7.63889 230.012 7.50564 229.598 7.50564C229.056 7.50564 228.624 7.70321 228.302 8.09837C227.981 8.49353 227.82 8.98518 227.82 9.57333ZM240.102 25.7978V23.2339H252.949V25.7978H240.102ZM255.513 25.7978V23.2339H268.361V25.7978H255.513ZM270.924 25.7978V23.2339H283.772V25.7978H270.924ZM286.336 25.7978V23.2339H299.183V25.7978H286.336ZM310.307 17.2376C310.794 17.2376 311.148 16.9757 311.369 16.4519C311.598 15.928 311.787 15.055 311.934 13.8328L314.649 14.0258C314.594 14.8528 314.465 15.6202 314.263 16.3278C314.07 17.0354 313.795 17.6465 313.436 18.1611C313.078 18.6758 312.637 19.0847 312.113 19.388C311.598 19.6912 310.996 19.8429 310.307 19.8429C309.554 19.8429 308.97 19.6637 308.556 19.3053C308.143 18.9469 307.798 18.5471 307.523 18.106C307.247 17.6649 307.008 17.2651 306.806 16.9067C306.613 16.5483 306.356 16.3691 306.034 16.3691C305.547 16.3691 305.188 16.6311 304.959 17.1549C304.738 17.6695 304.554 18.5379 304.407 19.7602L301.692 19.5534C301.747 18.7447 301.871 17.9865 302.064 17.2789C302.266 16.5621 302.546 15.9464 302.905 15.4318C303.263 14.908 303.7 14.499 304.214 14.205C304.738 13.9017 305.345 13.7501 306.034 13.7501C306.787 13.7501 307.376 13.9339 307.798 14.3015C308.221 14.6599 308.566 15.0596 308.832 15.5007C309.099 15.9326 309.333 16.3324 309.535 16.7C309.747 17.0584 310.004 17.2376 310.307 17.2376ZM321.9 3.8665L327.469 7.82268L326.242 9.71117L320.287 6.34773L321.9 3.8665ZM337.311 3.8665L342.88 7.82268L341.653 9.71117L335.698 6.34773L337.311 3.8665Z" fill="#FF16B0"/>
<path d="M141.72 28.2339H135.628V25.6699H136.758L135.007 22.9819L133.284 25.6699H134.332V28.2339H128.294V25.6699H130.155L133.036 21.7138L130.293 17.9643H128.57V15.3866H134.359V17.9643H133.45L135.007 20.4456L136.593 17.9643H135.572V15.3866H141.417V17.9643H139.749L137.006 21.7138L139.887 25.6699H141.72V28.2339ZM145.732 30.8254H147.855C148.342 30.8254 148.672 30.7243 148.847 30.5221C149.031 30.3291 149.123 29.9891 149.123 29.5021V23.5747C149.123 23.1611 149.196 22.7752 149.343 22.4168C149.5 22.0584 149.693 21.7459 149.922 21.4794C150.161 21.2037 150.432 20.9878 150.736 20.8315C151.048 20.6661 151.374 20.5559 151.714 20.5007C151.034 20.3721 150.432 20.0412 149.908 19.5082C149.385 18.966 149.123 18.263 149.123 17.3992V11.5269C149.123 11.0307 149.031 10.6953 148.847 10.5207C148.672 10.3369 148.342 10.245 147.855 10.245H145.732V7.68102H147.855C148.415 7.68102 148.93 7.77751 149.398 7.9705C149.867 8.15429 150.271 8.4162 150.611 8.75622C150.952 9.09624 151.213 9.50059 151.397 9.96927C151.59 10.4379 151.687 10.9572 151.687 11.5269V17.3992C151.687 18.1711 151.903 18.6674 152.335 18.8879C152.766 19.0993 153.405 19.205 154.251 19.205V21.7689C153.405 21.7689 152.766 21.8838 152.335 22.1135C151.903 22.3341 151.687 22.8211 151.687 23.5747V29.5021C151.687 30.0718 151.59 30.5911 151.397 31.0597C151.213 31.5284 150.952 31.9374 150.611 32.2866C150.271 32.6358 149.867 32.9023 149.398 33.0861C148.93 33.2791 148.415 33.3755 147.855 33.3755H145.732V30.8254ZM159.172 16.3791C159.172 15.3774 159.333 14.4814 159.654 13.6911C159.985 12.9008 160.435 12.2299 161.005 11.6786C161.584 11.118 162.264 10.6907 163.045 10.3966C163.826 10.0933 164.658 9.9417 165.54 9.9417C166.9 9.9417 168.017 10.2036 168.89 10.7274C169.763 11.242 170.452 11.9313 170.958 12.7951C171.472 13.6589 171.831 14.6468 172.033 15.7588C172.244 16.8708 172.35 18.0287 172.35 19.2325C172.35 20.4548 172.198 21.6265 171.895 22.7476C171.592 23.8688 171.128 24.8612 170.503 25.7251C169.887 26.5889 169.11 27.2782 168.173 27.7928C167.236 28.2982 166.133 28.5509 164.865 28.5509C163.964 28.5509 163.114 28.4131 162.315 28.1374C161.515 27.8617 160.812 27.4619 160.206 26.9381L161.763 24.8429C162.232 25.2564 162.714 25.5505 163.211 25.7251C163.716 25.8905 164.267 25.9732 164.865 25.9732C165.637 25.9732 166.321 25.8216 166.919 25.5183C167.525 25.2059 168.031 24.7694 168.435 24.2088C168.839 23.639 169.143 22.9682 169.345 22.1962C169.556 21.4243 169.662 20.5742 169.662 19.6461C169.386 20.611 168.853 21.3967 168.063 22.0032C167.272 22.6006 166.225 22.8992 164.92 22.8992C164.148 22.8992 163.413 22.7338 162.714 22.403C162.025 22.0722 161.414 21.6219 160.881 21.0521C160.357 20.4731 159.939 19.7839 159.627 18.9844C159.323 18.1849 159.172 17.3165 159.172 16.3791ZM162.011 16.3791C162.011 17.5095 162.324 18.456 162.949 19.2187C163.574 19.9815 164.47 20.3629 165.637 20.3629C166.758 20.3629 167.658 20.0091 168.339 19.3015C169.019 18.5938 169.359 17.6657 169.359 16.517C169.359 15.9564 169.28 15.4372 169.124 14.9593C168.977 14.4722 168.747 14.0449 168.435 13.6773C168.132 13.3097 167.737 13.0249 167.25 12.8227C166.772 12.6113 166.193 12.5056 165.513 12.5056C164.502 12.5056 163.666 12.8457 163.004 13.5257C162.342 14.2057 162.011 15.1569 162.011 16.3791ZM187.871 22.1135C187.871 23.106 187.706 23.9974 187.375 24.7877C187.053 25.578 186.603 26.2535 186.024 26.8141C185.454 27.3655 184.779 27.7928 183.998 28.096C183.217 28.3993 182.38 28.5509 181.489 28.5509C180.138 28.5509 179.022 28.2936 178.139 27.779C177.266 27.2552 176.577 26.5659 176.072 25.7113C175.566 24.8567 175.208 23.8688 174.996 22.7476C174.794 21.6265 174.693 20.464 174.693 19.2601C174.693 18.0379 174.84 16.8662 175.134 15.745C175.438 14.6239 175.902 13.6314 176.527 12.7675C177.151 11.8945 177.928 11.2053 178.856 10.6999C179.784 10.1944 180.892 9.9417 182.178 9.9417C183.079 9.9417 183.929 10.0795 184.728 10.3552C185.528 10.6217 186.226 11.0215 186.824 11.5545L185.28 13.636C184.811 13.2224 184.324 12.933 183.819 12.7675C183.322 12.5929 182.776 12.5056 182.178 12.5056C181.406 12.5056 180.717 12.6619 180.111 12.9743C179.504 13.2868 178.999 13.7279 178.594 14.2976C178.19 14.8582 177.882 15.5245 177.671 16.2964C177.469 17.0683 177.367 17.9138 177.367 18.8328C177.652 17.877 178.19 17.0959 178.98 16.4894C179.771 15.8829 180.814 15.5796 182.109 15.5796C182.881 15.5796 183.616 15.745 184.315 16.0759C185.013 16.4067 185.624 16.8616 186.148 17.4405C186.681 18.0103 187.099 18.6949 187.403 19.4944C187.715 20.2939 187.871 21.167 187.871 22.1135ZM185.018 22.1135C185.018 20.9832 184.705 20.0366 184.081 19.2739C183.465 18.5111 182.573 18.1298 181.406 18.1298C180.276 18.1298 179.371 18.4836 178.691 19.1912C178.02 19.8896 177.684 20.8132 177.684 21.9619C177.684 22.5316 177.758 23.0555 177.905 23.5333C178.061 24.0112 178.291 24.4339 178.594 24.8015C178.907 25.1691 179.302 25.4586 179.78 25.6699C180.267 25.8721 180.846 25.9732 181.517 25.9732C182.537 25.9732 183.373 25.6378 184.025 24.9669C184.687 24.2869 185.018 23.3358 185.018 22.1135ZM201.311 33.3755H199.188C198.628 33.3755 198.109 33.2791 197.631 33.0861C197.162 32.9023 196.758 32.6358 196.418 32.2866C196.087 31.9374 195.825 31.5284 195.632 31.0597C195.448 30.5911 195.356 30.0718 195.356 29.5021V23.6298C195.356 22.8763 195.14 22.3892 194.708 22.1687C194.277 21.9389 193.633 21.824 192.779 21.824V19.2601C193.633 19.2601 194.277 19.1544 194.708 18.9431C195.14 18.7225 195.356 18.2263 195.356 17.4543V11.5821C195.356 11.0123 195.448 10.4931 195.632 10.0244C195.825 9.55573 196.087 9.14678 196.418 8.79757C196.758 8.44836 197.162 8.17726 197.631 7.98428C198.109 7.78211 198.628 7.68102 199.188 7.68102H201.311V10.245H199.188C198.701 10.245 198.366 10.346 198.182 10.5482C198.008 10.7412 197.92 11.0858 197.92 11.5821V17.4543C197.92 18.3182 197.654 19.0212 197.121 19.5634C196.597 20.0964 196 20.4272 195.329 20.5559C195.669 20.611 195.99 20.7213 196.294 20.8867C196.606 21.0429 196.877 21.2589 197.107 21.5346C197.346 21.8011 197.539 22.1135 197.686 22.4719C197.842 22.8303 197.92 23.2163 197.92 23.6298V29.5021C197.92 29.9891 198.008 30.3291 198.182 30.5221C198.366 30.7243 198.701 30.8254 199.188 30.8254H201.311V33.3755ZM218.776 28.2339H212.684V25.6699H213.814L212.063 22.9819L210.34 25.6699H211.388V28.2339H205.35V25.6699H207.211L210.092 21.7138L207.349 17.9643H205.626V15.3866H211.415V17.9643H210.506L212.063 20.4456L213.649 17.9643H212.628V15.3866H218.473V17.9643H216.805L214.062 21.7138L216.943 25.6699H218.776V28.2339Z" fill="#FF16B0"/>
<path d="M155.417 46.8603H150.275V43.1936C150.275 42.5504 150.358 41.9346 150.523 41.3465C150.698 40.7492 150.987 40.2208 151.392 39.7613C151.796 39.3018 152.324 38.9342 152.977 38.6585C153.639 38.3828 154.452 38.245 155.417 38.245V40.6159C154.865 40.6159 154.406 40.6802 154.038 40.8089C153.671 40.9284 153.377 41.103 153.156 41.3327C152.945 41.5533 152.793 41.8198 152.701 42.1322C152.609 42.4447 152.563 42.7985 152.563 43.1936V43.3866H155.417V46.8603ZM163.122 46.8603H157.981V43.1936C157.981 42.5504 158.063 41.9346 158.229 41.3465C158.404 40.7492 158.693 40.2208 159.097 39.7613C159.502 39.3018 160.03 38.9342 160.683 38.6585C161.344 38.3828 162.158 38.245 163.122 38.245V40.6159C162.571 40.6159 162.112 40.6802 161.744 40.8089C161.386 40.9284 161.096 41.103 160.876 41.3327C160.655 41.5533 160.499 41.8198 160.407 42.1322C160.315 42.4447 160.269 42.7985 160.269 43.1936V43.3866H163.122V46.8603ZM165.231 47.2325C165.231 46.0287 165.36 44.8662 165.617 43.745C165.875 42.6239 166.275 41.636 166.817 40.7813C167.359 39.9267 168.067 39.242 168.94 38.7274C169.822 38.2036 170.883 37.9417 172.124 37.9417C173.364 37.9417 174.421 38.2036 175.294 38.7274C176.176 39.242 176.893 39.9267 177.445 40.7813C177.996 41.636 178.396 42.6239 178.644 43.745C178.892 44.8662 179.016 46.0287 179.016 47.2325C179.016 48.4364 178.892 49.5989 178.644 50.72C178.396 51.832 178.001 52.8245 177.458 53.6975C176.916 54.5614 176.204 55.2552 175.322 55.779C174.449 56.2936 173.383 56.5509 172.124 56.5509C170.865 56.5509 169.794 56.2936 168.912 55.779C168.039 55.2552 167.327 54.5614 166.775 53.6975C166.233 52.8245 165.843 51.832 165.604 50.72C165.356 49.5989 165.231 48.4364 165.231 47.2325ZM168.085 47.2325C168.085 48.078 168.14 48.8959 168.25 49.6862L175.308 42.6009C174.996 41.976 174.582 41.4706 174.067 41.0846C173.562 40.6986 172.914 40.5056 172.124 40.5056C170.81 40.5056 169.808 41.0984 169.119 42.2839C168.43 43.4693 168.085 45.1189 168.085 47.2325ZM172.124 53.9732C172.932 53.9732 173.594 53.7756 174.109 53.3805C174.633 52.9853 175.042 52.4707 175.336 51.8366C175.639 51.1933 175.85 50.4673 175.97 49.6586C176.098 48.8499 176.163 48.0412 176.163 47.2325C176.163 46.4606 176.108 45.707 175.997 44.9719L168.995 52.002C169.307 52.5993 169.707 53.0772 170.194 53.4356C170.69 53.794 171.333 53.9732 172.124 53.9732ZM188.803 38.245H193.945V41.9255C193.945 42.5595 193.858 43.1753 193.683 43.7726C193.518 44.3607 193.233 44.8891 192.828 45.3578C192.424 45.8173 191.891 46.1849 191.229 46.4606C190.577 46.7271 189.768 46.8603 188.803 46.8603V44.4894C189.897 44.4894 190.646 44.2551 191.05 43.7864C191.454 43.3177 191.657 42.6974 191.657 41.9255V41.7187H188.803V38.245ZM181.098 38.245H186.239V41.9255C186.239 42.5595 186.152 43.1753 185.977 43.7726C185.812 44.3607 185.527 44.8891 185.123 45.3578C184.718 45.8173 184.185 46.1849 183.524 46.4606C182.862 46.7271 182.053 46.8603 181.098 46.8603V44.4894C182.191 44.4894 182.94 44.2551 183.344 43.7864C183.749 43.3177 183.951 42.6974 183.951 41.9255V41.7187H181.098V38.245Z" fill="#FF16B0"/>
</svg>
