<svg width="356" height="52" viewBox="0 0 356 52" fill="none" xmlns="http://www.w3.org/2000/svg">
<path d="M1.05362 18.0085V15.4447H13.9005V18.0085H1.05362ZM29.3112 15.4309H16.4643V12.867H29.3112V15.4309ZM29.3112 20.5724H16.4643V18.0085H29.3112V20.5724ZM31.875 25.8793V23.3154H44.7219V25.8793H31.875ZM47.2858 25.8793V23.3154H60.1326V25.8793H47.2858ZM70.8567 23.3154H67.3831V19.8418H70.8567V23.3154ZM86.2674 23.3154H82.7938V19.8418H86.2674V23.3154ZM106.365 25.7414L104.242 26.789L93.6833 5.53384L95.8061 4.48624L106.365 25.7414ZM108.929 25.8793V23.3154H121.775V25.8793H108.929ZM124.339 25.8793V23.3154H137.186V25.8793H124.339ZM147.455 28.4569H141.473V25.8793H144.892V5.32708H141.473V2.76322H147.455V28.4569ZM160.302 23.536C158.703 23.3338 157.435 22.7549 156.498 21.7992C155.57 20.8343 155.032 19.6259 154.885 18.1739L157.532 17.7604C157.872 19.5248 158.795 20.5862 160.302 20.9446V14.9071C159.696 14.659 159.098 14.3971 158.51 14.1214C157.931 13.8365 157.417 13.4873 156.966 13.0738C156.516 12.6603 156.153 12.1778 155.878 11.6264C155.611 11.0659 155.478 10.3997 155.478 9.62774C155.478 8.46068 155.9 7.46362 156.746 6.63657C157.591 5.80952 158.777 5.29951 160.302 5.10653V2.76322H162.866V5.16167C163.601 5.29032 164.258 5.51546 164.837 5.83709C165.425 6.15872 165.926 6.54927 166.34 7.00875C166.753 7.46822 167.075 7.98742 167.305 8.56636C167.544 9.1361 167.681 9.73342 167.718 10.3583L165.044 10.6616C164.833 9.14529 164.107 8.18959 162.866 7.79444V12.9497C163.491 13.1978 164.107 13.4735 164.713 13.7768C165.329 14.08 165.876 14.4522 166.353 14.8933C166.831 15.3344 167.222 15.8582 167.525 16.4647C167.828 17.062 167.98 17.7834 167.98 18.6288C167.98 19.2353 167.861 19.8097 167.622 20.3518C167.392 20.894 167.056 21.3902 166.615 21.8405C166.183 22.2816 165.65 22.6492 165.016 22.9433C164.392 23.2281 163.675 23.4257 162.866 23.536V25.8793H160.302V23.536ZM165.127 18.6288C165.127 17.9672 164.915 17.4342 164.493 17.0298C164.07 16.6255 163.528 16.2625 162.866 15.9409V20.9446C163.564 20.8159 164.116 20.5632 164.52 20.1864C164.925 19.8097 165.127 19.2904 165.127 18.6288ZM158.317 9.60017C158.317 10.1423 158.501 10.5926 158.869 10.951C159.236 11.3094 159.714 11.631 160.302 11.9159V7.69795C159.677 7.81742 159.19 8.03337 158.841 8.34581C158.492 8.64906 158.317 9.06718 158.317 9.60017ZM177.974 15.169L181.861 12.4673L183.225 14.8657L178.952 16.892L183.225 18.9045L181.861 21.3029L177.974 18.5875L178.36 23.3016H175.63L176.016 18.5875L172.129 21.3029L170.764 18.9045L175.038 16.892L170.764 14.8657L172.129 12.4673L176.016 15.169L175.63 10.4548H178.36L177.974 15.169ZM191.124 23.536C189.525 23.3338 188.257 22.7549 187.319 21.7992C186.391 20.8343 185.854 19.6259 185.706 18.1739L188.353 17.7604C188.693 19.5248 189.617 20.5862 191.124 20.9446V14.9071C190.517 14.659 189.92 14.3971 189.332 14.1214C188.753 13.8365 188.238 13.4873 187.788 13.0738C187.338 12.6603 186.975 12.1778 186.699 11.6264C186.432 11.0659 186.299 10.3997 186.299 9.62774C186.299 8.46068 186.722 7.46362 187.567 6.63657C188.413 5.80952 189.598 5.29951 191.124 5.10653V2.76322H193.688V5.16167C194.423 5.29032 195.08 5.51546 195.659 5.83709C196.247 6.15872 196.748 6.54927 197.161 7.00875C197.575 7.46822 197.896 7.98742 198.126 8.56636C198.365 9.1361 198.503 9.73342 198.54 10.3583L195.865 10.6616C195.654 9.14529 194.928 8.18959 193.688 7.79444V12.9497C194.312 13.1978 194.928 13.4735 195.535 13.7768C196.15 14.08 196.697 14.4522 197.175 14.8933C197.653 15.3344 198.043 15.8582 198.347 16.4647C198.65 17.062 198.801 17.7834 198.801 18.6288C198.801 19.2353 198.682 19.8097 198.443 20.3518C198.213 20.894 197.878 21.3902 197.437 21.8405C197.005 22.2816 196.472 22.6492 195.838 22.9433C195.213 23.2281 194.496 23.4257 193.688 23.536V25.8793H191.124V23.536ZM195.948 18.6288C195.948 17.9672 195.737 17.4342 195.314 17.0298C194.891 16.6255 194.349 16.2625 193.688 15.9409V20.9446C194.386 20.8159 194.937 20.5632 195.342 20.1864C195.746 19.8097 195.948 19.2904 195.948 18.6288ZM189.139 9.60017C189.139 10.1423 189.323 10.5926 189.69 10.951C190.058 11.3094 190.536 11.631 191.124 11.9159V7.69795C190.499 7.81742 190.012 8.03337 189.663 8.34581C189.313 8.64906 189.139 9.06718 189.139 9.60017ZM212.517 28.4569H206.534V2.76322H212.517V5.32708H209.098V25.8793H212.517V28.4569ZM216.804 25.8793V23.3154H229.65V25.8793H216.804ZM232.214 25.8793V23.3154H245.061V25.8793H232.214ZM258.349 4.48624L260.472 5.53384L249.913 26.789L247.79 25.7414L258.349 4.48624ZM271.196 23.3154H267.722V19.8418H271.196V23.3154ZM286.607 23.3154H283.133V19.8418H286.607V23.3154ZM293.857 25.8793V23.3154H306.704V25.8793H293.857ZM309.268 25.8793V23.3154H322.115V25.8793H309.268ZM337.525 15.4309H324.679V12.867H337.525V15.4309ZM337.525 20.5724H324.679V18.0085H337.525V20.5724ZM340.089 18.0085V15.4447H352.936V18.0085H340.089Z" fill="#FF16B0"/>
<path d="M181.089 32.4761C181.089 33.1561 180.965 33.7534 180.717 34.2681C180.478 34.7735 180.179 35.2421 179.821 35.674C179.462 36.1059 179.067 36.5149 178.635 36.9008C178.203 37.2868 177.808 37.6865 177.45 38.1001C177.091 38.5136 176.788 38.9731 176.54 39.4785C176.301 39.9747 176.182 40.5399 176.182 41.1739H173.246C173.246 40.4204 173.365 39.7496 173.604 39.1614C173.852 38.5641 174.165 38.0265 174.541 37.5487C174.918 37.0708 175.318 36.6297 175.741 36.2254C176.163 35.8211 176.563 35.4213 176.94 35.0262C177.317 34.631 177.624 34.2267 177.863 33.8132C178.111 33.3997 178.236 32.9448 178.236 32.4485C178.236 31.8512 178.056 31.3918 177.698 31.0701C177.349 30.7485 176.871 30.5877 176.264 30.5877C175.364 30.5877 174.707 30.8404 174.293 31.3458C173.88 31.842 173.622 32.5313 173.521 33.4134L170.875 33.0137C171.04 31.4699 171.569 30.2523 172.46 29.3609C173.361 28.4695 174.619 28.0238 176.237 28.0238C177.762 28.0238 178.952 28.4282 179.807 29.2368C180.662 30.0455 181.089 31.1253 181.089 32.4761ZM176.719 46.3154H173.246V42.8418H176.719V46.3154Z" fill="#FF16B0"/>
</svg>
