<svg width="356" height="57" viewBox="0 0 356 57" fill="none" xmlns="http://www.w3.org/2000/svg">
<path d="M7.35299 17.4907L5.71267 19.1448L1.2466 14.6373L5.71267 10.0886L7.35299 11.7564L4.5548 14.6373L7.35299 17.4907ZM12.4531 17.4907L10.8266 19.1448L6.36053 14.6373L10.8266 10.0886L12.4531 11.7564L9.66873 14.6373L12.4531 17.4907ZM29.3112 18.3039H24.1697V23.4316H21.6058V18.3039H16.4643V15.7263H21.6058V10.5986H24.1697V15.7263H29.3112V18.3039ZM44.7219 15.7263H31.875V13.1624H44.7219V15.7263ZM44.7219 20.8678H31.875V18.3039H44.7219V20.8678ZM56.1214 21.0332L52.3445 28.7386H50.1666L52.7305 21.0332H56.1214ZM75.5433 15.7263H62.6965V13.1624H75.5433V15.7263ZM75.5433 20.8678H62.6965V18.3039H75.5433V20.8678ZM90.954 15.7263H78.1072V13.1624H90.954V15.7263ZM90.954 20.8678H78.1072V18.3039H90.954V20.8678ZM106.365 15.7263H93.5179V13.1624H106.365V15.7263ZM106.365 20.8678H93.5179V18.3039H106.365V20.8678ZM108.929 26.1747V23.6108H121.775V26.1747H108.929ZM129.481 23.8314C127.882 23.6292 126.614 23.0503 125.676 22.0946C124.748 21.1297 124.211 19.9213 124.064 18.4693L126.71 18.0558C127.05 19.8202 127.974 20.8816 129.481 21.24V15.2025C128.874 14.9544 128.277 14.6925 127.689 14.4168C127.11 14.1319 126.595 13.7827 126.145 13.3692C125.695 12.9557 125.332 12.4732 125.056 11.9219C124.79 11.3613 124.656 10.6951 124.656 9.92315C124.656 8.75609 125.079 7.75903 125.924 6.93198C126.77 6.10493 127.955 5.59492 129.481 5.40194V3.05863H132.045V5.45708C132.78 5.58573 133.437 5.81087 134.016 6.1325C134.604 6.45413 135.105 6.84468 135.518 7.30416C135.932 7.76363 136.253 8.28283 136.483 8.86177C136.722 9.43151 136.86 10.0288 136.897 10.6537L134.223 10.957C134.011 9.4407 133.285 8.485 132.045 8.08985V13.2451C132.67 13.4933 133.285 13.7689 133.892 14.0722C134.507 14.3754 135.054 14.7476 135.532 15.1887C136.01 15.6298 136.4 16.1536 136.704 16.7601C137.007 17.3574 137.159 18.0788 137.159 18.9242C137.159 19.5307 137.039 20.1051 136.8 20.6472C136.57 21.1894 136.235 21.6856 135.794 22.1359C135.362 22.577 134.829 22.9446 134.195 23.2387C133.57 23.5235 132.853 23.7211 132.045 23.8314V26.1747H129.481V23.8314ZM134.305 18.9242C134.305 18.2626 134.094 17.7296 133.671 17.3253C133.248 16.9209 132.706 16.5579 132.045 16.2363V21.24C132.743 21.1113 133.294 20.8586 133.699 20.4818C134.103 20.1051 134.305 19.5859 134.305 18.9242ZM127.496 9.89558C127.496 10.4378 127.68 10.888 128.047 11.2464C128.415 11.6048 128.893 11.9265 129.481 12.2113V7.99336C128.856 8.11283 128.369 8.32878 128.02 8.64122C127.67 8.94447 127.496 9.36259 127.496 9.89558ZM150.846 28.7523H148.724C148.163 28.7523 147.644 28.6558 147.166 28.4629C146.697 28.2791 146.293 28.0126 145.953 27.6634C145.622 27.3142 145.36 26.9053 145.167 26.4366C144.983 25.9679 144.892 25.4487 144.892 24.879V19.0069C144.892 18.2534 144.676 17.7663 144.244 17.5458C143.812 17.3161 143.169 17.2012 142.314 17.2012V14.6373C143.169 14.6373 143.812 14.5317 144.244 14.3203C144.676 14.0998 144.892 13.6035 144.892 12.8316V6.95955C144.892 6.3898 144.983 5.8706 145.167 5.40194C145.36 4.93328 145.622 4.52435 145.953 4.17515C146.293 3.82595 146.697 3.55486 147.166 3.36188C147.644 3.15971 148.163 3.05863 148.724 3.05863H150.846V5.62249H148.724C148.236 5.62249 147.901 5.72357 147.717 5.92574C147.543 6.11872 147.455 6.46332 147.455 6.95955V12.8316C147.455 13.6954 147.189 14.3984 146.656 14.9406C146.132 15.4736 145.535 15.8044 144.864 15.9331C145.204 15.9882 145.526 16.0985 145.829 16.2639C146.141 16.4201 146.412 16.636 146.642 16.9117C146.881 17.1782 147.074 17.4907 147.221 17.8491C147.377 18.2074 147.455 18.5934 147.455 19.0069V24.879C147.455 25.366 147.543 25.706 147.717 25.899C147.901 26.1012 148.236 26.2023 148.724 26.2023H150.846V28.7523ZM160.33 15.7952C160.33 16.8428 160.445 17.8904 160.674 18.938C160.913 19.9856 161.258 20.9918 161.708 21.9567C162.159 22.9124 162.714 23.8176 163.376 24.6722C164.038 25.5268 164.791 26.285 165.637 26.9466L163.886 28.6972C162.903 27.9253 162.03 27.0477 161.267 26.0644C160.504 25.0903 159.866 24.0473 159.351 22.9354C158.837 21.8235 158.441 20.6656 158.166 19.4618C157.89 18.258 157.752 17.0358 157.752 15.7952C157.752 14.5546 157.89 13.3324 158.166 12.1286C158.441 10.9156 158.837 9.75774 159.351 8.65501C159.866 7.54308 160.504 6.50008 161.267 5.526C162.03 4.54272 162.903 3.66513 163.886 2.89322L165.637 4.64381C164.791 5.29626 164.038 6.05439 163.376 6.9182C162.714 7.77282 162.159 8.68257 161.708 9.64747C161.258 10.6032 160.913 11.6048 160.674 12.6524C160.445 13.6908 160.33 14.7384 160.33 15.7952ZM170.117 14.6098C170.117 13.406 170.245 12.2435 170.503 11.1224C170.76 10.0013 171.16 9.01339 171.702 8.15877C172.244 7.30416 172.952 6.61954 173.825 6.10493C174.707 5.58113 175.768 5.31923 177.009 5.31923C178.249 5.31923 179.306 5.58113 180.179 6.10493C181.061 6.61954 181.778 7.30416 182.329 8.15877C182.881 9.01339 183.28 10.0013 183.529 11.1224C183.777 12.2435 183.901 13.406 183.901 14.6098C183.901 15.8136 183.777 16.9761 183.529 18.0972C183.28 19.2091 182.885 20.2016 182.343 21.0746C181.801 21.9384 181.089 22.6322 180.207 23.156C179.334 23.6706 178.268 23.9279 177.009 23.9279C175.75 23.9279 174.679 23.6706 173.797 23.156C172.924 22.6322 172.212 21.9384 171.66 21.0746C171.118 20.2016 170.728 19.2091 170.489 18.0972C170.241 16.9761 170.117 15.8136 170.117 14.6098ZM172.97 14.6098C172.97 15.4552 173.025 16.2731 173.135 17.0634L180.193 9.97829C179.88 9.3534 179.467 8.84798 178.952 8.46203C178.447 8.07607 177.799 7.88309 177.009 7.88309C175.695 7.88309 174.693 8.47581 174.004 9.66125C173.315 10.8467 172.97 12.4962 172.97 14.6098ZM177.009 21.3502C177.817 21.3502 178.479 21.1527 178.994 20.7575C179.517 20.3624 179.926 19.8478 180.22 19.2137C180.524 18.5704 180.735 17.8445 180.854 17.0358C180.983 16.2271 181.047 15.4184 181.047 14.6098C181.047 13.8379 180.992 13.0843 180.882 12.3492L173.88 19.3791C174.192 19.9764 174.592 20.4543 175.079 20.8127C175.575 21.171 176.218 21.3502 177.009 21.3502ZM193.715 15.8228C193.715 14.766 193.596 13.7184 193.357 12.68C193.127 11.6324 192.787 10.6307 192.337 9.67503C191.886 8.71014 191.33 7.80039 190.669 6.94577C190.007 6.08196 189.254 5.32383 188.408 4.67138L190.159 2.92079C191.142 3.6927 192.006 4.57029 192.75 5.55356C193.504 6.52765 194.142 7.57065 194.666 8.68257C195.199 9.78531 195.604 10.9432 195.879 12.1562C196.155 13.36 196.293 14.5822 196.293 15.8228C196.293 17.0634 196.155 18.2856 195.879 19.4894C195.604 20.6932 195.199 21.8511 194.666 22.963C194.142 24.0749 193.504 25.1179 192.75 26.092C192.006 27.0753 191.142 27.9529 190.159 28.7248L188.408 26.9742C189.254 26.3125 190.007 25.5544 190.669 24.6998C191.33 23.8452 191.886 22.94 192.337 21.9843C192.787 21.0194 193.127 20.0132 193.357 18.9656C193.596 17.918 193.715 16.8704 193.715 15.8228ZM203.143 26.2023H205.266C205.753 26.2023 206.084 26.1012 206.259 25.899C206.442 25.706 206.534 25.366 206.534 24.879V18.9518C206.534 18.5383 206.608 18.1523 206.755 17.7939C206.911 17.4355 207.104 17.1231 207.334 16.8566C207.573 16.5809 207.844 16.365 208.147 16.2087C208.46 16.0433 208.786 15.9331 209.126 15.8779C208.446 15.7493 207.844 15.4184 207.32 14.8855C206.796 14.3433 206.534 13.6403 206.534 12.7765V6.90441C206.534 6.40818 206.442 6.07277 206.259 5.89817C206.084 5.71438 205.753 5.62249 205.266 5.62249H203.143V3.05863H205.266C205.827 3.05863 206.341 3.15512 206.81 3.3481C207.279 3.53189 207.683 3.79378 208.023 4.13379C208.363 4.4738 208.625 4.87814 208.809 5.3468C209.002 5.81546 209.098 6.33467 209.098 6.90441V12.7765C209.098 13.5484 209.314 14.0446 209.746 14.2652C210.178 14.4765 210.817 14.5822 211.662 14.5822V17.1461C210.817 17.1461 210.178 17.2609 209.746 17.4907C209.314 17.7112 209.098 18.1983 209.098 18.9518V24.879C209.098 25.4487 209.002 25.9679 208.809 26.4366C208.625 26.9053 208.363 27.3142 208.023 27.6634C207.683 28.0126 207.279 28.2791 206.81 28.4629C206.341 28.6558 205.827 28.7523 205.266 28.7523H203.143V26.2023ZM221.945 23.8314C220.346 23.6292 219.078 23.0503 218.141 22.0946C217.213 21.1297 216.675 19.9213 216.528 18.4693L219.174 18.0558C219.514 19.8202 220.438 20.8816 221.945 21.24V15.2025C221.339 14.9544 220.741 14.6925 220.153 14.4168C219.574 14.1319 219.06 13.7827 218.609 13.3692C218.159 12.9557 217.796 12.4732 217.52 11.9219C217.254 11.3613 217.121 10.6951 217.121 9.92315C217.121 8.75609 217.543 7.75903 218.389 6.93198C219.234 6.10493 220.42 5.59492 221.945 5.40194V3.05863H224.509V5.45708C225.244 5.58573 225.901 5.81087 226.48 6.1325C227.068 6.45413 227.569 6.84468 227.983 7.30416C228.396 7.76363 228.718 8.28283 228.947 8.86177C229.186 9.43151 229.324 10.0288 229.361 10.6537L226.687 10.957C226.475 9.4407 225.75 8.485 224.509 8.08985V13.2451C225.134 13.4933 225.75 13.7689 226.356 14.0722C226.972 14.3754 227.518 14.7476 227.996 15.1887C228.474 15.6298 228.865 16.1536 229.168 16.7601C229.471 17.3574 229.623 18.0788 229.623 18.9242C229.623 19.5307 229.503 20.1051 229.264 20.6472C229.035 21.1894 228.699 21.6856 228.258 22.1359C227.826 22.577 227.293 22.9446 226.659 23.2387C226.034 23.5235 225.318 23.7211 224.509 23.8314V26.1747H221.945V23.8314ZM226.77 18.9242C226.77 18.2626 226.558 17.7296 226.135 17.3253C225.713 16.9209 225.171 16.5579 224.509 16.2363V21.24C225.207 21.1113 225.759 20.8586 226.163 20.4818C226.567 20.1051 226.77 19.5859 226.77 18.9242ZM219.96 9.89558C219.96 10.4378 220.144 10.888 220.512 11.2464C220.879 11.6048 221.357 11.9265 221.945 12.2113V7.99336C221.32 8.11283 220.833 8.32878 220.484 8.64122C220.135 8.94447 219.96 9.36259 219.96 9.89558ZM232.214 26.1747V23.6108H245.061V26.1747H232.214ZM260.472 15.7263H247.625V13.1624H260.472V15.7263ZM260.472 20.8678H247.625V18.3039H260.472V20.8678ZM275.883 15.7263H263.036V13.1624H275.883V15.7263ZM275.883 20.8678H263.036V18.3039H275.883V20.8678ZM291.293 15.7263H278.446V13.1624H291.293V15.7263ZM291.293 20.8678H278.446V18.3039H291.293V20.8678ZM302.693 21.0332L298.916 28.7386H296.738L299.302 21.0332H302.693ZM322.115 15.7263H309.268V13.1624H322.115V15.7263ZM322.115 20.8678H309.268V18.3039H322.115V20.8678ZM337.525 18.3039H332.384V23.4316H329.82V18.3039H324.679V15.7263H329.82V10.5986H332.384V15.7263H337.525V18.3039ZM349.463 14.6373L346.664 11.7564L348.305 10.0886L352.771 14.6373L348.305 19.1448L346.664 17.4907L349.463 14.6373ZM344.349 14.6373L341.55 11.7564L343.191 10.0886L347.657 14.6373L343.191 19.1448L341.55 17.4907L344.349 14.6373Z" fill="#FF16B0"/>
<path d="M154.759 43.4644L158.646 40.7627L160.011 43.1611L155.738 45.1874L160.011 47.1999L158.646 49.5983L154.759 46.8829L155.145 51.5971H152.416L152.802 46.8829L148.915 49.5983L147.55 47.1999L151.823 45.1874L147.55 43.1611L148.915 40.7627L152.802 43.4644L152.416 38.7502H155.145L154.759 43.4644ZM174.195 50.3978L172.568 52.0519L165.511 44.9944L172.568 37.9369L174.195 39.6048L168.805 44.9944L174.195 50.3978ZM184.988 44.9944L179.585 39.6048L181.225 37.9369L188.282 44.9944L181.225 52.0519L179.585 50.3978L184.988 44.9944ZM200.991 43.4644L204.879 40.7627L206.243 43.1611L201.97 45.1874L206.243 47.1999L204.879 49.5983L200.991 46.8829L201.377 51.5971H198.648L199.034 46.8829L195.147 49.5983L193.782 47.1999L198.055 45.1874L193.782 43.1611L195.147 40.7627L199.034 43.4644L198.648 38.7502H201.377L200.991 43.4644Z" fill="#FF16B0"/>
</svg>
