<svg width="243" height="195" viewBox="0 0 243 195" fill="none" xmlns="http://www.w3.org/2000/svg">
<rect x="19.5059" y="0.131836" width="223" height="180" rx="24" fill="#FF16B0"/>
<path d="M0.505859 194.132L20.5059 154.632L25.2904 142.166L38.7216 155.791L57.6032 167.082L67.92 174.089L54.0059 179.132L0.505859 194.132Z" fill="#FF16B0"/>
<path d="M22.133 157.667C22.1982 158.318 22.1681 158.682 21.8896 159.304C21.7913 159.523 21.6786 159.716 21.5538 159.921C21.4317 160.121 21.3166 160.325 21.2012 160.529C21.1649 160.594 21.1203 160.775 21.0794 160.714C20.9503 160.52 21.3267 159.917 21.4195 159.74C21.6744 159.253 22.6141 157.895 22.3261 158.363C22.1286 158.684 21.9259 159.017 21.7133 159.329C21.6007 159.494 21.0752 160.221 21.0752 160.185C21.0752 159.286 21.5437 158.552 21.9735 157.784C22.1513 157.467 22.2297 157.083 22.494 156.819C22.719 156.594 22.9974 156.398 23.1531 156.118C23.6043 155.306 24.4762 154.77 25.2309 154.267" stroke="#FF16B0" stroke-width="3" stroke-linecap="round"/>
<path d="M21.303 161.143C21.0609 161.304 21.0764 161.863 21.0764 162.137C21.0764 162.579 21.3312 163.098 21.5381 163.489C21.8877 164.149 22.5407 164.619 23.0828 165.109C23.4561 165.447 23.9878 165.653 24.2917 166.058C24.7055 166.61 25.283 167.006 25.7021 167.565C26.065 168.049 26.3862 168.822 26.5752 169.403C26.8469 170.239 26.8781 171.172 27.0789 172.031C27.2711 172.853 27.6904 173.681 28.1787 174.365" stroke="#FF16B0" stroke-width="3" stroke-linecap="round"/>
<path d="M21.6035 165.449C21.6484 165.853 21.8398 166.25 22.0569 166.591C22.4371 167.188 22.6997 167.921 23.0391 168.547C23.6972 169.762 24.6918 170.725 25.8347 171.494C27.4308 172.568 28.9852 173.639 30.494 174.839C31.5217 175.657 32.5151 176.723 33.6926 177.312" stroke="#FF16B0" stroke-width="3" stroke-linecap="round"/>
<path d="M34.2982 175.951C34.1972 176.221 34.812 176.767 34.995 176.95C35.2843 177.239 35.5944 177.378 35.9605 177.555C36.7789 177.95 37.6539 178.269 38.5378 178.487C39.2734 178.668 39.9688 178.858 40.645 178.52" stroke="#FF16B0" stroke-width="3" stroke-linecap="round"/>
<path d="M41.0977 178.444C41.1322 178.721 42.2958 178.671 42.55 178.671C43.9296 178.671 45.3092 178.671 46.6888 178.671" stroke="#FF16B0" stroke-width="3" stroke-linecap="round"/>
<path d="M46.3867 177.613C46.9534 177.613 47.5201 177.613 48.0867 177.613C48.4553 177.613 49.0255 177.709 49.3712 177.576C49.8588 177.388 50.5131 177.352 51.046 177.294C51.9976 177.191 53.1139 177.084 54.0179 176.782" stroke="#FF16B0" stroke-width="3" stroke-linecap="round"/>
<path d="M47.5957 177.765C47.6918 177.777 47.6984 178.121 47.7468 178.218" stroke="#FF16B0" stroke-width="3" stroke-linecap="round"/>
<path d="M23.1905 155.098C22.6287 155.168 22.9378 156.18 22.796 156.5C22.6259 156.882 22.5712 157.609 22.3006 157.91C21.9733 158.274 21.8014 158.825 21.587 159.253C21.3692 159.689 21.1357 160.114 20.9238 160.538" stroke="#FF16B0" stroke-width="3" stroke-linecap="round"/>
<path d="M20.7852 160.038C20.8045 160.036 20.8943 159.941 20.9057 159.918" stroke="#FF16B0" stroke-width="3" stroke-linecap="round"/>
<path d="M20.9453 159.899C20.9524 159.842 21.0395 159.77 21.0658 159.718" stroke="#FF16B0" stroke-width="3" stroke-linecap="round"/>
<path d="M21.2266 159.597C21.2266 159.542 21.3015 159.399 21.3471 159.376" stroke="#FF16B0" stroke-width="3" stroke-linecap="round"/>
<path d="M21.448 159.215C21.3746 159.249 21.2594 159.28 21.207 159.345C21.1712 159.39 21.1153 159.443 21.0664 159.476" stroke="#FF16B0" stroke-width="3" stroke-linecap="round"/>
<path d="M20.041 158.974C20.2126 158.822 20.453 158.789 20.6079 158.617C20.6424 158.579 20.8422 158.484 20.8422 158.443C20.8422 158.432 20.7806 158.483 20.7797 158.483C20.7399 158.508 20.6735 158.525 20.6436 158.562C20.6194 158.593 20.5568 158.636 20.5231 158.653" stroke="#FF16B0" stroke-linecap="round"/>
<path d="M95.7402 40.8887C95.7402 42.373 95.903 43.8574 96.2285 45.3418C96.5671 46.8262 97.0553 48.252 97.6934 49.6191C98.3314 50.9733 99.1191 52.2559 100.057 53.4668C100.994 54.6777 102.062 55.752 103.26 56.6895L100.779 59.1699C99.3861 58.0762 98.1491 56.8327 97.0684 55.4395C95.9876 54.0592 95.0827 52.5814 94.3535 51.0059C93.6243 49.4303 93.0645 47.7897 92.6738 46.084C92.2832 44.3783 92.0879 42.6465 92.0879 40.8887C92.0879 39.1309 92.2832 37.3991 92.6738 35.6934C93.0645 33.9746 93.6243 32.334 94.3535 30.7715C95.0827 29.196 95.9876 27.7181 97.0684 26.3379C98.1491 24.9447 99.3861 23.7012 100.779 22.6074L103.26 25.0879C102.062 26.0124 100.994 27.0866 100.057 28.3105C99.1191 29.5215 98.3314 30.8105 97.6934 32.1777C97.0553 33.5319 96.5671 34.9512 96.2285 36.4355C95.903 37.9069 95.7402 39.3913 95.7402 40.8887ZM128.455 55.4004L125.447 56.8848L110.486 26.7676L113.494 25.2832L128.455 55.4004ZM132.088 55.5957V51.9629H150.291V55.5957H132.088ZM169.119 25.2832L172.127 26.7676L157.166 56.8848L154.158 55.4004L169.119 25.2832ZM186.717 40.9277C186.717 39.4303 186.548 37.946 186.209 36.4746C185.883 34.9902 185.402 33.571 184.764 32.2168C184.126 30.8496 183.338 29.5605 182.4 28.3496C181.463 27.1257 180.395 26.0514 179.197 25.127L181.678 22.6465C183.071 23.7402 184.295 24.9837 185.35 26.377C186.417 27.7572 187.322 29.235 188.064 30.8105C188.82 32.373 189.393 34.0137 189.783 35.7324C190.174 37.4382 190.369 39.1699 190.369 40.9277C190.369 42.6855 190.174 44.4173 189.783 46.123C189.393 47.8288 188.82 49.4694 188.064 51.0449C187.322 52.6204 186.417 54.0983 185.35 55.4785C184.295 56.8717 183.071 58.1152 181.678 59.209L179.197 56.7285C180.395 55.791 181.463 54.7168 182.4 53.5059C183.338 52.2949 184.126 51.0124 184.764 49.6582C185.402 48.291 185.883 46.8652 186.209 45.3809C186.548 43.8965 186.717 42.4121 186.717 40.9277ZM117.576 86.8887C117.576 88.373 117.739 89.8574 118.064 91.3418C118.403 92.8262 118.891 94.252 119.529 95.6191C120.167 96.9733 120.955 98.2559 121.893 99.4668C122.83 100.678 123.898 101.752 125.096 102.689L122.615 105.17C121.222 104.076 119.985 102.833 118.904 101.439C117.824 100.059 116.919 98.5814 116.189 97.0059C115.46 95.4303 114.9 93.7897 114.51 92.084C114.119 90.3783 113.924 88.6465 113.924 86.8887C113.924 85.1309 114.119 83.3991 114.51 81.6934C114.9 79.9746 115.46 78.334 116.189 76.7715C116.919 75.196 117.824 73.7181 118.904 72.3379C119.985 70.9447 121.222 69.7012 122.615 68.6074L125.096 71.0879C123.898 72.0124 122.83 73.0866 121.893 74.3105C120.955 75.5215 120.167 76.8105 119.529 78.1777C118.891 79.5319 118.403 80.9512 118.064 82.4355C117.739 83.9069 117.576 85.3913 117.576 86.8887ZM143.65 97.9629H138.729V93.041H143.65V97.9629ZM165.486 97.9629H160.564V93.041H165.486V97.9629ZM186.717 86.9277C186.717 85.4303 186.548 83.946 186.209 82.4746C185.883 80.9902 185.402 79.571 184.764 78.2168C184.126 76.8496 183.338 75.5605 182.4 74.3496C181.463 73.1257 180.395 72.0514 179.197 71.127L181.678 68.6465C183.071 69.7402 184.295 70.9837 185.35 72.377C186.417 73.7572 187.322 75.235 188.064 76.8105C188.82 78.373 189.393 80.0137 189.783 81.7324C190.174 83.4382 190.369 85.1699 190.369 86.9277C190.369 88.6855 190.174 90.4173 189.783 92.123C189.393 93.8288 188.82 95.4694 188.064 97.0449C187.322 98.6204 186.417 100.098 185.35 101.479C184.295 102.872 183.071 104.115 181.678 105.209L179.197 102.729C180.395 101.791 181.463 100.717 182.4 99.5059C183.338 98.2949 184.126 97.0124 184.764 95.6582C185.402 94.291 185.883 92.8652 186.209 91.3809C186.548 89.8965 186.717 88.4121 186.717 86.9277ZM96.0918 136.17C95.7793 137.42 95.3626 138.553 94.8418 139.568C94.321 140.584 93.6829 141.45 92.9277 142.166C92.1855 142.882 91.3132 143.436 90.3105 143.826C89.321 144.217 88.1816 144.412 86.8926 144.412C85.1087 144.412 83.5983 144.048 82.3613 143.318C81.1243 142.576 80.1087 141.593 79.3145 140.369C78.5332 139.132 77.9668 137.726 77.6152 136.15C77.2767 134.562 77.1074 132.915 77.1074 131.209C77.1074 129.503 77.2767 127.856 77.6152 126.268C77.9668 124.679 78.5267 123.279 79.2949 122.068C80.0762 120.857 81.0658 119.887 82.2637 119.158C83.4616 118.416 84.9264 118.045 86.6582 118.045C87.2181 118.045 87.7845 118.117 88.3574 118.26C88.9303 118.403 89.4642 118.624 89.959 118.924C90.4538 119.21 90.8835 119.568 91.248 119.998C91.6257 120.428 91.8926 120.923 92.0488 121.482V118.475H95.7012V128.123H92.0488C92.0488 127.329 91.9512 126.548 91.7559 125.779C91.5605 124.998 91.248 124.308 90.8184 123.709C90.3887 123.11 89.8483 122.622 89.1973 122.244C88.5462 121.867 87.778 121.678 86.8926 121.678C85.7467 121.678 84.8092 121.958 84.0801 122.518C83.3509 123.077 82.765 123.813 82.3223 124.725C81.8796 125.636 81.5671 126.658 81.3848 127.791C81.2155 128.924 81.1309 130.063 81.1309 131.209C81.1309 132.355 81.2155 133.501 81.3848 134.646C81.5671 135.792 81.873 136.821 82.3027 137.732C82.7324 138.631 83.3184 139.36 84.0605 139.92C84.8027 140.48 85.7467 140.76 86.8926 140.76C88.5462 140.76 89.8158 140.232 90.7012 139.178C91.5996 138.123 92.3158 136.704 92.8496 134.92L96.0918 136.17ZM106.658 132.889C106.658 134.373 106.821 135.857 107.146 137.342C107.485 138.826 107.973 140.252 108.611 141.619C109.249 142.973 110.037 144.256 110.975 145.467C111.912 146.678 112.98 147.752 114.178 148.689L111.697 151.17C110.304 150.076 109.067 148.833 107.986 147.439C106.906 146.059 106.001 144.581 105.271 143.006C104.542 141.43 103.982 139.79 103.592 138.084C103.201 136.378 103.006 134.646 103.006 132.889C103.006 131.131 103.201 129.399 103.592 127.693C103.982 125.975 104.542 124.334 105.271 122.771C106.001 121.196 106.906 119.718 107.986 118.338C109.067 116.945 110.304 115.701 111.697 114.607L114.178 117.088C112.98 118.012 111.912 119.087 110.975 120.311C110.037 121.521 109.249 122.811 108.611 124.178C107.973 125.532 107.485 126.951 107.146 128.436C106.821 129.907 106.658 131.391 106.658 132.889ZM128.455 130.682H121.17V125.486C121.17 124.575 121.287 123.702 121.521 122.869C121.769 122.023 122.179 121.274 122.752 120.623C123.325 119.972 124.074 119.451 124.998 119.061C125.936 118.67 127.088 118.475 128.455 118.475V121.834C127.674 121.834 127.023 121.925 126.502 122.107C125.981 122.277 125.564 122.524 125.252 122.85C124.952 123.162 124.738 123.54 124.607 123.982C124.477 124.425 124.412 124.926 124.412 125.486V125.76H128.455V130.682ZM139.373 130.682H132.088V125.486C132.088 124.575 132.205 123.702 132.439 122.869C132.687 122.023 133.097 121.274 133.67 120.623C134.243 119.972 134.992 119.451 135.916 119.061C136.854 118.67 138.006 118.475 139.373 118.475V121.834C138.592 121.834 137.941 121.925 137.42 122.107C136.912 122.277 136.502 122.524 136.189 122.85C135.877 123.162 135.656 123.54 135.525 123.982C135.395 124.425 135.33 124.926 135.33 125.486V125.76H139.373V130.682ZM153.963 132.928C153.963 131.43 153.794 129.946 153.455 128.475C153.13 126.99 152.648 125.571 152.01 124.217C151.372 122.85 150.584 121.561 149.646 120.35C148.709 119.126 147.641 118.051 146.443 117.127L148.924 114.646C150.317 115.74 151.541 116.984 152.596 118.377C153.663 119.757 154.568 121.235 155.311 122.811C156.066 124.373 156.639 126.014 157.029 127.732C157.42 129.438 157.615 131.17 157.615 132.928C157.615 134.686 157.42 136.417 157.029 138.123C156.639 139.829 156.066 141.469 155.311 143.045C154.568 144.62 153.663 146.098 152.596 147.479C151.541 148.872 150.317 150.115 148.924 151.209L146.443 148.729C147.641 147.791 148.709 146.717 149.646 145.506C150.584 144.295 151.372 143.012 152.01 141.658C152.648 140.291 153.13 138.865 153.455 137.381C153.794 135.896 153.963 134.412 153.963 132.928ZM172.166 132.889C172.166 134.373 172.329 135.857 172.654 137.342C172.993 138.826 173.481 140.252 174.119 141.619C174.757 142.973 175.545 144.256 176.482 145.467C177.42 146.678 178.488 147.752 179.686 148.689L177.205 151.17C175.812 150.076 174.575 148.833 173.494 147.439C172.413 146.059 171.508 144.581 170.779 143.006C170.05 141.43 169.49 139.79 169.1 138.084C168.709 136.378 168.514 134.646 168.514 132.889C168.514 131.131 168.709 129.399 169.1 127.693C169.49 125.975 170.05 124.334 170.779 122.771C171.508 121.196 172.413 119.718 173.494 118.338C174.575 116.945 175.812 115.701 177.205 114.607L179.686 117.088C178.488 118.012 177.42 119.087 176.482 120.311C175.545 121.521 174.757 122.811 174.119 124.178C173.481 125.532 172.993 126.951 172.654 128.436C172.329 129.907 172.166 131.391 172.166 132.889ZM193.963 130.682H186.678V125.486C186.678 124.575 186.795 123.702 187.029 122.869C187.277 122.023 187.687 121.274 188.26 120.623C188.833 119.972 189.581 119.451 190.506 119.061C191.443 118.67 192.596 118.475 193.963 118.475V121.834C193.182 121.834 192.531 121.925 192.01 122.107C191.489 122.277 191.072 122.524 190.76 122.85C190.46 123.162 190.245 123.54 190.115 123.982C189.985 124.425 189.92 124.926 189.92 125.486V125.76H193.963V130.682ZM204.881 130.682H197.596V125.486C197.596 124.575 197.713 123.702 197.947 122.869C198.195 122.023 198.605 121.274 199.178 120.623C199.751 119.972 200.499 119.451 201.424 119.061C202.361 118.67 203.514 118.475 204.881 118.475V121.834C204.1 121.834 203.449 121.925 202.928 122.107C202.42 122.277 202.01 122.524 201.697 122.85C201.385 123.162 201.163 123.54 201.033 123.982C200.903 124.425 200.838 124.926 200.838 125.486V125.76H204.881V130.682ZM219.471 132.928C219.471 131.43 219.301 129.946 218.963 128.475C218.637 126.99 218.156 125.571 217.518 124.217C216.88 122.85 216.092 121.561 215.154 120.35C214.217 119.126 213.149 118.051 211.951 117.127L214.432 114.646C215.825 115.74 217.049 116.984 218.104 118.377C219.171 119.757 220.076 121.235 220.818 122.811C221.574 124.373 222.146 126.014 222.537 127.732C222.928 129.438 223.123 131.17 223.123 132.928C223.123 134.686 222.928 136.417 222.537 138.123C222.146 139.829 221.574 141.469 220.818 143.045C220.076 144.62 219.171 146.098 218.104 147.479C217.049 148.872 215.825 150.115 214.432 151.209L211.951 148.729C213.149 147.791 214.217 146.717 215.154 145.506C216.092 144.295 216.88 143.012 217.518 141.658C218.156 140.291 218.637 138.865 218.963 137.381C219.301 135.896 219.471 134.412 219.471 132.928Z" fill="black"/>
</svg>
