<svg width="179" height="178" viewBox="0 0 179 178" fill="none" xmlns="http://www.w3.org/2000/svg">
<path d="M50.2546 33.1887C50.2546 34.4294 50.1167 35.6516 49.841 36.8554C49.5653 38.0593 49.161 39.2172 48.628 40.3292C48.1042 41.4411 47.4609 42.4842 46.6981 43.4583C45.9446 44.4416 45.0762 45.3192 44.0929 46.0911L43.1004 44.8505C43.9734 44.1521 44.7499 43.3572 45.43 42.4658C46.1192 41.5836 46.7027 40.6416 47.1806 39.6399C47.6677 38.6291 48.0307 37.5814 48.2696 36.497C48.5177 35.4035 48.6418 34.3007 48.6418 33.1887C48.6418 32.0768 48.5177 30.9694 48.2696 29.8666C48.0307 28.7639 47.6677 27.7117 47.1806 26.71C46.7027 25.6991 46.1192 24.7526 45.43 23.8703C44.7499 22.9881 43.9734 22.1978 43.1004 21.4994L44.0929 20.2588C45.0762 21.0307 45.9446 21.9083 46.6981 22.8916C47.4609 23.8657 48.1042 24.9088 48.628 26.0207C49.161 27.1235 49.5653 28.286 49.841 29.5082C50.1167 30.7213 50.2546 31.9481 50.2546 33.1887ZM63.0605 30.7075H60.4965V28.1298H63.0605V30.7075ZM63.0605 40.9771H60.4965V38.4131H63.0605V40.9771ZM83.6134 32.1687H70.7661V30.5283H83.6134V32.1687ZM83.6134 38.2339H70.7661V36.6211H83.6134V38.2339ZM99.0246 32.1687H86.1773V30.5283H99.0246V32.1687ZM99.0246 38.2339H86.1773V36.6211H99.0246V38.2339ZM114.436 35.1875H101.589V33.5747H114.436V35.1875ZM129.847 35.1875H117V33.5747H129.847V35.1875ZM145.258 35.1875H132.411V33.5747H145.258V35.1875ZM160.669 35.1875H147.822V33.5747H160.669V35.1875ZM176.081 35.1875H170.456V40.7979H168.857V35.1875H163.233V33.5747H168.857V27.9644H170.456V33.5747H176.081V35.1875Z" fill="#FF16B0"/>
<path d="M38.2987 40.9771H36.3964V25.9932L33.2122 35.2702H31.8613L28.6908 25.9932V40.9771H26.8023V22.9881H29.256L32.5367 32.3892L35.845 22.9881H38.2987V40.9771Z" fill="#FF16B0"/>
<path d="M34.1538 164.337V169.962H39.7642V171.561H34.1538V177.185H32.541V171.561H26.9307V169.962H32.541V164.337H34.1538ZM34.1538 148.926V161.774H32.541V148.926H34.1538ZM34.1538 133.515V146.362H32.541V133.515H34.1538ZM34.1538 118.104V130.951H32.541V118.104H34.1538ZM34.1538 102.693V115.54H32.541L32.541 102.693H34.1538ZM31.135 87.2814V100.129H29.4946V87.2814H31.135ZM37.2002 87.2814L37.2002 100.129H35.5874L35.5874 87.2814H37.2002ZM31.135 71.8702V84.7175H29.4946V71.8702H31.135ZM37.2002 71.8702V84.7175H35.5874V71.8702H37.2002ZM29.6738 61.6007V64.1646H27.0961V61.6007H29.6738ZM39.9434 61.6007V64.1646H37.3794V61.6007H39.9434ZM45.0575 45.1694C44.2855 46.1527 43.4079 47.0258 42.4246 47.7885C41.4505 48.5513 40.4074 49.1899 39.2955 49.7046C38.1835 50.2192 37.021 50.6144 35.808 50.89C34.5949 51.1657 33.3681 51.3036 32.1275 51.3036C30.8869 51.3036 29.6646 51.1657 28.4608 50.89C27.2477 50.6144 26.0898 50.2192 24.987 49.7046C23.8751 49.1899 22.8321 48.5513 21.8579 47.7885C20.8746 47.0258 19.997 46.1527 19.2251 45.1694L20.4657 44.1769C21.1641 45.05 21.9544 45.8311 22.8366 46.5203C23.7189 47.2004 24.6654 47.7793 25.6763 48.2572C26.678 48.7259 27.7256 49.0843 28.8192 49.3324C29.9128 49.5713 31.0155 49.6908 32.1275 49.6908C33.2578 49.6908 34.3698 49.5713 35.4634 49.3324C36.5477 49.0843 37.5908 48.7259 38.5925 48.2572C39.585 47.7793 40.5269 47.205 41.4183 46.5341C42.3189 45.8541 43.1184 45.0683 43.8168 44.1769L45.0575 45.1694Z" fill="#FF16B0"/>
<path d="M38.2791 15.3672H36.1838L31.8416 6.91718L27.5271 15.3672H25.4318L30.5735 5.08382H33.1098L38.2791 15.3672Z" fill="#FF16B0"/>
<path d="M15.5415 25.6091V27.7044L7.0915 32.0465L15.5415 36.3611V38.4564L5.25814 33.3147L5.25814 30.7784L15.5415 25.6091Z" fill="#FF16B0"/>
</svg>
