<svg width="360" height="80" viewBox="0 0 360 80" fill="none" xmlns="http://www.w3.org/2000/svg">
<path d="M12.1836 50.4239L10.557 52.0781L3.49932 45.0203L10.557 37.9626L12.1836 39.6306L6.79384 45.0203L12.1836 50.4239ZM23.5697 43.4903L27.457 40.7885L28.8217 43.187L24.5484 45.2133L28.8217 47.2259L27.457 49.6244L23.5697 46.9088L23.9557 51.6232H21.2263L21.6123 46.9088L17.725 49.6244L16.3604 47.2259L20.6336 45.2133L16.3604 43.187L17.725 40.7885L21.6123 43.4903L21.2263 38.7759H23.9557L23.5697 43.4903ZM31.5786 46.3299V43.7659H44.4259V46.3299H31.5786ZM46.9898 46.3299V43.7659H59.8371V46.3299H46.9898ZM62.401 46.3299V43.7659H75.2483V46.3299H62.401ZM77.8122 46.3299V43.7659H90.6595V46.3299H77.8122ZM93.2234 46.3299V43.7659H106.071V46.3299H93.2234ZM121.482 43.7522H108.635V41.1882H121.482V43.7522ZM121.482 48.8938H108.635V46.3299H121.482V48.8938ZM136.893 43.7522H124.046V41.1882H136.893V43.7522ZM136.893 48.8938H124.046V46.3299H136.893V48.8938Z" fill="#FF16B0"/>
<path d="M233.69 43.7522H220.843V41.1882H233.69V43.7522ZM233.69 48.8938H220.843V46.3299H233.69V48.8938ZM249.102 43.7522H236.254V41.1882H249.102V43.7522ZM249.102 48.8938H236.254V46.3299H249.102V48.8938ZM251.666 46.3299V43.7659H264.513V46.3299H251.666ZM267.077 46.3299V43.7659H279.924V46.3299H267.077ZM282.488 46.3299V43.7659H295.335V46.3299H282.488ZM297.899 46.3299V43.7659H310.746V46.3299H297.899ZM313.31 46.3299V43.7659H326.158V46.3299H313.31ZM336.124 43.4903L340.011 40.7885L341.376 43.187L337.103 45.2133L341.376 47.2259L340.011 49.6244L336.124 46.9088L336.51 51.6232H333.78L334.166 46.9088L330.279 49.6244L328.915 47.2259L333.188 45.2133L328.915 43.187L330.279 40.7885L334.166 43.4903L333.78 38.7759H336.51L336.124 43.4903ZM350.942 45.0203L345.539 39.6306L347.179 37.9626L354.237 45.0203L347.179 52.0781L345.539 50.4239L350.942 45.0203Z" fill="#FF16B0"/>
<path d="M216.679 56.7511C215.695 55.9791 214.822 55.1015 214.06 54.1182C213.297 53.1441 212.658 52.101 212.144 50.9891C211.629 49.8771 211.234 48.7146 210.958 47.5016C210.682 46.2885 210.545 45.0617 210.545 43.8211C210.545 42.5805 210.682 41.3582 210.958 40.1544C211.234 38.9413 211.629 37.7834 212.144 36.6807C212.658 35.5687 213.297 34.5257 214.06 33.5515C214.822 32.5682 215.695 31.6906 216.679 30.9187L217.671 32.1593C216.798 32.8577 216.017 33.648 215.328 34.5302C214.648 35.4125 214.069 36.359 213.591 37.3699C213.122 38.3716 212.764 39.4192 212.516 40.5128C212.277 41.6064 212.157 42.7091 212.157 43.8211C212.157 44.9514 212.277 46.0634 212.516 47.157C212.764 48.2414 213.122 49.2844 213.591 50.2861C214.069 51.2786 214.643 52.2205 215.314 53.1119C215.994 54.0125 216.78 54.812 217.671 55.5104L216.679 56.7511Z" fill="#FF16B0"/>
<path d="M147.932 43.8487C147.932 45.0893 147.794 46.3115 147.518 47.5154C147.243 48.7192 146.838 49.8771 146.305 50.9891C145.782 52.101 145.138 53.1441 144.375 54.1182C143.622 55.1015 142.753 55.9791 141.77 56.7511L140.778 55.5104C141.651 54.812 142.427 54.0171 143.107 53.1257C143.797 52.2435 144.38 51.3015 144.858 50.2999C145.345 49.289 145.708 48.2414 145.947 47.157C146.195 46.0634 146.319 44.9606 146.319 43.8487C146.319 42.7367 146.195 41.6293 145.947 40.5266C145.708 39.4238 145.345 38.3716 144.858 37.3699C144.38 36.359 143.797 35.4125 143.107 34.5302C142.427 33.648 141.651 32.8577 140.778 32.1593L141.77 30.9187C142.753 31.6906 143.622 32.5682 144.375 33.5515C145.138 34.5257 145.782 35.5687 146.305 36.6807C146.838 37.7834 147.243 38.9459 147.518 40.1682C147.794 41.3812 147.932 42.608 147.932 43.8487Z" fill="#FF16B0"/>
<path d="M149.417 42.6356C149.417 41.4317 149.546 40.2692 149.803 39.1481C150.06 38.0269 150.46 37.0391 151.002 36.1844C151.544 35.3298 152.252 34.6451 153.125 34.1305C154.007 33.6067 155.069 33.3448 156.309 33.3448C157.55 33.3448 158.607 33.6067 159.48 34.1305C160.362 34.6451 161.079 35.3298 161.63 36.1844C162.181 37.0391 162.581 38.0269 162.829 39.1481C163.077 40.2692 163.202 41.4317 163.202 42.6356C163.202 43.8395 163.077 45.002 162.829 46.1231C162.581 47.2351 162.186 48.2276 161.644 49.1006C161.102 49.9644 160.389 50.6583 159.507 51.1821C158.634 51.6967 157.568 51.954 156.309 51.954C155.05 51.954 153.98 51.6967 153.097 51.1821C152.224 50.6583 151.512 49.9644 150.961 49.1006C150.419 48.2276 150.028 47.2351 149.789 46.1231C149.541 45.002 149.417 43.8395 149.417 42.6356ZM152.27 42.6356C152.27 43.4811 152.325 44.299 152.436 45.0893L159.493 38.004C159.181 37.3791 158.767 36.8736 158.253 36.4877C157.747 36.1017 157.1 35.9087 156.309 35.9087C154.995 35.9087 153.993 36.5015 153.304 37.6869C152.615 38.8724 152.27 40.522 152.27 42.6356ZM156.309 49.3763C157.118 49.3763 157.78 49.1787 158.294 48.7835C158.818 48.3884 159.227 47.8738 159.521 47.2397C159.824 46.5964 160.036 45.8704 160.155 45.0617C160.284 44.253 160.348 43.4443 160.348 42.6356C160.348 41.8637 160.293 41.1101 160.183 40.3749L153.18 47.4051C153.493 48.0024 153.892 48.4803 154.379 48.8387C154.876 49.1971 155.519 49.3763 156.309 49.3763ZM178.13 54.0631L176.007 55.1107L165.448 33.8548L167.571 32.8072L178.13 54.0631ZM191.419 32.8072L193.541 33.8548L182.982 55.1107L180.86 54.0631L191.419 32.8072ZM195.651 42.6356C195.651 41.4317 195.779 40.2692 196.036 39.1481C196.294 38.0269 196.694 37.0391 197.236 36.1844C197.778 35.3298 198.486 34.6451 199.359 34.1305C200.241 33.6067 201.302 33.3448 202.543 33.3448C203.783 33.3448 204.84 33.6067 205.713 34.1305C206.595 34.6451 207.312 35.3298 207.864 36.1844C208.415 37.0391 208.815 38.0269 209.063 39.1481C209.311 40.2692 209.435 41.4317 209.435 42.6356C209.435 43.8395 209.311 45.002 209.063 46.1231C208.815 47.2351 208.42 48.2276 207.877 49.1006C207.335 49.9644 206.623 50.6583 205.741 51.1821C204.868 51.6967 203.802 51.954 202.543 51.954C201.284 51.954 200.213 51.6967 199.331 51.1821C198.458 50.6583 197.746 49.9644 197.194 49.1006C196.652 48.2276 196.262 47.2351 196.023 46.1231C195.775 45.002 195.651 43.8395 195.651 42.6356ZM198.504 42.6356C198.504 43.4811 198.559 44.299 198.669 45.0893L205.727 38.004C205.415 37.3791 205.001 36.8736 204.486 36.4877C203.981 36.1017 203.333 35.9087 202.543 35.9087C201.229 35.9087 200.227 36.5015 199.538 37.6869C198.849 38.8724 198.504 40.522 198.504 42.6356ZM202.543 49.3763C203.352 49.3763 204.013 49.1787 204.528 48.7835C205.052 48.3884 205.461 47.8738 205.755 47.2397C206.058 46.5964 206.269 45.8704 206.389 45.0617C206.517 44.253 206.582 43.4443 206.582 42.6356C206.582 41.8637 206.527 41.1101 206.416 40.3749L199.414 47.4051C199.726 48.0024 200.126 48.4803 200.613 48.8387C201.109 49.1971 201.752 49.3763 202.543 49.3763Z" fill="#FF16B0"/>
<path d="M159.108 26.2009V23.637H171.955V26.2009H159.108ZM188.18 5.64803L182.57 23.637H179.316L173.706 5.64803H176.697L180.957 19.8875L185.189 5.64803H188.18ZM189.931 26.2009V23.637H202.778V26.2009H189.931Z" fill="#FF16B0"/>
<path d="M92.7206 55.8072L94.8434 56.8548L84.2844 78.1107L82.1615 77.0631L92.7206 55.8072ZM181.866 66.4903L185.753 63.7885L187.118 66.187L182.844 68.2133L187.118 70.2259L185.753 72.6244L181.866 69.9088L182.252 74.6232H179.522L179.908 69.9088L176.021 72.6244L174.656 70.2259L178.93 68.2133L174.656 66.187L176.021 63.7885L179.908 66.4903L179.522 61.7759H182.252L181.866 66.4903ZM279.778 77.0631L277.655 78.1107L267.096 56.8548L269.219 55.8072L279.778 77.0631Z" fill="#FF16B0"/>
</svg>
