<svg width="180" height="178" viewBox="0 0 180 178" fill="none" xmlns="http://www.w3.org/2000/svg">
<path d="M129.369 33.1887C129.369 34.4294 129.507 35.6516 129.783 36.8554C130.059 38.0593 130.463 39.2172 130.996 40.3292C131.52 41.4411 132.163 42.4842 132.926 43.4583C133.679 44.4416 134.548 45.3192 135.531 46.0911L136.524 44.8505C135.651 44.1521 134.874 43.3572 134.194 42.4658C133.505 41.5836 132.921 40.6416 132.443 39.6399C131.956 38.6291 131.593 37.5814 131.354 36.497C131.106 35.4035 130.982 34.3007 130.982 33.1887C130.982 32.0768 131.106 30.9694 131.354 29.8666C131.593 28.7639 131.956 27.7117 132.443 26.71C132.921 25.6991 133.505 24.7526 134.194 23.8703C134.874 22.9881 135.651 22.1978 136.524 21.4994L135.531 20.2588C134.548 21.0307 133.679 21.9083 132.926 22.8916C132.163 23.8657 131.52 24.9088 130.996 26.0207C130.463 27.1235 130.059 28.286 129.783 29.5082C129.507 30.7213 129.369 31.9481 129.369 33.1887ZM116.564 30.7075H119.127V28.1298H116.564V30.7075ZM116.564 40.9771H119.127V38.4131H116.564V40.9771ZM96.0107 32.1687H108.858V30.5283H96.0107V32.1687ZM96.0107 38.2339H108.858V36.6211H96.0107V38.2339ZM80.5995 32.1687H93.4467V30.5283H80.5995V32.1687ZM80.5995 38.2339H93.4467V36.6211H80.5995V38.2339ZM65.1883 35.1875H78.0355V33.5747H65.1883V35.1875ZM49.777 35.1875H62.6243V33.5747H49.777V35.1875ZM34.3658 35.1875H47.2131V33.5747H34.3658V35.1875ZM18.9546 35.1875H31.8019V33.5747H18.9546V35.1875ZM3.54344 35.1875H9.16756V40.7979H10.7666V35.1875H16.3907V33.5747H10.7666V27.9644H9.16756V33.5747H3.54344V35.1875Z" fill="#FF16B0"/>
<path d="M141.325 40.9771H143.228V25.9932L146.412 35.2702H147.763L150.933 25.9932V40.9771H152.822V22.9881H150.368L147.087 32.3892L143.779 22.9881H141.325V40.9771Z" fill="#FF16B0"/>
<path d="M145.47 164.337V169.962H139.86V171.561H145.47V177.185H147.083V171.561H152.693V169.962H147.083V164.337H145.47ZM145.47 148.926V161.774H147.083V148.926H145.47ZM145.47 133.515V146.362H147.083V133.515H145.47ZM145.47 118.104V130.951H147.083V118.104H145.47ZM145.47 102.693V115.54H147.083V102.693H145.47ZM148.489 87.2814V100.129H150.129V87.2814H148.489ZM142.424 87.2814V100.129H144.037V87.2814H142.424ZM148.489 71.8702V84.7175H150.129V71.8702H148.489ZM142.424 71.8702V84.7175H144.037V71.8702H142.424ZM149.95 61.6007V64.1646H152.528V61.6007H149.95ZM139.681 61.6007V64.1646H142.245V61.6007H139.681ZM134.567 45.1694C135.339 46.1527 136.216 47.0258 137.199 47.7885C138.174 48.5513 139.217 49.1899 140.329 49.7046C141.441 50.2192 142.603 50.6144 143.816 50.89C145.029 51.1657 146.256 51.3036 147.497 51.3036C148.737 51.3036 149.959 51.1657 151.163 50.89C152.376 50.6144 153.534 50.2192 154.637 49.7046C155.749 49.1899 156.792 48.5513 157.766 47.7885C158.749 47.0258 159.627 46.1527 160.399 45.1694L159.158 44.1769C158.46 45.05 157.67 45.8311 156.787 46.5203C155.905 47.2004 154.959 47.7793 153.948 48.2572C152.946 48.7259 151.898 49.0843 150.805 49.3324C149.711 49.5713 148.609 49.6908 147.497 49.6908C146.366 49.6908 145.254 49.5713 144.161 49.3324C143.076 49.0843 142.033 48.7259 141.032 48.2572C140.039 47.7793 139.097 47.205 138.206 46.5341C137.305 45.8541 136.506 45.0683 135.807 44.1769L134.567 45.1694Z" fill="#FF16B0"/>
<path d="M141.345 15.3672H143.44L147.782 6.91718L152.097 15.3672H154.192L149.051 5.08382H146.514L141.345 15.3672Z" fill="#FF16B0"/>
<path d="M164.083 25.6091V27.7044L172.533 32.0465L164.083 36.3611V38.4564L174.366 33.3147V30.7784L164.083 25.6091Z" fill="#FF16B0"/>
</svg>
