<svg width="1454" height="63" viewBox="0 0 1454 63" fill="none" xmlns="http://www.w3.org/2000/svg">
<path d="M755.425 18.9698H757.689V36.3675L766.016 18.9698H769.205V40.531H766.925V22.2907L758.234 40.531H755.425V18.9698ZM767.04 14.4098C765.752 15.6875 764.182 16.3263 762.332 16.3263C760.481 16.3263 758.911 15.6875 757.623 14.4098L758.911 13.1541C759.947 14.1895 761.087 14.7072 762.332 14.7072C763.576 14.7072 764.716 14.1895 765.752 13.1541L767.04 14.4098Z" fill="#FF16B0"/>
<circle cx="763.462" cy="29.742" r="24.7819" stroke="#FF16B0" stroke-width="1.53686"/>
<circle cx="763.654" cy="29.9341" r="28.432" stroke="#FF16B0" stroke-width="1.53686"/>
<circle cx="323.057" cy="29.7415" r="24.7819" stroke="#FF16B0" stroke-width="1.53686"/>
<circle cx="323.248" cy="29.9338" r="28.432" stroke="#FF16B0" stroke-width="1.53686"/>
<path d="M314.724 39.2744C315.352 38.7347 315.908 38.1565 316.393 37.5396C316.878 36.9118 317.285 36.0802 317.616 35.0448C317.946 34.0094 318.194 32.6932 318.359 31.0961C318.535 29.4879 318.623 27.4447 318.623 24.9664V19.6463H327.033V39.2744H330.123V46.478H328.09V41.2075H316.756V46.478H314.724V39.2744ZM320.887 24.9664C320.887 26.905 320.821 28.6178 320.689 30.1047C320.567 31.5917 320.369 32.9135 320.094 34.07C319.829 35.2155 319.477 36.2124 319.036 37.0605C318.596 37.9086 318.062 38.6466 317.434 39.2744H324.77V21.5794H320.887V24.9664Z" fill="#FF16B0"/>
<circle cx="396.458" cy="29.7415" r="24.7819" stroke="#FF16B0" stroke-width="1.53686"/>
<circle cx="396.649" cy="29.9338" r="28.432" stroke="#FF16B0" stroke-width="1.53686"/>
<path d="M402.714 41.2075H388.935V19.6463H402.714V21.5794H391.198V29.2952H399.69V31.2282H391.198V39.2744H402.714V41.2075Z" fill="#FF16B0"/>
<circle cx="469.859" cy="29.7418" r="24.7819" stroke="#FF16B0" stroke-width="1.53686"/>
<circle cx="470.05" cy="29.9341" r="28.432" stroke="#FF16B0" stroke-width="1.53686"/>
<path d="M476.113 41.2075H462.334V19.6463H476.113V21.5794H464.597V29.2952H473.089V31.2282H464.597V39.2744H476.113V41.2075ZM473.833 16.5732H470.76V13.4836H473.833V16.5732ZM467.687 16.5732H464.597V13.4836H467.687V16.5732Z" fill="#FF16B0"/>
<circle cx="910.262" cy="29.742" r="24.7819" stroke="#FF16B0" stroke-width="1.53686"/>
<circle cx="910.455" cy="29.9341" r="28.432" stroke="#FF16B0" stroke-width="1.53686"/>
<path d="M915.952 19.0794V40.6406H913.672V21.0125H906.716V37.2206C906.716 37.8264 906.611 38.3661 906.402 38.8397C906.204 39.3134 905.934 39.7099 905.592 40.0293C905.251 40.3487 904.854 40.5911 904.403 40.7563C903.951 40.9325 903.478 41.0206 902.982 41.0206C902.057 41.0206 901.379 40.8829 900.95 40.6076L901.396 38.8067C901.55 38.9058 901.721 38.9774 901.908 39.0215C902.106 39.0655 902.365 39.0876 902.685 39.0876C903.852 39.0876 904.436 38.4652 904.436 37.2206V19.0794H915.952Z" fill="#FF16B0"/>
<circle cx="29.4536" cy="29.7423" r="24.7819" stroke="#FF16B0" stroke-width="1.53686"/>
<circle cx="29.6446" cy="29.9341" r="28.432" stroke="#FF16B0" stroke-width="1.53686"/>
<path d="M36.9915 41.2075H34.5628L32.5306 35.0448H24.0053L22.0061 41.2075H19.5774L26.7479 19.6463H29.821L36.9915 41.2075ZM31.8863 33.0457L28.2679 21.9264L24.6496 33.0457H31.8863Z" fill="#FF16B0"/>
<circle cx="836.863" cy="29.742" r="24.7819" stroke="#FF16B0" stroke-width="1.53686"/>
<circle cx="837.054" cy="29.9341" r="28.432" stroke="#FF16B0" stroke-width="1.53686"/>
<path d="M843.279 41.8843H840.503L833.333 31.3267L831.053 33.8711V41.8843H828.789V20.3231H831.053V30.8146L840.288 20.3231H843.279L834.82 29.7406L843.279 41.8843Z" fill="#FF16B0"/>
<circle cx="102.854" cy="29.7423" r="24.7819" stroke="#FF16B0" stroke-width="1.53686"/>
<circle cx="103.046" cy="29.9343" r="28.432" stroke="#FF16B0" stroke-width="1.53686"/>
<path d="M109.764 36.4644C109.764 35.0656 109.296 34.0026 108.359 33.2757C107.423 32.5377 106.173 32.1687 104.609 32.1687H99.735V40.628H104.609C106.173 40.628 107.423 40.281 108.359 39.5871C109.296 38.8821 109.764 37.8413 109.764 36.4644ZM99.735 30.2522H104.609C106.955 30.2522 108.778 30.7698 110.078 31.8052C111.377 32.8406 112.027 34.3937 112.027 36.4644C112.027 38.5242 111.377 40.0552 110.078 41.0575C108.778 42.0599 106.944 42.561 104.576 42.561H97.4715V20.9999H111.251V22.9329H99.735V30.2522Z" fill="#FF16B0"/>
<circle cx="176.255" cy="29.742" r="24.7819" stroke="#FF16B0" stroke-width="1.53686"/>
<circle cx="176.446" cy="29.9341" r="28.432" stroke="#FF16B0" stroke-width="1.53686"/>
<path d="M182.719 34.4779C182.719 36.5377 182.053 38.0797 180.72 39.1041C179.387 40.1284 177.493 40.6406 175.037 40.6406H168.164V19.0794H174.657C175.56 19.0794 176.447 19.1565 177.317 19.3107C178.187 19.4539 178.963 19.7293 179.646 20.1368C180.34 20.5444 180.902 21.1116 181.332 21.8386C181.761 22.5546 181.976 23.4963 181.976 24.6639C181.976 26.8998 180.858 28.4254 178.622 29.2405C181.354 30.0776 182.719 31.8234 182.719 34.4779ZM179.712 24.6639C179.712 23.9039 179.553 23.2815 179.233 22.7969C178.914 22.3122 178.506 21.9433 178.011 21.6899C177.515 21.4256 176.97 21.2493 176.375 21.1612C175.78 21.0621 175.207 21.0125 174.657 21.0125H170.427V28.3318H174.657C175.273 28.3318 175.879 28.2877 176.474 28.1996C177.069 28.1004 177.603 27.9187 178.077 27.6543C178.55 27.379 178.941 27.0045 179.25 26.5309C179.558 26.0572 179.712 25.4349 179.712 24.6639ZM180.456 34.4779C180.456 32.9909 179.971 31.9115 179.002 31.2396C178.044 30.5567 176.722 30.2153 175.037 30.2153H170.427V38.7076H175.037C176.722 38.7076 178.044 38.3551 179.002 37.6501C179.971 36.9342 180.456 35.8768 180.456 34.4779Z" fill="#FF16B0"/>
<circle cx="616.661" cy="29.7415" r="24.7819" stroke="#FF16B0" stroke-width="1.53686"/>
<circle cx="616.852" cy="29.9338" r="28.432" stroke="#FF16B0" stroke-width="1.53686"/>
<path d="M623.528 35.2596C623.528 36.2069 623.335 37.0715 622.95 37.8536C622.564 38.6246 622.046 39.2855 621.397 39.8362C620.758 40.3869 620.014 40.8165 619.166 41.1249C618.329 41.4333 617.448 41.5875 616.523 41.5875C615.487 41.5875 614.518 41.4498 613.615 41.1745C612.712 40.8881 611.913 40.464 611.219 39.9023C610.536 39.3405 609.98 38.6466 609.55 37.8205C609.121 36.9944 608.862 36.0361 608.774 34.9457L610.971 34.6483C611.103 36.3005 611.682 37.5507 612.706 38.3988C613.719 39.2359 614.992 39.6545 616.523 39.6545C617.172 39.6545 617.784 39.5443 618.357 39.324C618.929 39.1037 619.43 38.8008 619.86 38.4153C620.29 38.0298 620.626 37.5672 620.868 37.0275C621.121 36.4877 621.248 35.8985 621.248 35.2596C621.248 34.3784 621.11 33.6625 620.835 33.1117C620.559 32.55 620.152 32.1149 619.612 31.8065C619.083 31.4871 618.428 31.2723 617.646 31.1622C616.864 31.052 615.966 30.9969 614.953 30.9969V29.0639C615.691 29.0639 616.412 29.0033 617.117 28.8821C617.822 28.761 618.45 28.5517 619.001 28.2543C619.552 27.9569 619.998 27.5659 620.339 27.0812C620.681 26.5856 620.851 25.9687 620.851 25.2308C620.851 24.0192 620.449 23.0499 619.645 22.3229C618.841 21.5849 617.8 21.2159 616.523 21.2159C615.807 21.2159 615.113 21.3536 614.441 21.629C613.78 21.9043 613.218 22.2678 612.756 22.7194C612.315 23.138 611.946 23.6557 611.649 24.2725C611.351 24.8893 611.203 25.6163 611.203 26.4534H609.137V19.6463H611.07V22.1577C611.335 21.618 611.671 21.1664 612.078 20.8029C612.486 20.4394 612.932 20.1475 613.416 19.9272C613.901 19.6959 614.408 19.5307 614.936 19.4316C615.465 19.3324 615.994 19.2829 616.523 19.2829C617.448 19.2829 618.312 19.4205 619.117 19.6959C619.921 19.9603 620.615 20.3458 621.198 20.8524C621.793 21.3591 622.261 21.9814 622.603 22.7194C622.944 23.4574 623.115 24.2945 623.115 25.2308C623.115 26.4644 622.751 27.4833 622.024 28.2873C621.297 29.0914 620.251 29.5981 618.885 29.8074C619.645 29.9175 620.312 30.1378 620.884 30.4682C621.468 30.7987 621.953 31.2117 622.338 31.7074C622.735 32.192 623.032 32.7428 623.231 33.3596C623.429 33.9654 623.528 34.5987 623.528 35.2596Z" fill="#FF16B0"/>
<circle cx="543.26" cy="29.742" r="24.7819" stroke="#FF16B0" stroke-width="1.53686"/>
<circle cx="543.451" cy="29.9341" r="28.432" stroke="#FF16B0" stroke-width="1.53686"/>
<path d="M540.918 41.2075V32.6491L540.009 30.9969L535.68 41.2075H533.318L538.588 29.0308L533.318 19.6463H535.779L540.918 29.2291V19.6463H543.198V29.2291L548.336 19.6463H550.798L545.527 29.0308L550.798 41.2075H548.435L544.106 30.9969L543.198 32.6491V41.2075H540.918Z" fill="#FF16B0"/>
<circle cx="249.656" cy="29.742" r="24.7819" stroke="#FF16B0" stroke-width="1.53686"/>
<circle cx="249.847" cy="29.9341" r="28.432" stroke="#FF16B0" stroke-width="1.53686"/>
<path d="M244.273 20.9999H258.862V22.9329H246.537V42.561H244.273V20.9999Z" fill="#FF16B0"/>
<circle cx="690.062" cy="29.742" r="24.7819" stroke="#FF16B0" stroke-width="1.53686"/>
<circle cx="690.253" cy="29.9341" r="28.432" stroke="#FF16B0" stroke-width="1.53686"/>
<path d="M681.97 19.0794H684.233V36.4771L692.56 19.0794H695.749V40.6406H693.469V22.4004L684.779 40.6406H681.97V19.0794Z" fill="#FF16B0"/>
<path d="M1062.81 40.531H1060.53V30.5517H1051.29V40.531H1049.03V18.9698H1051.29V28.6187H1060.53V18.9698H1062.81V40.531Z" fill="#FF16B0"/>
<circle cx="1057.07" cy="29.742" r="24.7819" stroke="#FF16B0" stroke-width="1.53686"/>
<circle cx="1057.26" cy="29.9341" r="28.432" stroke="#FF16B0" stroke-width="1.53686"/>
<circle cx="1203.87" cy="29.7418" r="24.7819" stroke="#FF16B0" stroke-width="1.53686"/>
<circle cx="1204.06" cy="29.9338" r="28.432" stroke="#FF16B0" stroke-width="1.53686"/>
<path d="M1209.56 40.6406H1207.28V21.0125H1198.04V40.6406H1195.78V19.0794H1209.56V40.6406Z" fill="#FF16B0"/>
<circle cx="1277.27" cy="33.2003" r="24.7819" stroke="#FF16B0" stroke-width="1.53686"/>
<circle cx="1277.46" cy="33.3923" r="28.432" stroke="#FF16B0" stroke-width="1.53686"/>
<path d="M1283.73 28.7006C1283.73 30.7824 1283.08 32.33 1281.78 33.3433C1280.48 34.3567 1278.66 34.8633 1276.31 34.8633H1271.44V44.0991H1269.18V22.5379H1276.28C1278.65 22.5379 1280.48 23.0556 1281.78 24.091C1283.08 25.1154 1283.73 26.6519 1283.73 28.7006ZM1281.47 28.7006C1281.47 27.2137 1281 26.1397 1280.06 25.4789C1279.13 24.807 1277.88 24.471 1276.31 24.471H1271.44V32.9303H1276.31C1277.88 32.9303 1279.13 32.5998 1280.06 31.9389C1281 31.2671 1281.47 30.1876 1281.47 28.7006Z" fill="#FF16B0"/>
<circle cx="1350.67" cy="32.734" r="24.7819" stroke="#FF16B0" stroke-width="1.53686"/>
<circle cx="1350.86" cy="32.926" r="28.432" stroke="#FF16B0" stroke-width="1.53686"/>
<path d="M1357.3 37.9823C1356.74 39.8328 1355.82 41.2922 1354.54 42.3606C1353.26 43.429 1351.65 43.9633 1349.72 43.9633C1348.21 43.9633 1346.93 43.6603 1345.88 43.0545C1344.84 42.4487 1343.98 41.6337 1343.3 40.6093C1342.64 39.5849 1342.16 38.4009 1341.87 37.0571C1341.58 35.7133 1341.44 34.3199 1341.44 32.877C1341.44 31.4341 1341.58 30.0407 1341.87 28.6969C1342.16 27.3532 1342.64 26.1636 1343.3 25.1282C1343.98 24.0928 1344.84 23.2667 1345.88 22.6499C1346.93 22.0221 1348.21 21.7081 1349.72 21.7081C1351.05 21.7081 1352.19 21.945 1353.14 22.4186C1354.08 22.8922 1354.78 23.6137 1355.23 24.583V22.0716H1357.17V29.143H1355.23C1355.23 28.383 1355.08 27.6671 1354.79 26.9952C1354.5 26.3123 1354.11 25.723 1353.61 25.2273C1353.12 24.7317 1352.53 24.3462 1351.85 24.0708C1351.17 23.7844 1350.46 23.6412 1349.72 23.6412C1348.55 23.6412 1347.58 23.9166 1346.81 24.4673C1346.05 25.018 1345.44 25.7395 1344.97 26.6317C1344.51 27.5239 1344.18 28.5152 1343.98 29.6057C1343.79 30.6961 1343.7 31.7866 1343.7 32.877C1343.7 33.9564 1343.79 35.0469 1343.98 36.1484C1344.18 37.2388 1344.51 38.2191 1344.97 39.0893C1345.44 39.9484 1346.05 40.6589 1346.81 41.2206C1347.58 41.7713 1348.55 42.0467 1349.72 42.0467C1352.4 42.0467 1354.28 40.4331 1355.33 37.2058L1357.3 37.9823Z" fill="#FF16B0"/>
<circle cx="1130.47" cy="29.742" r="24.7819" stroke="#FF16B0" stroke-width="1.53686"/>
<circle cx="1130.66" cy="29.9341" r="28.432" stroke="#FF16B0" stroke-width="1.53686"/>
<path d="M1137.56 31.1285C1137.56 32.5714 1137.41 33.9647 1137.11 35.3085C1136.82 36.6523 1136.34 37.8364 1135.69 38.8608C1135.04 39.8851 1134.19 40.7112 1133.13 41.3391C1132.09 41.9559 1130.81 42.2643 1129.3 42.2643C1127.79 42.2643 1126.51 41.9559 1125.45 41.3391C1124.4 40.7112 1123.55 39.8851 1122.89 38.8608C1122.24 37.8364 1121.77 36.6523 1121.48 35.3085C1121.19 33.9647 1121.04 32.5714 1121.04 31.1285C1121.04 29.6855 1121.19 28.2922 1121.48 26.9484C1121.77 25.6046 1122.24 24.415 1122.9 23.3797C1123.58 22.3443 1124.44 21.5182 1125.48 20.9014C1126.54 20.2735 1127.81 19.9596 1129.3 19.9596C1130.79 19.9596 1132.05 20.2735 1133.1 20.9014C1134.16 21.5182 1135.01 22.3443 1135.66 23.3797C1136.31 24.415 1136.79 25.6046 1137.1 26.9484C1137.41 28.2922 1137.56 29.6855 1137.56 31.1285ZM1135.28 31.1285C1135.28 29.7076 1135.14 28.4299 1134.87 27.2954C1134.6 26.1498 1134.22 25.175 1133.71 24.371C1133.2 23.5669 1132.58 22.9556 1131.83 22.537C1131.09 22.1075 1130.25 21.8927 1129.3 21.8927C1128.12 21.8927 1127.15 22.168 1126.37 22.7188C1125.61 23.2695 1125 23.991 1124.54 24.8832C1124.08 25.7753 1123.75 26.7667 1123.57 27.8571C1123.39 28.9476 1123.3 30.038 1123.3 31.1285C1123.3 32.2079 1123.39 33.2984 1123.57 34.3998C1123.75 35.4903 1124.08 36.4761 1124.54 37.3573C1125 38.2274 1125.61 38.9434 1126.37 39.5051C1127.15 40.0558 1128.12 40.3312 1129.3 40.3312C1130.47 40.3312 1131.44 40.0558 1132.21 39.5051C1132.98 38.9434 1133.59 38.2274 1134.06 37.3573C1134.52 36.4761 1134.84 35.4903 1135.02 34.3998C1135.19 33.2984 1135.28 32.2079 1135.28 31.1285Z" fill="#FF16B0"/>
<circle cx="983.665" cy="29.742" r="24.7819" stroke="#FF16B0" stroke-width="1.53686"/>
<circle cx="983.856" cy="29.9341" r="28.432" stroke="#FF16B0" stroke-width="1.53686"/>
<path d="M989.355 40.6406H987.075V22.6812L983.258 33.8005H981.639L977.839 22.6812V40.6406H975.575V19.0794H978.516L982.448 30.3474L986.414 19.0794H989.355V40.6406Z" fill="#FF16B0"/>
<circle cx="1424.07" cy="30.5196" r="24.7819" stroke="#FF16B0" stroke-width="1.53686"/>
<circle cx="1424.26" cy="30.7117" r="28.432" stroke="#FF16B0" stroke-width="1.53686"/>
<path d="M1430.57 27.1435H1428.63V21.7903H1424.01V39.4854H1427.48V41.4185H1418.24V39.4854H1421.73V21.7903H1417.1V27.1435H1415.17V19.8573H1430.57V27.1435Z" fill="#FF16B0"/>
</svg>
