<svg width="280" height="232" viewBox="0 0 280 232" fill="none" xmlns="http://www.w3.org/2000/svg">
<path d="M7.25454 10.637H0.481897V0.0394898H1.59443V9.68684H7.25454V10.637ZM16.3334 10.637H9.56081V0.0394898H10.6733V9.68684H16.3334V10.637ZM25.4124 10.637H18.6397V0.0394898H19.7522V9.68684H25.4124V10.637ZM34.4913 10.637H27.7186V0.0394898H28.8312V9.68684H34.4913V10.637ZM43.5702 10.637H36.7975V0.0394898H37.9101V9.68684H43.5702V10.637ZM52.6491 10.637H45.8764V0.0394898H46.989V9.68684H52.6491V10.637ZM61.728 10.637H54.9553V0.0394898H56.0679V9.68684H61.728V10.637ZM70.8069 10.637H64.0343V0.0394898H65.1468V9.68684H70.8069V10.637ZM79.8858 10.637H73.1132V0.0394898H74.2257V9.68684H79.8858V10.637ZM88.9647 10.637H82.1921V0.0394898H83.3046V9.68684H88.9647V10.637ZM98.0436 10.637H91.271V0.0394898H92.3835V9.68684H98.0436V10.637ZM107.123 10.637H100.35V0.0394898H101.462V9.68684H107.123V10.637ZM116.201 10.637H109.429V0.0394898H110.541V9.68684H116.201V10.637ZM125.28 10.637H118.508V0.0394898H119.62V9.68684H125.28V10.637ZM134.359 10.637H127.587V0.0394898H128.699V9.68684H134.359V10.637ZM143.438 10.637H136.666V0.0394898H137.778V9.68684H143.438V10.637ZM152.517 10.637H145.744V0.0394898H146.857V9.68684H152.517V10.637ZM161.596 10.637H154.823V0.0394898H155.936V9.68684H161.596V10.637ZM170.675 10.637H163.902V0.0394898H165.015V9.68684H170.675V10.637ZM179.754 10.637H172.981V0.0394898H174.094V9.68684H179.754V10.637ZM188.833 10.637H182.06V0.0394898H183.173V9.68684H188.833V10.637ZM197.912 10.637H191.139V0.0394898H192.252V9.68684H197.912V10.637ZM206.991 10.637H200.218V0.0394898H201.33V9.68684H206.991V10.637ZM216.069 10.637H209.297V0.0394898H210.409V9.68684H216.069V10.637ZM225.148 10.637H218.376V0.0394898H219.488V9.68684H225.148V10.637ZM234.227 10.637H227.455V0.0394898H228.567V9.68684H234.227V10.637ZM243.306 10.637H236.534V0.0394898H237.646V9.68684H243.306V10.637ZM252.385 10.637H245.612V0.0394898H246.725V9.68684H252.385V10.637ZM261.464 10.637H254.691V0.0394898H255.804V9.68684H261.464V10.637ZM270.543 10.637H263.77V0.0394898H264.883V9.68684H270.543V10.637ZM279.622 10.637H272.849V0.0394898H273.962V9.68684H279.622V10.637ZM7.25454 27.637H0.481897V17.0395H1.59443V26.6868H7.25454V27.637ZM279.622 27.637H272.849V17.0395H273.962V26.6868H279.622V27.637ZM7.25454 44.637H0.481897V34.0395H1.59443V43.6868H7.25454V44.637ZM71.4565 37.0685L69.9217 44.637H68.6224L67.4125 39.0824L66.2674 44.637H64.9681L63.4171 37.0685H64.6027L65.699 43.1265L66.8765 37.0685H67.9809L69.1909 43.1265L70.2872 37.0685H71.4565ZM80.5355 37.0685L79.0006 44.637H77.7013L76.4914 39.0824L75.3463 44.637H74.047L72.496 37.0685H73.6816L74.7779 43.1265L75.9554 37.0685H77.0598L78.2698 43.1265L79.3661 37.0685H80.5355ZM89.6144 37.0685L88.0796 44.637H86.7802L85.5703 39.0824L84.4253 44.637H83.1259L81.5749 37.0685H82.7605L83.8568 43.1265L85.0343 37.0685H86.1387L87.3487 43.1265L88.445 37.0685H89.6144ZM95.4125 44.637H93.9021V43.1265H95.4125V44.637ZM107.772 37.0685L106.237 44.637H104.938L103.728 39.0824L102.583 44.637H101.284L99.7327 37.0685H100.918L102.015 43.1265L103.192 37.0685H104.297L105.507 43.1265L106.603 37.0685H107.772ZM116.851 37.0685L115.316 44.637H114.017L112.807 39.0824L111.662 44.637H110.363L108.812 37.0685H109.997L111.094 43.1265L112.271 37.0685H113.375L114.585 43.1265L115.682 37.0685H116.851ZM171.325 37.0685L169.79 44.637H168.49L167.28 39.0824L166.135 44.637H164.836L163.285 37.0685H164.471L165.567 43.1265L166.744 37.0685H167.849L169.059 43.1265L170.155 37.0685H171.325ZM180.403 37.0685L178.869 44.637H177.569L176.359 39.0824L175.214 44.637H173.915L172.364 37.0685H173.55L174.646 43.1265L175.823 37.0685H176.928L178.138 43.1265L179.234 37.0685H180.403ZM186.202 44.637H184.691V43.1265H186.202V44.637ZM198.561 37.0685L197.026 44.637H195.727L194.517 39.0824L193.372 44.637H192.073L190.522 37.0685H191.707L192.804 43.1265L193.981 37.0685H195.086L196.296 43.1265L197.392 37.0685H198.561ZM207.64 37.0685L206.105 44.637H204.806L203.596 39.0824L202.451 44.637H201.152L199.601 37.0685H200.786L201.883 43.1265L203.06 37.0685H204.165L205.374 43.1265L206.471 37.0685H207.64ZM216.719 37.0685L215.184 44.637H213.885L212.675 39.0824L211.53 44.637H210.231L208.68 37.0685H209.865L210.962 43.1265L212.139 37.0685H213.243L214.453 43.1265L215.55 37.0685H216.719ZM279.622 44.637H272.849V34.0395H273.962V43.6868H279.622V44.637ZM7.25454 61.637H0.481897V51.0395H1.59443V60.6868H7.25454V61.637ZM53.2987 54.0685L51.7639 61.637H50.4646L49.2546 56.0824L48.1096 61.637H46.8103L45.2593 54.0685H46.4449L47.5412 60.1265L48.7187 54.0685H49.8231L51.0331 60.1265L52.1294 54.0685H53.2987ZM59.0969 61.637H57.5864V60.1265H59.0969V61.637ZM68.1758 61.637H66.6654V60.1265H68.1758V61.637ZM77.2547 61.637H75.7443V60.1265H77.2547V61.637ZM86.3336 61.637H84.8232V60.1265H86.3336V61.637ZM95.4125 61.637H93.9021V60.1265H95.4125V61.637ZM104.491 61.637H102.981V60.1265H104.491V61.637ZM113.57 61.637H112.06V60.1265H113.57V61.637ZM122.649 61.637H121.139V60.1265H122.649V61.637ZM135.009 54.0685L133.474 61.637H132.175L130.965 56.0824L129.82 61.637H128.52L126.969 54.0685H128.155L129.251 60.1265L130.429 54.0685H131.533L132.743 60.1265L133.84 54.0685H135.009ZM140.807 61.637H139.297V60.1265H140.807V61.637ZM153.167 54.0685L151.632 61.637H150.333L149.123 56.0824L147.978 61.637H146.678L145.127 54.0685H146.313L147.409 60.1265L148.587 54.0685H149.691L150.901 60.1265L151.997 54.0685H153.167ZM158.965 61.637H157.454V60.1265H158.965V61.637ZM168.044 61.637H166.533V60.1265H168.044V61.637ZM177.123 61.637H175.612V60.1265H177.123V61.637ZM186.202 61.637H184.691V60.1265H186.202V61.637ZM195.281 61.637H193.77V60.1265H195.281V61.637ZM204.359 61.637H202.849V60.1265H204.359V61.637ZM213.438 61.637H211.928V60.1265H213.438V61.637ZM222.517 61.637H221.007V60.1265H222.517V61.637ZM234.877 54.0685L233.342 61.637H232.043L230.833 56.0824L229.688 61.637H228.388L226.837 54.0685H228.023L229.119 60.1265L230.297 54.0685H231.401L232.611 60.1265L233.708 54.0685H234.877ZM279.622 61.637H272.849V51.0395H273.962V60.6868H279.622V61.637ZM7.25454 78.637H0.481897V68.0395H1.59443V77.6868H7.25454V78.637ZM44.2198 71.0685L42.685 78.637H41.3857L40.1757 73.0824L39.0307 78.637H37.7314L36.1804 71.0685H37.366L38.4623 77.1265L39.6398 71.0685H40.7442L41.9542 77.1265L43.0504 71.0685H44.2198ZM50.018 78.637H48.5075V77.1265H50.018V78.637ZM59.0969 78.637H57.5864V77.1265H59.0969V78.637ZM68.1758 78.637H66.6654V77.1265H68.1758V78.637ZM77.2547 78.637H75.7443V77.1265H77.2547V78.637ZM86.3336 78.637H84.8232V77.1265H86.3336V78.637ZM95.4125 78.637H93.9021V77.1265H95.4125V78.637ZM104.491 78.637H102.981V77.1265H104.491V78.637ZM113.57 78.637H112.06V77.1265H113.57V78.637ZM122.649 78.637H121.139V77.1265H122.649V78.637ZM131.728 78.637H130.218V77.1265H131.728V78.637ZM144.088 71.0685L142.553 78.637H141.254L140.044 73.0824L138.899 78.637H137.599L136.048 71.0685H137.234L138.33 77.1265L139.508 71.0685H140.612L141.822 77.1265L142.918 71.0685H144.088ZM149.886 78.637H148.376V77.1265H149.886V78.637ZM158.965 78.637H157.454V77.1265H158.965V78.637ZM168.044 78.637H166.533V77.1265H168.044V78.637ZM177.123 78.637H175.612V77.1265H177.123V78.637ZM186.202 78.637H184.691V77.1265H186.202V78.637ZM195.281 78.637H193.77V77.1265H195.281V78.637ZM204.359 78.637H202.849V77.1265H204.359V78.637ZM213.438 78.637H211.928V77.1265H213.438V78.637ZM222.517 78.637H221.007V77.1265H222.517V78.637ZM231.596 78.637H230.086V77.1265H231.596V78.637ZM243.956 71.0685L242.421 78.637H241.122L239.912 73.0824L238.767 78.637H237.467L235.916 71.0685H237.102L238.198 77.1265L239.376 71.0685H240.48L241.69 77.1265L242.786 71.0685H243.956ZM279.622 78.637H272.849V68.0395H273.962V77.6868H279.622V78.637ZM7.25454 95.637H0.481897V85.0395H1.59443V94.6868H7.25454V95.637ZM44.2198 88.0685L42.685 95.637H41.3857L40.1757 90.0824L39.0307 95.637H37.7314L36.1804 88.0685H37.366L38.4623 94.1265L39.6398 88.0685H40.7442L41.9542 94.1265L43.0504 88.0685H44.2198ZM50.018 95.637H48.5075V94.1265H50.018V95.637ZM59.0969 95.637H57.5864V94.1265H59.0969V95.637ZM68.1758 95.637H66.6654V94.1265H68.1758V95.637ZM77.2547 95.637H75.7443V94.1265H77.2547V95.637ZM86.3336 95.637H84.8232V94.1265H86.3336V95.637ZM95.4125 95.637H93.9021V94.1265H95.4125V95.637ZM104.491 95.637H102.981V94.1265H104.491V95.637ZM113.57 95.637H112.06V94.1265H113.57V95.637ZM122.649 95.637H121.139V94.1265H122.649V95.637ZM131.728 95.637H130.218V94.1265H131.728V95.637ZM140.807 95.637H139.297V94.1265H140.807V95.637ZM149.886 95.637H148.376V94.1265H149.886V95.637ZM158.965 95.637H157.454V94.1265H158.965V95.637ZM168.044 95.637H166.533V94.1265H168.044V95.637ZM177.123 95.637H175.612V94.1265H177.123V95.637ZM186.202 95.637H184.691V94.1265H186.202V95.637ZM195.281 95.637H193.77V94.1265H195.281V95.637ZM204.359 95.637H202.849V94.1265H204.359V95.637ZM213.438 95.637H211.928V94.1265H213.438V95.637ZM222.517 95.637H221.007V94.1265H222.517V95.637ZM231.596 95.637H230.086V94.1265H231.596V95.637ZM243.956 88.0685L242.421 95.637H241.122L239.912 90.0824L238.767 95.637H237.467L235.916 88.0685H237.102L238.198 94.1265L239.376 88.0685H240.48L241.69 94.1265L242.786 88.0685H243.956ZM279.622 95.637H272.849V85.0395H273.962V94.6868H279.622V95.637ZM7.25454 112.637H0.481897V102.039H1.59443V111.687H7.25454V112.637ZM53.2987 105.068L51.7639 112.637H50.4646L49.2546 107.082L48.1096 112.637H46.8103L45.2593 105.068H46.4449L47.5412 111.127L48.7187 105.068H49.8231L51.0331 111.127L52.1294 105.068H53.2987ZM59.0969 112.637H57.5864V111.127H59.0969V112.637ZM68.1758 112.637H66.6654V111.127H68.1758V112.637ZM77.2547 112.637H75.7443V111.127H77.2547V112.637ZM86.3336 112.637H84.8232V111.127H86.3336V112.637ZM95.4125 112.637H93.9021V111.127H95.4125V112.637ZM104.491 112.637H102.981V111.127H104.491V112.637ZM113.57 112.637H112.06V111.127H113.57V112.637ZM122.649 112.637H121.139V111.127H122.649V112.637ZM131.728 112.637H130.218V111.127H131.728V112.637ZM140.807 112.637H139.297V111.127H140.807V112.637ZM149.886 112.637H148.376V111.127H149.886V112.637ZM158.965 112.637H157.454V111.127H158.965V112.637ZM168.044 112.637H166.533V111.127H168.044V112.637ZM177.123 112.637H175.612V111.127H177.123V112.637ZM186.202 112.637H184.691V111.127H186.202V112.637ZM195.281 112.637H193.77V111.127H195.281V112.637ZM204.359 112.637H202.849V111.127H204.359V112.637ZM213.438 112.637H211.928V111.127H213.438V112.637ZM222.517 112.637H221.007V111.127H222.517V112.637ZM234.877 105.068L233.342 112.637H232.043L230.833 107.082L229.688 112.637H228.388L226.837 105.068H228.023L229.119 111.127L230.297 105.068H231.401L232.611 111.127L233.708 105.068H234.877ZM279.622 112.637H272.849V102.039H273.962V111.687H279.622V112.637ZM7.25454 129.637H0.481897V119.039H1.59443V128.687H7.25454V129.637ZM71.4565 122.068L69.9217 129.637H68.6224L67.4125 124.082L66.2674 129.637H64.9681L63.4171 122.068H64.6027L65.699 128.127L66.8765 122.068H67.9809L69.1909 128.127L70.2872 122.068H71.4565ZM77.2547 129.637H75.7443V128.127H77.2547V129.637ZM86.3336 129.637H84.8232V128.127H86.3336V129.637ZM95.4125 129.637H93.9021V128.127H95.4125V129.637ZM104.491 129.637H102.981V128.127H104.491V129.637ZM113.57 129.637H112.06V128.127H113.57V129.637ZM122.649 129.637H121.139V128.127H122.649V129.637ZM131.728 129.637H130.218V128.127H131.728V129.637ZM140.807 129.637H139.297V128.127H140.807V129.637ZM149.886 129.637H148.376V128.127H149.886V129.637ZM158.965 129.637H157.454V128.127H158.965V129.637ZM168.044 129.637H166.533V128.127H168.044V129.637ZM177.123 129.637H175.612V128.127H177.123V129.637ZM186.202 129.637H184.691V128.127H186.202V129.637ZM195.281 129.637H193.77V128.127H195.281V129.637ZM204.359 129.637H202.849V128.127H204.359V129.637ZM216.719 122.068L215.184 129.637H213.885L212.675 124.082L211.53 129.637H210.231L208.68 122.068H209.865L210.962 128.127L212.139 122.068H213.243L214.453 128.127L215.55 122.068H216.719ZM279.622 129.637H272.849V119.039H273.962V128.687H279.622V129.637ZM7.25454 146.637H0.481897V136.039H1.59443V145.687H7.25454V146.637ZM89.6144 139.068L88.0796 146.637H86.7802L85.5703 141.082L84.4253 146.637H83.1259L81.5749 139.068H82.7605L83.8568 145.127L85.0343 139.068H86.1387L87.3487 145.127L88.445 139.068H89.6144ZM95.4125 146.637H93.9021V145.127H95.4125V146.637ZM104.491 146.637H102.981V145.127H104.491V146.637ZM113.57 146.637H112.06V145.127H113.57V146.637ZM122.649 146.637H121.139V145.127H122.649V146.637ZM131.728 146.637H130.218V145.127H131.728V146.637ZM140.807 146.637H139.297V145.127H140.807V146.637ZM149.886 146.637H148.376V145.127H149.886V146.637ZM158.965 146.637H157.454V145.127H158.965V146.637ZM168.044 146.637H166.533V145.127H168.044V146.637ZM177.123 146.637H175.612V145.127H177.123V146.637ZM186.202 146.637H184.691V145.127H186.202V146.637ZM198.561 139.068L197.026 146.637H195.727L194.517 141.082L193.372 146.637H192.073L190.522 139.068H191.707L192.804 145.127L193.981 139.068H195.086L196.296 145.127L197.392 139.068H198.561ZM279.622 146.637H272.849V136.039H273.962V145.687H279.622V146.637ZM7.25454 163.637H0.481897V153.039H1.59443V162.687H7.25454V163.637ZM107.772 156.068L106.237 163.637H104.938L103.728 158.082L102.583 163.637H101.284L99.7327 156.068H100.918L102.015 162.127L103.192 156.068H104.297L105.507 162.127L106.603 156.068H107.772ZM113.57 163.637H112.06V162.127H113.57V163.637ZM122.649 163.637H121.139V162.127H122.649V163.637ZM131.728 163.637H130.218V162.127H131.728V163.637ZM140.807 163.637H139.297V162.127H140.807V163.637ZM149.886 163.637H148.376V162.127H149.886V163.637ZM158.965 163.637H157.454V162.127H158.965V163.637ZM168.044 163.637H166.533V162.127H168.044V163.637ZM180.403 156.068L178.869 163.637H177.569L176.359 158.082L175.214 163.637H173.915L172.364 156.068H173.55L174.646 162.127L175.823 156.068H176.928L178.138 162.127L179.234 156.068H180.403ZM279.622 163.637H272.849V153.039H273.962V162.687H279.622V163.637ZM7.25454 180.637H0.481897V170.039H1.59443V179.687H7.25454V180.637ZM125.93 173.068L124.395 180.637H123.096L121.886 175.082L120.741 180.637H119.442L117.891 173.068H119.076L120.172 179.127L121.35 173.068H122.454L123.664 179.127L124.761 173.068H125.93ZM131.728 180.637H130.218V179.127H131.728V180.637ZM140.807 180.637H139.297V179.127H140.807V180.637ZM149.886 180.637H148.376V179.127H149.886V180.637ZM162.246 173.068L160.711 180.637H159.412L158.202 175.082L157.057 180.637H155.757L154.206 173.068H155.392L156.488 179.127L157.666 173.068H158.77L159.98 179.127L161.076 173.068H162.246ZM279.622 180.637H272.849V170.039H273.962V179.687H279.622V180.637ZM7.25454 197.637H0.481897V187.039H1.59443V196.687H7.25454V197.637ZM144.088 190.068L142.553 197.637H141.254L140.044 192.082L138.899 197.637H137.599L136.048 190.068H137.234L138.33 196.127L139.508 190.068H140.612L141.822 196.127L142.918 190.068H144.088ZM279.622 197.637H272.849V187.039H273.962V196.687H279.622V197.637ZM7.25454 214.637H0.481897V204.039H1.59443V213.687H7.25454V214.637ZM279.622 214.637H272.849V204.039H273.962V213.687H279.622V214.637ZM7.25454 231.637H0.481897V221.039H1.59443V230.687H7.25454V231.637ZM16.3334 231.637H9.56081V221.039H10.6733V230.687H16.3334V231.637ZM25.4124 231.637H18.6397V221.039H19.7522V230.687H25.4124V231.637ZM34.4913 231.637H27.7186V221.039H28.8312V230.687H34.4913V231.637ZM43.5702 231.637H36.7975V221.039H37.9101V230.687H43.5702V231.637ZM52.6491 231.637H45.8764V221.039H46.989V230.687H52.6491V231.637ZM61.728 231.637H54.9553V221.039H56.0679V230.687H61.728V231.637ZM70.8069 231.637H64.0343V221.039H65.1468V230.687H70.8069V231.637ZM79.8858 231.637H73.1132V221.039H74.2257V230.687H79.8858V231.637ZM88.9647 231.637H82.1921V221.039H83.3046V230.687H88.9647V231.637ZM98.0436 231.637H91.271V221.039H92.3835V230.687H98.0436V231.637ZM107.123 231.637H100.35V221.039H101.462V230.687H107.123V231.637ZM116.201 231.637H109.429V221.039H110.541V230.687H116.201V231.637ZM125.28 231.637H118.508V221.039H119.62V230.687H125.28V231.637ZM134.359 231.637H127.587V221.039H128.699V230.687H134.359V231.637ZM143.438 231.637H136.666V221.039H137.778V230.687H143.438V231.637ZM152.517 231.637H145.744V221.039H146.857V230.687H152.517V231.637ZM161.596 231.637H154.823V221.039H155.936V230.687H161.596V231.637ZM170.675 231.637H163.902V221.039H165.015V230.687H170.675V231.637ZM179.754 231.637H172.981V221.039H174.094V230.687H179.754V231.637ZM188.833 231.637H182.06V221.039H183.173V230.687H188.833V231.637ZM197.912 231.637H191.139V221.039H192.252V230.687H197.912V231.637ZM206.991 231.637H200.218V221.039H201.33V230.687H206.991V231.637ZM216.069 231.637H209.297V221.039H210.409V230.687H216.069V231.637ZM225.148 231.637H218.376V221.039H219.488V230.687H225.148V231.637ZM234.227 231.637H227.455V221.039H228.567V230.687H234.227V231.637ZM243.306 231.637H236.534V221.039H237.646V230.687H243.306V231.637ZM252.385 231.637H245.612V221.039H246.725V230.687H252.385V231.637ZM261.464 231.637H254.691V221.039H255.804V230.687H261.464V231.637ZM270.543 231.637H263.77V221.039H264.883V230.687H270.543V231.637ZM279.622 231.637H272.849V221.039H273.962V230.687H279.622V231.637Z" fill="#FF16B0"/>
</svg>
