<svg width="280" height="233" viewBox="0 0 280 233" fill="none" xmlns="http://www.w3.org/2000/svg">
<path d="M7.39711 221.637H0.624475V232.234H1.73701V222.587H7.39711V221.637ZM16.476 221.637H9.70338V232.234H10.8159V222.587H16.476V221.637ZM25.5549 221.637H18.7823V232.234H19.8948V222.587H25.5549V221.637ZM34.6338 221.637H27.8612V232.234H28.9737V222.587H34.6338V221.637ZM43.7127 221.637H36.9401V232.234H38.0526V222.587H43.7127V221.637ZM52.7917 221.637H46.019V232.234H47.1315V222.587H52.7917V221.637ZM61.8706 221.637H55.0979V232.234H56.2105V222.587H61.8706V221.637ZM70.9495 221.637H64.1768V232.234H65.2894V222.587H70.9495V221.637ZM80.0284 221.637H73.2557V232.234H74.3683V222.587H80.0284V221.637ZM89.1073 221.637H82.3346V232.234H83.4472V222.587H89.1073V221.637ZM98.1862 221.637H91.4136V232.234H92.5261V222.587H98.1862V221.637ZM107.265 221.637H100.492V232.234H101.605V222.587H107.265V221.637ZM116.344 221.637H109.571V232.234H110.684V222.587H116.344V221.637ZM125.423 221.637H118.65V232.234H119.763V222.587H125.423V221.637ZM134.502 221.637H127.729V232.234H128.842V222.587H134.502V221.637ZM143.581 221.637H136.808V232.234H137.921V222.587H143.581V221.637ZM152.66 221.637H145.887V232.234H147V222.587H152.66V221.637ZM161.739 221.637H154.966V232.234H156.078V222.587H161.739V221.637ZM170.817 221.637H164.045V232.234H165.157V222.587H170.817V221.637ZM179.896 221.637H173.124V232.234H174.236V222.587H179.896V221.637ZM188.975 221.637H182.203V232.234H183.315V222.587H188.975V221.637ZM198.054 221.637H191.282V232.234H192.394V222.587H198.054V221.637ZM207.133 221.637H200.36V232.234H201.473V222.587H207.133V221.637ZM216.212 221.637H209.439V232.234H210.552V222.587H216.212V221.637ZM225.291 221.637H218.518V232.234H219.631V222.587H225.291V221.637ZM234.37 221.637H227.597V232.234H228.71V222.587H234.37V221.637ZM243.449 221.637H236.676V232.234H237.789V222.587H243.449V221.637ZM252.528 221.637H245.755V232.234H246.868V222.587H252.528V221.637ZM261.607 221.637H254.834V232.234H255.946V222.587H261.607V221.637ZM270.685 221.637H263.913V232.234H265.025V222.587H270.685V221.637ZM279.764 221.637H272.992V232.234H274.104V222.587H279.764V221.637ZM7.39711 204.637H0.624475V215.234H1.73701V205.587H7.39711V204.637ZM279.764 204.637H272.992V215.234H274.104V205.587H279.764V204.637ZM7.39711 187.637H0.624475V198.234H1.73701V188.587H7.39711V187.637ZM71.5991 195.205L70.0643 187.637H68.765L67.555 193.192L66.41 187.637H65.1107L63.5597 195.205H64.7453L65.8416 189.147L67.0191 195.205H68.1235L69.3335 189.147L70.4297 195.205H71.5991ZM80.678 195.205L79.1432 187.637H77.8439L76.6339 193.192L75.4889 187.637H74.1896L72.6386 195.205H73.8242L74.9205 189.147L76.098 195.205H77.2024L78.4124 189.147L79.5087 195.205H80.678ZM89.7569 195.205L88.2221 187.637H86.9228L85.7128 193.192L84.5678 187.637H83.2685L81.7175 195.205H82.9031L83.9994 189.147L85.1769 195.205H86.2813L87.4913 189.147L88.5876 195.205H89.7569ZM95.5551 187.637H94.0446V189.147H95.5551V187.637ZM107.915 195.205L106.38 187.637H105.081L103.871 193.192L102.726 187.637H101.426L99.8753 195.205H101.061L102.157 189.147L103.335 195.205H104.439L105.649 189.147L106.745 195.205H107.915ZM116.994 195.205L115.459 187.637H114.16L112.95 193.192L111.805 187.637H110.505L108.954 195.205H110.14L111.236 189.147L112.414 195.205H113.518L114.728 189.147L115.824 195.205H116.994ZM171.467 195.205L169.932 187.637H168.633L167.423 193.192L166.278 187.637H164.979L163.428 195.205H164.613L165.71 189.147L166.887 195.205H167.991L169.201 189.147L170.298 195.205H171.467ZM180.546 195.205L179.011 187.637H177.712L176.502 193.192L175.357 187.637H174.058L172.507 195.205H173.692L174.788 189.147L175.966 195.205H177.07L178.28 189.147L179.377 195.205H180.546ZM186.344 187.637H184.834V189.147H186.344V187.637ZM198.704 195.205L197.169 187.637H195.87L194.66 193.192L193.515 187.637H192.215L190.664 195.205H191.85L192.946 189.147L194.124 195.205H195.228L196.438 189.147L197.534 195.205H198.704ZM207.783 195.205L206.248 187.637H204.949L203.739 193.192L202.594 187.637H201.294L199.743 195.205H200.929L202.025 189.147L203.203 195.205H204.307L205.517 189.147L206.613 195.205H207.783ZM216.862 195.205L215.327 187.637H214.028L212.818 193.192L211.673 187.637H210.373L208.822 195.205H210.008L211.104 189.147L212.282 195.205H213.386L214.596 189.147L215.692 195.205H216.862ZM279.764 187.637H272.992V198.234H274.104V188.587H279.764V187.637ZM7.39711 170.637H0.624475V181.234H1.73701V171.587H7.39711V170.637ZM53.4413 178.205L51.9065 170.637H50.6072L49.3972 176.192L48.2522 170.637H46.9529L45.4018 178.205H46.5875L47.6838 172.147L48.8612 178.205H49.9657L51.1756 172.147L52.2719 178.205H53.4413ZM59.2395 170.637H57.729V172.147H59.2395V170.637ZM68.3184 170.637H66.8079V172.147H68.3184V170.637ZM77.3973 170.637H75.8868V172.147H77.3973V170.637ZM86.4762 170.637H84.9657V172.147H86.4762V170.637ZM95.5551 170.637H94.0446V172.147H95.5551V170.637ZM104.634 170.637H103.124V172.147H104.634V170.637ZM113.713 170.637H112.202V172.147H113.713V170.637ZM122.792 170.637H121.281V172.147H122.792V170.637ZM135.151 178.205L133.617 170.637H132.317L131.107 176.192L129.962 170.637H128.663L127.112 178.205H128.298L129.394 172.147L130.571 178.205H131.676L132.886 172.147L133.982 178.205H135.151ZM140.95 170.637H139.439V172.147H140.95V170.637ZM153.309 178.205L151.774 170.637H150.475L149.265 176.192L148.12 170.637H146.821L145.27 178.205H146.455L147.552 172.147L148.729 178.205H149.834L151.044 172.147L152.14 178.205H153.309ZM159.107 170.637H157.597V172.147H159.107V170.637ZM168.186 170.637H166.676V172.147H168.186V170.637ZM177.265 170.637H175.755V172.147H177.265V170.637ZM186.344 170.637H184.834V172.147H186.344V170.637ZM195.423 170.637H193.913V172.147H195.423V170.637ZM204.502 170.637H202.992V172.147H204.502V170.637ZM213.581 170.637H212.07V172.147H213.581V170.637ZM222.66 170.637H221.149V172.147H222.66V170.637ZM235.019 178.205L233.485 170.637H232.185L230.975 176.192L229.83 170.637H228.531L226.98 178.205H228.166L229.262 172.147L230.439 178.205H231.544L232.754 172.147L233.85 178.205H235.019ZM279.764 170.637H272.992V181.234H274.104V171.587H279.764V170.637ZM7.39711 153.637H0.624475V164.234H1.73701V154.587H7.39711V153.637ZM44.3624 161.205L42.8276 153.637H41.5283L40.3183 159.192L39.1733 153.637H37.874L36.3229 161.205H37.5086L38.6048 155.147L39.7823 161.205H40.8868L42.0967 155.147L43.193 161.205H44.3624ZM50.1606 153.637H48.6501V155.147H50.1606V153.637ZM59.2395 153.637H57.729V155.147H59.2395V153.637ZM68.3184 153.637H66.8079V155.147H68.3184V153.637ZM77.3973 153.637H75.8868V155.147H77.3973V153.637ZM86.4762 153.637H84.9657V155.147H86.4762V153.637ZM95.5551 153.637H94.0446V155.147H95.5551V153.637ZM104.634 153.637H103.124V155.147H104.634V153.637ZM113.713 153.637H112.202V155.147H113.713V153.637ZM122.792 153.637H121.281V155.147H122.792V153.637ZM131.871 153.637H130.36V155.147H131.871V153.637ZM144.23 161.205L142.696 153.637H141.396L140.186 159.192L139.041 153.637H137.742L136.191 161.205H137.377L138.473 155.147L139.65 161.205H140.755L141.965 155.147L143.061 161.205H144.23ZM150.029 153.637H148.518V155.147H150.029V153.637ZM159.107 153.637H157.597V155.147H159.107V153.637ZM168.186 153.637H166.676V155.147H168.186V153.637ZM177.265 153.637H175.755V155.147H177.265V153.637ZM186.344 153.637H184.834V155.147H186.344V153.637ZM195.423 153.637H193.913V155.147H195.423V153.637ZM204.502 153.637H202.992V155.147H204.502V153.637ZM213.581 153.637H212.07V155.147H213.581V153.637ZM222.66 153.637H221.149V155.147H222.66V153.637ZM231.739 153.637H230.228V155.147H231.739V153.637ZM244.098 161.205L242.564 153.637H241.264L240.054 159.192L238.909 153.637H237.61L236.059 161.205H237.245L238.341 155.147L239.518 161.205H240.623L241.833 155.147L242.929 161.205H244.098ZM279.764 153.637H272.992V164.234H274.104V154.587H279.764V153.637ZM7.39711 136.637H0.624475V147.234H1.73701V137.587H7.39711V136.637ZM44.3624 144.205L42.8276 136.637H41.5283L40.3183 142.192L39.1733 136.637H37.874L36.3229 144.205H37.5086L38.6048 138.147L39.7823 144.205H40.8868L42.0967 138.147L43.193 144.205H44.3624ZM50.1606 136.637H48.6501V138.147H50.1606V136.637ZM59.2395 136.637H57.729V138.147H59.2395V136.637ZM68.3184 136.637H66.8079V138.147H68.3184V136.637ZM77.3973 136.637H75.8868V138.147H77.3973V136.637ZM86.4762 136.637H84.9657V138.147H86.4762V136.637ZM95.5551 136.637H94.0446V138.147H95.5551V136.637ZM104.634 136.637H103.124V138.147H104.634V136.637ZM113.713 136.637H112.202V138.147H113.713V136.637ZM122.792 136.637H121.281V138.147H122.792V136.637ZM131.871 136.637H130.36V138.147H131.871V136.637ZM140.95 136.637H139.439V138.147H140.95V136.637ZM150.029 136.637H148.518V138.147H150.029V136.637ZM159.107 136.637H157.597V138.147H159.107V136.637ZM168.186 136.637H166.676V138.147H168.186V136.637ZM177.265 136.637H175.755V138.147H177.265V136.637ZM186.344 136.637H184.834V138.147H186.344V136.637ZM195.423 136.637H193.913V138.147H195.423V136.637ZM204.502 136.637H202.992V138.147H204.502V136.637ZM213.581 136.637H212.07V138.147H213.581V136.637ZM222.66 136.637H221.149V138.147H222.66V136.637ZM231.739 136.637H230.228V138.147H231.739V136.637ZM244.098 144.205L242.564 136.637H241.264L240.054 142.192L238.909 136.637H237.61L236.059 144.205H237.245L238.341 138.147L239.518 144.205H240.623L241.833 138.147L242.929 144.205H244.098ZM279.764 136.637H272.992V147.234H274.104V137.587H279.764V136.637ZM7.39711 119.637H0.624475V130.234H1.73701V120.587H7.39711V119.637ZM53.4413 127.205L51.9065 119.637H50.6072L49.3972 125.192L48.2522 119.637H46.9529L45.4018 127.205H46.5875L47.6838 121.147L48.8612 127.205H49.9657L51.1756 121.147L52.2719 127.205H53.4413ZM59.2395 119.637H57.729V121.147H59.2395V119.637ZM68.3184 119.637H66.8079V121.147H68.3184V119.637ZM77.3973 119.637H75.8868V121.147H77.3973V119.637ZM86.4762 119.637H84.9657V121.147H86.4762V119.637ZM95.5551 119.637H94.0446V121.147H95.5551V119.637ZM104.634 119.637H103.124V121.147H104.634V119.637ZM113.713 119.637H112.202V121.147H113.713V119.637ZM122.792 119.637H121.281V121.147H122.792V119.637ZM131.871 119.637H130.36V121.147H131.871V119.637ZM140.95 119.637H139.439V121.147H140.95V119.637ZM150.029 119.637H148.518V121.147H150.029V119.637ZM159.107 119.637H157.597V121.147H159.107V119.637ZM168.186 119.637H166.676V121.147H168.186V119.637ZM177.265 119.637H175.755V121.147H177.265V119.637ZM186.344 119.637H184.834V121.147H186.344V119.637ZM195.423 119.637H193.913V121.147H195.423V119.637ZM204.502 119.637H202.992V121.147H204.502V119.637ZM213.581 119.637H212.07V121.147H213.581V119.637ZM222.66 119.637H221.149V121.147H222.66V119.637ZM235.019 127.205L233.485 119.637H232.185L230.975 125.192L229.83 119.637H228.531L226.98 127.205H228.166L229.262 121.147L230.439 127.205H231.544L232.754 121.147L233.85 127.205H235.019ZM279.764 119.637H272.992V130.234H274.104V120.587H279.764V119.637ZM7.39711 102.637H0.624475V113.234H1.73701V103.587H7.39711V102.637ZM71.5991 110.205L70.0643 102.637H68.765L67.555 108.192L66.41 102.637H65.1107L63.5597 110.205H64.7453L65.8416 104.147L67.0191 110.205H68.1235L69.3335 104.147L70.4297 110.205H71.5991ZM77.3973 102.637H75.8868V104.147H77.3973V102.637ZM86.4762 102.637H84.9657V104.147H86.4762V102.637ZM95.5551 102.637H94.0446V104.147H95.5551V102.637ZM104.634 102.637H103.124V104.147H104.634V102.637ZM113.713 102.637H112.202V104.147H113.713V102.637ZM122.792 102.637H121.281V104.147H122.792V102.637ZM131.871 102.637H130.36V104.147H131.871V102.637ZM140.95 102.637H139.439V104.147H140.95V102.637ZM150.029 102.637H148.518V104.147H150.029V102.637ZM159.107 102.637H157.597V104.147H159.107V102.637ZM168.186 102.637H166.676V104.147H168.186V102.637ZM177.265 102.637H175.755V104.147H177.265V102.637ZM186.344 102.637H184.834V104.147H186.344V102.637ZM195.423 102.637H193.913V104.147H195.423V102.637ZM204.502 102.637H202.992V104.147H204.502V102.637ZM216.862 110.205L215.327 102.637H214.028L212.818 108.192L211.673 102.637H210.373L208.822 110.205H210.008L211.104 104.147L212.282 110.205H213.386L214.596 104.147L215.692 110.205H216.862ZM279.764 102.637H272.992V113.234H274.104V103.587H279.764V102.637ZM7.39711 85.637H0.624475V96.2344H1.73701V86.5871H7.39711V85.637ZM89.7569 93.2054L88.2221 85.637H86.9228L85.7128 91.1915L84.5678 85.637H83.2685L81.7175 93.2054H82.9031L83.9994 87.1474L85.1769 93.2054H86.2813L87.4913 87.1474L88.5876 93.2054H89.7569ZM95.5551 85.637H94.0446V87.1474H95.5551V85.637ZM104.634 85.637H103.124V87.1474H104.634V85.637ZM113.713 85.637H112.202V87.1474H113.713V85.637ZM122.792 85.637H121.281V87.1474H122.792V85.637ZM131.871 85.637H130.36V87.1474H131.871V85.637ZM140.95 85.637H139.439V87.1474H140.95V85.637ZM150.029 85.637H148.518V87.1474H150.029V85.637ZM159.107 85.637H157.597V87.1474H159.107V85.637ZM168.186 85.637H166.676V87.1474H168.186V85.637ZM177.265 85.637H175.755V87.1474H177.265V85.637ZM186.344 85.637H184.834V87.1474H186.344V85.637ZM198.704 93.2054L197.169 85.637H195.87L194.66 91.1915L193.515 85.637H192.215L190.664 93.2054H191.85L192.946 87.1474L194.124 93.2054H195.228L196.438 87.1474L197.534 93.2054H198.704ZM279.764 85.637H272.992V96.2344H274.104V86.5871H279.764V85.637ZM7.39711 68.637H0.624475V79.2344H1.73701V69.5871H7.39711V68.637ZM107.915 76.2054L106.38 68.637H105.081L103.871 74.1915L102.726 68.637H101.426L99.8753 76.2054H101.061L102.157 70.1474L103.335 76.2054H104.439L105.649 70.1474L106.745 76.2054H107.915ZM113.713 68.637H112.202V70.1474H113.713V68.637ZM122.792 68.637H121.281V70.1474H122.792V68.637ZM131.871 68.637H130.36V70.1474H131.871V68.637ZM140.95 68.637H139.439V70.1474H140.95V68.637ZM150.029 68.637H148.518V70.1474H150.029V68.637ZM159.107 68.637H157.597V70.1474H159.107V68.637ZM168.186 68.637H166.676V70.1474H168.186V68.637ZM180.546 76.2054L179.011 68.637H177.712L176.502 74.1915L175.357 68.637H174.058L172.507 76.2054H173.692L174.788 70.1474L175.966 76.2054H177.07L178.28 70.1474L179.377 76.2054H180.546ZM279.764 68.637H272.992V79.2344H274.104V69.5871H279.764V68.637ZM7.39711 51.637H0.624475V62.2344H1.73701V52.5871H7.39711V51.637ZM126.073 59.2054L124.538 51.637H123.238L122.028 57.1915L120.883 51.637H119.584L118.033 59.2054H119.219L120.315 53.1474L121.493 59.2054H122.597L123.807 53.1474L124.903 59.2054H126.073ZM131.871 51.637H130.36V53.1474H131.871V51.637ZM140.95 51.637H139.439V53.1474H140.95V51.637ZM150.029 51.637H148.518V53.1474H150.029V51.637ZM162.388 59.2054L160.853 51.637H159.554L158.344 57.1915L157.199 51.637H155.9L154.349 59.2054H155.534L156.631 53.1474L157.808 59.2054H158.913L160.123 53.1474L161.219 59.2054H162.388ZM279.764 51.637H272.992V62.2344H274.104V52.5871H279.764V51.637ZM7.39711 34.637H0.624475V45.2344H1.73701V35.5871H7.39711V34.637ZM144.23 42.2054L142.696 34.637H141.396L140.186 40.1915L139.041 34.637H137.742L136.191 42.2054H137.377L138.473 36.1474L139.65 42.2054H140.755L141.965 36.1474L143.061 42.2054H144.23ZM279.764 34.637H272.992V45.2344H274.104V35.5871H279.764V34.637ZM7.39711 17.637H0.624475V28.2344H1.73701V18.5871H7.39711V17.637ZM279.764 17.637H272.992V28.2344H274.104V18.5871H279.764V17.637ZM7.39711 0.636963H0.624475V11.2344H1.73701V1.58708H7.39711V0.636963ZM16.476 0.636963H9.70338V11.2344H10.8159V1.58708H16.476V0.636963ZM25.5549 0.636963H18.7823V11.2344H19.8948V1.58708H25.5549V0.636963ZM34.6338 0.636963H27.8612V11.2344H28.9737V1.58708H34.6338V0.636963ZM43.7127 0.636963H36.9401V11.2344H38.0526V1.58708H43.7127V0.636963ZM52.7917 0.636963H46.019V11.2344H47.1315V1.58708H52.7917V0.636963ZM61.8706 0.636963H55.0979V11.2344H56.2105V1.58708H61.8706V0.636963ZM70.9495 0.636963H64.1768V11.2344H65.2894V1.58708H70.9495V0.636963ZM80.0284 0.636963H73.2557V11.2344H74.3683V1.58708H80.0284V0.636963ZM89.1073 0.636963H82.3346V11.2344H83.4472V1.58708H89.1073V0.636963ZM98.1862 0.636963H91.4136V11.2344H92.5261V1.58708H98.1862V0.636963ZM107.265 0.636963H100.492V11.2344H101.605V1.58708H107.265V0.636963ZM116.344 0.636963H109.571V11.2344H110.684V1.58708H116.344V0.636963ZM125.423 0.636963H118.65V11.2344H119.763V1.58708H125.423V0.636963ZM134.502 0.636963H127.729V11.2344H128.842V1.58708H134.502V0.636963ZM143.581 0.636963H136.808V11.2344H137.921V1.58708H143.581V0.636963ZM152.66 0.636963H145.887V11.2344H147V1.58708H152.66V0.636963ZM161.739 0.636963H154.966V11.2344H156.078V1.58708H161.739V0.636963ZM170.817 0.636963H164.045V11.2344H165.157V1.58708H170.817V0.636963ZM179.896 0.636963H173.124V11.2344H174.236V1.58708H179.896V0.636963ZM188.975 0.636963H182.203V11.2344H183.315V1.58708H188.975V0.636963ZM198.054 0.636963H191.282V11.2344H192.394V1.58708H198.054V0.636963ZM207.133 0.636963H200.36V11.2344H201.473V1.58708H207.133V0.636963ZM216.212 0.636963H209.439V11.2344H210.552V1.58708H216.212V0.636963ZM225.291 0.636963H218.518V11.2344H219.631V1.58708H225.291V0.636963ZM234.37 0.636963H227.597V11.2344H228.71V1.58708H234.37V0.636963ZM243.449 0.636963H236.676V11.2344H237.789V1.58708H243.449V0.636963ZM252.528 0.636963H245.755V11.2344H246.868V1.58708H252.528V0.636963ZM261.607 0.636963H254.834V11.2344H255.946V1.58708H261.607V0.636963ZM270.685 0.636963H263.913V11.2344H265.025V1.58708H270.685V0.636963ZM279.764 0.636963H272.992V11.2344H274.104V1.58708H279.764V0.636963Z" fill="#FF16B0"/>
</svg>
